<?xml version="1.0" encoding="UTF-8"?>
<svg width="96px" height="96px" viewBox="0 0 96 96" version="1.1" xmlns="http://www.w3.org/2000/svg" xmlns:xlink="http://www.w3.org/1999/xlink">
    <!-- Generator: Sketch 57.1 (83088) - https://sketch.com -->
    <title>General</title>
    <desc>Created with Sketch.</desc>
    <g id="Version01" stroke="none" stroke-width="1" fill="none" fill-rule="evenodd">
        <g id="CrustyCrust_Contact" transform="translate(-1063.000000, -550.000000)">
            <g id="01" transform="translate(1032.000000, 550.000000)">
                <g id="General" transform="translate(31.000000, 0.000000)">
                    <rect id="Rectangle" fill="#FFFFFF" x="0" y="0" width="96" height="96"></rect>
                    <g id="front-burner" transform="translate(9.937500, 9.000000)" fill-rule="nonzero">
                        <path d="M27.3735,53.47125 C27.370875,53.323125 27.369375,53.174625 27.369375,53.02575 C27.369375,51.40725 27.53025,49.82625 27.837,48.29775 C26.861625,48.418875 25.86825,48.4815 24.86025,48.4815 C12.52875,48.4815 2.38125,39.139125 1.10325,27.146625 C1.013625,27.988125 0.964875,28.841625 0.964875,29.70675 C0.964875,36.572625 3.865125,42.757875 8.502,47.1165 L1.4775,53.026125 L11.433375,49.47375 L11.433,49.473 C15.26025,52.07775 19.882125,53.6017523 24.860625,53.6017523 C25.70925,53.602125 26.54775,53.5575 27.3735,53.47125 L27.3735,53.47125 Z" id="Path" fill="#F2EAE0"></path>
                        <path d="M24.531,37.1895 C23.515125,37.1895 22.89225,37.64025 22.54875,38.018625 C22.08975,38.522625 21.847125,39.161625 21.847125,39.866625 C21.847125,40.57275 22.096875,41.209125 22.569,41.705625 C22.912125,42.06675 23.530875,42.49725 24.531,42.49725 C25.503375,42.49725 26.122875,42.079125 26.47125,41.728875 C26.968125,41.229 27.231,40.58475 27.231,39.866625 C27.231,39.150375 26.976,38.5035 26.493375,37.99575 C25.990875,37.468125 25.312125,37.1895 24.531,37.1895 L24.531,37.1895 Z" id="Path" fill="#DA4A48"></path>
                        <path d="M30.162375,18.364875 C28.873125,17.064375 27.13275,16.40475 24.990375,16.40475 C22.918875,16.40475 21.1695,17.03625 19.790625,18.281625 C18.37575,19.56075 17.645625,21.264 17.6207737,23.344125 L17.6207737,23.344875 C17.6115,24.14025 18.253875,24.7905 19.04925,24.7905 L20.87175,24.7905 C21.651,24.7905 22.286625,24.16575 22.300125,23.3865 C22.314,22.589625 22.5435,21.99375 23.002125,21.56625 C23.4825,21.118875 24.13275,20.901375 24.990375,20.901375 C25.797375,20.901375 26.384625,21.11025 26.78475,21.54 C27.212625,21.999375 27.420375,22.663875 27.420375,23.57175 C27.420375,24.0525 27.363,24.47475 27.2505,24.827625 C27.137625,25.180875 26.976,25.50825 26.770125,25.800375 C26.60475,26.03475 26.16075,26.557875 24.983625,27.715875 C23.825625,28.854375 23.076,29.855625 22.691625,30.776625 C22.31175,31.68675 22.11525,32.8095 22.09125,34.20825 L22.09125,34.208625 C22.077375,35.007 22.720875,35.66175 23.519625,35.66175 L25.342875,35.66175 C26.131875,35.66175 26.77125,35.022375 26.77125,34.233375 L26.77125,34.233 C26.77125,32.798625 27.171375,31.793625 28.039125,31.06275 C29.575125,29.651625 30.605625,28.419 31.18875,27.295875 C31.79325,26.131125 32.0996252,24.867375 32.0996252,23.54025 C32.1,21.403875 31.44825,19.66275 30.162375,18.364875 L30.162375,18.364875 Z" id="Path" fill="#DA4A48"></path>
                        <path d="M75.15975,53.02575 C75.15975,52.160625 75.111,51.30675 75.021375,50.465625 C73.743375,62.458125 63.59625,71.8005 51.264375,71.8005 C38.932875,71.8005 28.785375,62.458125 27.50775,50.465625 C27.418125,51.30675 27.369375,52.160625 27.369375,53.02575 C27.369375,66.222375 38.06775,76.92075 51.264375,76.92075 C56.242875,76.92075 60.86475,75.39675 64.692,72.791625 L64.691625,72.792375 L74.6475,76.34475 L67.622625,70.435125 C72.2595,66.076875 75.15975,59.891625 75.15975,53.02575 Z" id="Path" fill="#F2EAE0"></path>
                        <path d="M51.124875,55.866375 C49.502625,55.866375 48.1875,54.55125 48.1875,52.929 L48.1875,41.304 C48.1875,39.68175 49.502625,38.366625 51.124875,38.366625 C52.747125,38.366625 54.0622501,39.68175 54.0622501,41.304 L54.0622501,52.929 C54.062625,54.55125 52.7475,55.866375 51.124875,55.866375 Z" id="Path" fill="#DA4A48"></path>
                        <circle id="Oval" fill="#DA4A48" transform="translate(51.149267, 61.529317) rotate(-76.644659) translate(-51.149267, -61.529317) " cx="51.1492665" cy="61.5293168" r="2.93750718"></circle>
                        <g id="Group" fill="#46362E">
                            <path d="M24.86025,6.749625 C29.7,6.749625 34.32825,8.237625 38.244375,11.052375 C38.664375,11.35425 39.2505,11.258625 39.55275,10.83825 C39.855,10.417875 39.759,9.832125 39.338625,9.529875 C35.1015,6.4845 30.09525,4.874625 24.86025,4.874625 C11.1675,4.874625 0.02775,16.014375 0.02775,29.707125 C0.02775,34.516125 1.398375,39.16275 3.996,43.177125 L0.59475,52.71075 C0.472875,53.052 0.55875,53.432625 0.814875,53.68875 C1.071,53.944875 1.45125,54.031125 1.792875,53.908875 L11.305875,50.51475 C14.857875,52.832625 18.956625,54.202875 23.1915,54.484125 C23.2125,54.48525 23.2335,54.486 23.2545,54.486 C23.743875,54.486 24.156,54.106125 24.189,53.610375 C24.223125,53.094 23.832375,52.647375 23.315625,52.612875 C19.254,52.342875 15.328125,50.9895 11.961375,48.69825 C11.713875,48.53025 11.401125,48.48975 11.11875,48.59025 L3.025125,51.478125 L5.919375,43.36575 C6.0195,43.08525 5.9805,42.773625 5.813625,42.5265 C3.255,38.733375 1.90275,34.300125 1.90275,29.706375 C1.90275,17.04825 12.20175,6.749625 24.86025,6.749625 L24.86025,6.749625 Z" id="Path"></path>
                            <path d="M72.129,66.496125 C74.726625,62.48175 76.09725,57.83475 76.09725,53.02575 C76.09725,39.333 64.9575,28.19325 51.26475,28.19325 C37.572,28.19325 26.43225,39.333 26.43225,53.02575 C26.43225,66.7185 37.572,77.85825 51.26475,77.85825 C56.108625,77.85825 60.7845,76.468125 64.819875,73.833375 L74.3325,77.2275 C74.674125,77.34975 75.054375,77.2635 75.3105,77.007375 C75.566625,76.75125 75.6525,76.370625 75.530625,76.029375 L72.129,66.496125 Z M65.006625,71.909625 C64.72425,71.80875 64.4115,71.84925 64.164,72.017625 C60.35175,74.61225 55.891125,75.983625 51.26475,75.983625 C38.605875,75.983625 28.30725,65.685 28.30725,53.026125 C28.30725,40.36725 38.605875,30.068625 51.26475,30.068625 C63.923625,30.068625 74.22225,40.36725 74.22225,53.026125 C74.22225,57.619875 72.87,62.053125 70.311375,65.84625 C70.144875,66.093375 70.1055,66.405 70.205625,66.6855 L73.099875,74.7975 L65.006625,71.909625 Z" id="Shape"></path>
                            <path d="M38.338125,15.668625 C38.5155,16.3515 38.919,16.897875 39.243375,17.337 C40.49325,19.027875 41.85225,20.758125 43.398,22.626375 C43.5765,22.842 43.753125,23.059875 43.92975,23.27775 C44.202,23.613375 44.47425,23.949 44.75325,24.27825 C45.7005,25.574625 47.101125,26.3175 48.6015,26.3175 L53.815125,26.3175 C56.554875,26.3175 58.783875,23.824125 58.783875,20.75925 L58.783875,6.97275 C58.783875,5.638875 57.698625,4.553625 56.36475,4.553625 C56.165625,4.553625 55.972125,4.577625 55.786875,4.623375 C55.58775,3.410625 54.5325,2.4825 53.26425,2.4825 C53.0235,2.4825 52.790625,2.515875 52.569375,2.5785 C52.433625,1.212 51.277875,0.14175 49.8765,0.14175 C48.85725,0.14175 47.967375,0.708375 47.506125,1.543125 C47.1525,1.37325 46.7565,1.278 46.33875,1.278 C44.84625,1.278 43.632375,2.491875 43.632375,3.984375 L43.632375,14.202 C43.553625,14.123625 43.4715,14.0415 43.3845,13.955625 C43.039125,13.614375 41.988,12.576 40.40325,12.796875 C39.804375,12.880875 39.289125,13.110375 38.912625,13.461375 C38.32575,14.00925 38.116125,14.813625 38.338125,15.668625 L38.338125,15.668625 Z M40.19175,14.83275 C40.19175,14.83275 40.192125,14.83275 40.19175,14.83275 C40.234875,14.792625 40.3665,14.695125 40.6635,14.6535 C40.724625,14.644875 40.784625,14.640375 40.843875,14.640375 C41.243625,14.640375 41.611125,14.838375 42.0675,15.289125 C42.218625,15.438375 42.3555,15.576 42.483,15.7035 C43.04325,16.265625 43.447875,16.671375 44.042625,17.076375 C44.3295,17.272125 44.701875,17.29275 45.008625,17.130375 C45.31575,16.968 45.50775,16.648875 45.50775,16.301625 L45.50775,3.984375 C45.50775,3.526125 45.880875,3.153 46.339125,3.153 C46.797375,3.153 47.1705,3.526125 47.1705,3.984375 L47.1705,11.5095 C47.1705,12.027375 47.590125,12.447 48.108,12.447 C48.625875,12.447 49.0455,12.027375 49.0455,11.5095 L49.0455,3.984375 L49.0455,2.848125 C49.0455,2.3895 49.418625,2.01675 49.876875,2.01675 C50.335125,2.01675 50.70825,2.389875 50.70825,2.848125 L50.70825,5.0385 L50.70825,11.5095 C50.70825,12.027375 51.127875,12.447 51.64575,12.447 C52.163625,12.447 52.58325,12.027375 52.58325,11.5095 L52.58325,5.0385 C52.58325,4.663125 52.888875,4.3575 53.264625,4.3575 C53.64,4.3575 53.945625,4.663125 53.945625,5.0385 L53.945625,6.97275 L53.945625,11.509875 C53.945625,12.02775 54.36525,12.447375 54.883125,12.447375 C55.401,12.447375 55.820625,12.02775 55.820625,11.509875 L55.820625,6.97275 C55.820625,6.67275 56.06475,6.428625 56.36475,6.428625 C56.66475,6.428625 56.908875,6.67275 56.908875,6.97275 L56.908875,20.758875 C56.908875,22.789875 55.521,24.442125 53.815125,24.442125 L48.6015,24.442125 C47.69925,24.442125 46.84275,23.9715 46.25175,23.150625 C46.23675,23.13 46.221375,23.1105 46.20525,23.091 C45.927375,22.764375 45.657,22.430625 45.386625,22.09725 C45.205875,21.874125 45.0255,21.65175 44.842875,21.43125 C43.31925,19.589625 41.980875,17.886 40.751625,16.22325 C40.499625,15.882 40.239375,15.5295 40.15275,15.197625 C40.0845,14.93325 40.1595,14.86275 40.19175,14.83275 L40.19175,14.83275 Z" id="Shape"></path>
                        </g>
                    </g>
                </g>
            </g>
        </g>
    </g>
</svg>