<?xml version="1.0" encoding="UTF-8"?>
<svg width="96px" height="96px" viewBox="0 0 96 96" version="1.1" xmlns="http://www.w3.org/2000/svg" xmlns:xlink="http://www.w3.org/1999/xlink">
    <!-- Generator: Sketch 57.1 (83088) - https://sketch.com -->
    <title>Catering</title>
    <desc>Created with Sketch.</desc>
    <g id="Version01" stroke="none" stroke-width="1" fill="none" fill-rule="evenodd">
        <g id="CrustyCrust_Contact" transform="translate(-282.000000, -550.000000)">
            <g id="01" transform="translate(244.000000, 550.000000)">
                <g id="Catering" transform="translate(38.000000, 0.000000)">
                    <rect id="Rectangle" fill="#FFFFFF" x="0" y="0" width="96" height="96"></rect>
                    <g id="bipartisan" transform="translate(9.187500, 17.062500)" fill-rule="nonzero">
                        <g id="Group" transform="translate(0.937500, 15.187500)" fill="#F2EAE0">
                            <path d="M20.013,25.5705 C21.14175,24.44175 22.972125,24.44175 24.100875,25.5705 C25.229625,26.69925 25.229625,28.529625 24.100875,29.65875 L26.569875,27.19125 C27.138,26.623125 27.88425,26.3415 28.629,26.34525 L14.059125,11.775375 L10.6575,15.177 L15.946875,20.466375 L19.23975,26.34375 L20.013,25.5705 Z" id="Path"></path>
                            <path d="M43.819875,39.734625 L42.382875,38.29725 L42.273375,38.437875 C42.767625,39.506625 42.574125,40.814625 41.692875,41.6955 C40.993125,42.39525 40.024125,42.661125 39.119625,42.4935 L38.806125,42.896625 L39.732,43.8225 C40.86075,44.95125 42.691125,44.95125 43.82025,43.8225 C44.949,42.69375 44.949,40.863375 43.819875,39.734625 L43.819875,39.734625 Z" id="Path"></path>
                            <path d="M48.663,36.39975 L48.554625,36.426 C47.895,36.586125 47.370375,37.050375 47.0565,37.652625 C46.898625,37.956 46.683,38.23725 46.409625,38.479875 C45.25425,39.50775 43.4715,39.384 42.377625,38.2905 L42.084,37.99725 L42.082875,37.997625 L44.574375,40.487625 C45.703125,41.616375 47.5335,41.616375 48.66225,40.487625 C49.792125,39.35925 49.792125,37.528875 48.663,36.39975 L48.663,36.39975 Z" id="Path"></path>
                            <path d="M53.24475,32.805 L53.096625,32.83125 C52.467,32.943375 51.9615,33.378 51.6885,33.95625 C51.550125,34.249125 51.36,34.524 51.11775,34.76625 C49.989,35.895 48.159,35.895 47.03025,34.766625 L50.353875,38.09025 C51.42075,39.157125 53.24475,38.4015 53.24475,36.892875 C54.373875,35.764125 54.373875,33.93375 53.24475,32.805 L53.24475,32.805 Z" id="Path"></path>
                            <path d="M58.228875,29.612625 L58.167,29.619375 C57.50475,29.69175 56.962875,30.1335 56.68425,30.73875 C56.536875,31.059375 56.32725,31.358625 56.056125,31.6185 C54.9075,32.71875 53.0595,32.61975 51.934875,31.495125 L50.8575,30.41775 L54.05475,33.615 C55.174125,34.734375 57.012375,34.847625 58.16475,33.76275 C59.35725,32.639625 59.37825,30.762375 58.228875,29.612625 L58.228875,29.612625 Z" id="Path"></path>
                            <path d="M24.10125,29.658375 L23.976,29.783625 L24.10125,29.658375 Z" id="Path"></path>
                            <path d="M23.976,29.783625 C22.84725,30.912375 21.016875,30.912375 19.88775,29.783625 C18.759375,28.654875 18.759,26.82525 19.887,25.6965 L17.107875,28.475625 C15.979125,29.604375 15.979125,31.43475 17.107875,32.5635 C18.236625,33.69225 20.067,33.69225 21.196125,32.5635 L23.976,29.783625 Z" id="Path"></path>
                            <path d="M31.94625,42.256125 C30.850875,41.16075 30.818625,39.405 31.84875,38.270625 C31.813875,38.302125 31.77975,38.33475 31.746,38.3685 L29.166375,40.9485 C28.037625,42.07725 28.037625,43.907625 29.166375,45.036375 C30.295125,46.165125 32.1255,46.165125 33.25425,45.036375 L35.83425,42.45675 C35.868,42.423 35.90025,42.388875 35.932125,42.354 C34.797375,43.38375 33.041625,43.3515 31.94625,42.256125 L31.94625,42.256125 Z" id="Path"></path>
                            <path d="M27.19425,34.743375 C26.0655,35.872125 24.235125,35.872125 23.106375,34.743375 C21.977625,33.614625 21.977625,31.78425 23.106375,30.6555 L20.3265,33.435375 C19.19775,34.564125 19.19775,36.3945 20.3265,37.52325 C21.45525,38.652 23.285625,38.652 24.414375,37.52325 L27.19425,34.743375 Z" id="Path"></path>
                            <path d="M33.419625,36.6945 C33.42,36.6945 33.42,36.694125 33.42,36.694125 L31.2825,38.831625 C30.15375,39.960375 28.323375,39.960375 27.19425,38.831625 C26.0655,37.702875 26.0655,35.8725 27.19425,34.74375 L29.331,32.607 L24.414,37.524 C23.28525,38.65275 23.28525,40.483125 24.414,41.611875 C25.54275,42.740625 27.373125,42.740625 28.501875,41.611875 L33.419625,36.6945 Z" id="Path"></path>
                            <path d="M16.619625,9.21525 L9.26325,16.57125 C9.005625,16.828875 8.587875,16.828875 8.33025,16.57125 L0.1935,8.4345 C-0.064125,8.176875 -0.064125,7.759125 0.1935,7.5015 L7.549875,0.145125 L16.619625,9.21525 Z" id="Path"></path>
                            <path d="M66.48675,15.515625 L60.954,9.982875 L70.024125,0.91275 L75.556875,6.4455 C75.8145,6.703125 75.8145,7.120875 75.556875,7.3785 L67.420125,15.51525 C67.162125,15.77325 66.744375,15.77325 66.48675,15.515625 Z" id="Path"></path>
                            <polygon id="Path" points="61.906875 10.93575 60.954 9.982875 49.694625 21.24225 55.061625 26.60925 60.517875 18.18525 64.837125 13.866"></polygon>
                        </g>
                        <g id="Group" transform="translate(0.000000, 1.687500)" fill="#46362E">
                            <path d="M77.157,19.282875 L58.49475,0.62025 C57.8715,-0.001875 56.858625,-0.001875 56.236125,0.620625 L48.099375,8.757375 C47.4765,9.38025 47.4765,10.3935 48.099375,11.016375 L48.5565,11.4735 L43.879875,16.150125 L37.84875,16.150125 C36.845625,16.150125 35.901375,16.518 35.16075,17.183625 L32.177625,16.219125 L28.77825,12.81975 L29.525625,12.072375 C29.8275,11.7705 29.993625,11.36925 29.993625,10.9425 C29.993625,10.51575 29.8275,10.1145 29.525625,9.813 L21.388875,1.67625 C21.087375,1.374375 20.686125,1.20825 20.259375,1.20825 C19.832625,1.20825 19.43175,1.374375 19.129875,1.67625 L0.467625,20.3385 C-0.15525,20.961375 -0.15525,21.974625 0.467625,22.5975 L8.604375,30.73425 C8.915625,31.045875 9.32475,31.2015 9.733875,31.2015 C10.143,31.2015 10.552125,31.045875 10.863375,30.73425 L11.595,30.002625 L16.129875,34.5375 L17.780625,37.483875 C17.952375,37.790625 18.271125,37.9635 18.599625,37.9635 C18.754875,37.9635 18.912,37.924875 19.05675,37.843875 C19.508625,37.59075 19.6695,37.01925 19.416375,36.56775 L17.70225,33.508125 C17.66025,33.433125 17.608125,33.364125 17.547375,33.303375 L12.921,28.677 L27.45225,14.145375 L31.011375,17.7045 C31.116375,17.8095 31.244625,17.887875 31.385625,17.933625 L33.659625,18.669 L27.01725,25.311 C25.6935,26.635125 25.473375,28.69575 26.49375,30.2115 C27.15075,31.187625 28.189875,31.811625 29.344125,31.923 C30.49875,32.03475 31.63125,31.628625 32.450625,30.808875 L38.9115,24.348375 L55.335375,40.771875 C55.512,40.948875 55.750875,41.046375 55.998375,41.046375 C56.031,41.046375 56.064,41.044875 56.097,41.041125 C56.378625,41.0115 56.631375,40.855875 56.7855,40.6185 L62.18775,32.278125 L65.773875,28.691625 L66.7605,29.67825 L66.7605,29.678625 C67.072125,29.9895 67.480875,30.145125 67.89,30.145125 C68.299125,30.145125 68.70825,29.9895 69.0195,29.67825 L77.15625,21.541875 C77.458125,21.24 77.62425,20.839125 77.62425,20.412 C77.62425,19.984875 77.458875,19.584375 77.157,19.282875 Z M1.990125,21.468 L20.25975,3.198375 L28.0035,10.9425 L9.73425,29.212125 L1.990125,21.468 Z M60.792375,31.022625 C60.745875,31.069125 60.70425,31.1205 60.66825,31.176 L55.842375,38.6265 L39.57525,22.35975 C39.39225,22.17675 39.15225,22.08525 38.91225,22.08525 C38.67225,22.08525 38.43225,22.17675 38.24925,22.35975 L31.125375,29.483625 C30.7035,29.9055 30.12,30.114375 29.52525,30.057 C28.921875,29.9985 28.397625,29.681625 28.049625,29.1645 C27.52875,28.39125 27.6525,27.328125 28.343625,26.637 L36.324,18.656625 C36.73125,18.249375 37.27275,18.025125 37.848375,18.025125 L44.267625,18.025125 C44.51625,18.025125 44.75475,17.9265 44.930625,17.750625 L49.88175,12.7995 L57.165375,20.08275 L64.449,27.366375 L60.792375,31.022625 Z M67.89075,28.1565 L66.437625,26.703375 L56.720625,16.98675 L49.621125,9.88725 L57.36525,2.143125 L75.634875,20.41275 L67.89075,28.1565 Z" id="Shape"></path>
                            <path d="M35.555625,50.1795 C36.479625,48.702 36.303375,46.727625 35.01975,45.443625 C34.449375,44.872875 33.741375,44.52225 33.001875,44.388 C33.24675,43.878 33.379875,43.317375 33.379875,42.735 C33.379875,41.712375 32.981625,40.75125 32.258625,40.02825 C30.7665,38.53575 28.33725,38.53575 26.84475,40.02825 L26.7,40.173 C26.536875,39.526125 26.206875,38.912625 25.701375,38.4075 C24.20925,36.915 21.78,36.915 20.2875,38.4075 L17.382375,41.312625 C15.889875,42.805125 15.889875,45.233625 17.382375,46.7265 C18.019125,47.363625 18.826875,47.72625 19.659375,47.819625 C19.542,48.190125 19.479375,48.57975 19.479375,48.9795 C19.479375,50.002125 19.877625,50.963625 20.600625,51.68625 C21.346875,52.4325 22.327125,52.805625 23.307375,52.805625 C23.39925,52.805625 23.49075,52.798875 23.58225,52.7925 C23.50575,53.862375 23.8725,54.958125 24.6885,55.7745 C25.43475,56.52075 26.415,56.893875 27.39525,56.893875 C27.710625,56.893875 28.024875,56.851125 28.33275,56.773875 C28.399125,57.69 28.78425,58.543125 29.440125,59.199 C30.163125,59.922 31.124625,60.32025 32.14725,60.32025 C33.169875,60.32025 34.131375,59.922 34.854,59.199 L37.433625,56.619375 C38.926125,55.126875 38.926125,52.698 37.433625,51.2055 C36.9,50.67075 36.2445,50.331 35.555625,50.1795 L35.555625,50.1795 Z M18.708375,42.638625 L21.6135,39.7335 C21.9945,39.352875 22.494375,39.162375 22.994625,39.162375 C23.494875,39.162375 23.995125,39.352875 24.37575,39.7335 C25.137375,40.495125 25.137375,41.734125 24.37575,42.49575 L21.470625,45.400875 C20.709,46.162125 19.47,46.162125 18.708375,45.400875 C17.94675,44.63925 17.94675,43.399875 18.708375,42.638625 L18.708375,42.638625 Z M21.926625,50.36025 C21.557625,49.991625 21.35475,49.50075 21.35475,48.979125 C21.35475,48.4575 21.557625,47.967 21.926625,47.598 L28.170375,41.353875 C28.551375,40.97325 29.05125,40.78275 29.5515,40.78275 C30.051375,40.78275 30.551625,40.97325 30.932625,41.353875 C31.301625,41.7225 31.5045,42.213375 31.5045,42.735 C31.5045,43.256625 31.301625,43.747125 30.932625,44.116125 L30.932625,44.1165 L24.688875,50.36025 C23.92725,51.121875 22.68825,51.121875 21.926625,50.36025 L21.926625,50.36025 Z M26.014875,54.448875 C25.25325,53.68725 25.25325,52.44825 26.014875,51.68625 L30.931875,46.76925 C31.312875,46.388625 31.81275,46.198125 32.313,46.198125 C32.81325,46.198125 33.313125,46.388625 33.694125,46.76925 C34.45575,47.530875 34.45575,48.769875 33.694125,49.531875 L28.777125,54.448875 C28.015875,55.210125 26.776875,55.210125 26.014875,54.448875 Z M36.10875,55.293375 L33.52875,57.873 C33.160125,58.242 32.66925,58.444875 32.147625,58.444875 C31.626,58.444875 31.1355,58.241625 30.7665,57.872625 C30.3975,57.504 30.194625,57.0135 30.194625,56.4915 C30.194625,55.969875 30.397875,55.479375 30.7665,55.110375 L33.346125,52.53075 C33.727125,52.150125 34.227,51.959625 34.72725,51.959625 C35.2275,51.959625 35.727375,52.150125 36.108375,52.53075 C36.870375,53.29275 36.870375,54.532125 36.10875,55.293375 L36.10875,55.293375 Z" id="Shape"></path>
                            <path d="M58.503375,42.449625 C58.137,42.815625 58.137,43.40925 58.503375,43.77525 C58.872,44.14425 59.07525,44.63475 59.07525,45.156375 C59.07525,45.678 58.872,46.1685 58.503375,46.5375 C58.134375,46.9065 57.643875,47.10975 57.12225,47.10975 C56.60025,47.10975 56.110125,46.9065 55.74075,46.5375 L52.457625,43.25475 C52.09125,42.888375 51.498,42.888375 51.132,43.25475 C50.766,43.62075 50.766,44.214375 51.132,44.580375 L53.518875,46.966875 L53.519625,46.967625 C54.280875,47.72925 54.280875,48.96825 53.519625,49.729875 C53.150625,50.098875 52.660125,50.302125 52.138125,50.302125 C51.6165,50.302125 51.126,50.098875 50.757,49.73025 L47.904,46.87725 C47.537625,46.510875 46.944375,46.510875 46.578375,46.87725 C46.212,47.24325 46.212,47.836875 46.578375,48.202875 L48.935625,50.55975 C48.936375,50.5605 48.937125,50.561625 48.937875,50.56275 C49.3065,50.931375 49.50975,51.42225 49.50975,51.943875 C49.50975,52.4655 49.3065,52.956 48.937875,53.325 C48.568875,53.694 48.078375,53.89725 47.556375,53.89725 C47.03475,53.89725 46.544625,53.694 46.17525,53.324625 L43.683375,50.834625 C43.317,50.468625 42.723375,50.468625 42.357375,50.835 C41.991375,51.201375 41.991375,51.795 42.35775,52.161 L42.655875,52.45875 C42.65625,52.459125 42.656625,52.459875 42.657,52.46025 L44.094375,53.89725 C44.855625,54.658875 44.855625,55.897875 44.094375,56.6595 C43.725375,57.0285 43.234875,57.23175 42.712875,57.23175 C42.19125,57.23175 41.70075,57.0285 41.33175,56.659875 L40.405875,55.734 C40.0395,55.368 39.44625,55.368 39.08025,55.734 C38.713875,56.1 38.713875,56.693625 39.08025,57.059625 L40.006125,57.9855 C40.729125,58.7085 41.69025,59.10675 42.712875,59.10675 C43.7355,59.10675 44.696625,58.7085 45.42,57.9855 C46.077375,57.328125 46.444125,56.48925 46.5225,55.628625 C46.855125,55.721625 47.20125,55.772625 47.556,55.772625 C48.578625,55.772625 49.540125,55.374375 50.263125,54.651375 C50.949,53.965875 51.337875,53.0655 51.376875,52.102125 C51.62475,52.152 51.879375,52.177875 52.13775,52.177875 C53.160375,52.177875 54.1215,51.779625 54.844875,51.056625 C55.461375,50.440125 55.839,49.65 55.938,48.796875 C56.315625,48.9195 56.7135,48.9855 57.12225,48.9855 C58.144875,48.9855 59.106,48.586875 59.829,47.86425 C60.552375,47.14125 60.95025,46.17975 60.95025,45.157125 C60.95025,44.1345 60.552375,43.173375 59.829,42.450375 C59.462625,42.083625 58.869375,42.083625 58.503375,42.449625 L58.503375,42.449625 Z" id="Path"></path>
                        </g>
                        <path d="M38.8125,0.09375 C34.687125,0.09375 31.342875,3.438 31.342875,7.563375 C31.342875,11.68875 34.687125,15.033 38.8125,15.033 C42.937875,15.033 46.282125,11.68875 46.282125,7.563375 C46.282125,3.438 42.937875,0.09375 38.8125,0.09375 Z M43.49325,6.5715 L41.414625,8.081625 C41.229375,8.21625 41.15175,8.455125 41.222625,8.673375 L42.0165,11.116875 C42.17475,11.604375 41.617125,12.00975 41.202375,11.70825 L39.12375,10.198125 C38.938125,10.0635 38.68725,10.0635 38.501625,10.198125 L36.423,11.70825 C36.00825,12.00975 35.45025,11.604375 35.608875,11.116875 L36.40275,8.673375 C36.473625,8.455125 36.396,8.216625 36.210375,8.081625 L34.13175,6.5715 C33.717,6.270375 33.93,5.6145 34.442625,5.6145 L37.012125,5.6145 C37.24125,5.6145 37.4445,5.46675 37.515375,5.248875 L38.30925,2.805375 C38.4675,2.317875 39.1575,2.317875 39.31575,2.805375 L40.109625,5.248875 C40.1805,5.46675 40.38375,5.6145 40.612875,5.6145 L43.182375,5.6145 C43.695,5.6145 43.908,6.270375 43.49325,6.5715 L43.49325,6.5715 Z" id="Shape" fill="#DA4A48"></path>
                    </g>
                </g>
            </g>
        </g>
    </g>
</svg>