<?xml version="1.0" encoding="UTF-8"?>
<svg width="96px" height="96px" viewBox="0 0 96 96" version="1.1" xmlns="http://www.w3.org/2000/svg" xmlns:xlink="http://www.w3.org/1999/xlink">
    <!-- Generator: Sketch 57.1 (83088) - https://sketch.com -->
    <title>Careers</title>
    <desc>Created with Sketch.</desc>
    <g id="Version01" stroke="none" stroke-width="1" fill="none" fill-rule="evenodd">
        <g id="CrustyCrust_Contact" transform="translate(-672.000000, -550.000000)">
            <g id="01" transform="translate(627.000000, 550.000000)">
                <g id="Careers" transform="translate(45.000000, 0.000000)">
                    <rect id="Rectangle" fill="#FFFFFF" x="0" y="0" width="96" height="96"></rect>
                    <g id="p2p" transform="translate(7.687500, 8.062500)" fill-rule="nonzero">
                        <g id="Group" transform="translate(0.937500, 23.250000)" fill="#F2EAE0">
                            <polygon id="Path" points="27.80475 0.13725 50.94525 0.13725 50.94525 7.82325 27.80475 7.82325"></polygon>
                            <polygon id="Path" points="0 40.471875 23.1405 40.471875 23.1405 48.157875 0 48.157875"></polygon>
                            <polygon id="Path" points="55.6095 40.471875 78.75 40.471875 78.75 48.157875 55.6095 48.157875"></polygon>
                        </g>
                        <path d="M51.004125,50.547375 L43.644,45.795 L43.644,39.6225 C43.644,37.782375 42.152625,36.291 40.3125,36.291 C38.472375,36.291 36.981,37.78275 36.981,39.6225 L36.981,45.795 L29.620875,50.547375 C28.075125,51.545625 27.631125,53.60775 28.629,55.1535 C29.62725,56.699625 31.68975,57.142875 33.235125,56.145375 L40.3125,51.57525 L47.3895,56.145 C47.94825,56.50575 48.5745,56.6782842 49.193625,56.6782842 C50.28675,56.6782842 51.3585,56.140125 51.995625,55.1535 C52.99425,53.60775 52.549875,51.54525 51.004125,50.547375 L51.004125,50.547375 Z" id="Path" fill="#DA4A48"></path>
                        <path d="M28.74225,32.01075 L51.882375,32.01075 C52.40025,32.01075 52.819875,31.591125 52.819875,31.07325 L52.819875,20.340375 C52.819875,16.335375 49.8105,13.019625 45.934125,12.536625 C47.11725,11.194875 47.796375,9.450375 47.796375,7.590375 C47.796375,3.463875 44.439,0.1065 40.3125,0.1065 C36.186,0.1065 32.828625,3.463875 32.828625,7.590375 C32.828625,9.450375 33.50775,11.194875 34.690875,12.536625 C30.8145,13.02 27.80475,16.335375 27.80475,20.340375 L27.80475,31.07325 C27.80475,31.591125 28.224375,32.01075 28.74225,32.01075 L28.74225,32.01075 Z M29.67975,20.340375 C29.67975,17.03775 32.366625,14.350875 35.66925,14.350875 L37.318875,14.350875 C37.751625,14.350875 38.128125,14.054625 38.230125,13.63425 C38.332125,13.213875 38.133,12.778125 37.74825,12.580125 C35.87025,11.612625 34.703625,9.700875 34.703625,7.590375 C34.703625,4.497375 37.2195,1.9815 40.3125,1.9815 C43.405125,1.9815 45.921375,4.497375 45.921375,7.590375 C45.921375,9.700875 44.755125,11.613 42.877125,12.580125 C42.492375,12.778125 42.29325,13.213875 42.39525,13.63425 C42.496875,14.055 42.873375,14.350875 43.3065,14.350875 L44.95575,14.350875 C48.258375,14.350875 50.94525,17.03775 50.94525,20.340375 L50.94525,30.13575 L29.67975,30.13575 L29.67975,20.340375 Z M18.129375,52.87125 C19.312125,51.5295 19.99125,49.785 19.99125,47.925 C19.99125,43.7985 16.633875,40.441125 12.507375,40.441125 C8.380875,40.441125 5.0235,43.7985 5.0235,47.925 C5.0235,49.785 5.702625,51.5295 6.885375,52.87125 C3.00975,53.354625 0,56.67 0,60.675 L0,71.407875 C0,71.92575 0.419625,72.345375 0.9375,72.345375 L24.078,72.345375 C24.595875,72.345375 25.0155,71.92575 25.0155,71.407875 L25.0155,60.675 C25.0155,56.67 22.00575,53.354625 18.129375,52.87125 Z M23.1405,70.470375 L1.875,70.470375 L1.875,60.675 C1.875,57.372375 4.561875,54.6855 7.8645,54.6855 L9.514125,54.6855 C9.946875,54.6855 10.323375,54.38925 10.425375,53.968875 C10.527375,53.5485 10.32825,53.11275 9.9435,52.91475 C8.0655,51.947625 6.898875,50.0355 6.898875,47.925 C6.898875,44.832 9.41475,42.316125 12.50775,42.316125 C15.600375,42.316125 18.116625,44.832 18.116625,47.925 C18.116625,50.0355 16.95,51.947625 15.072,52.91475 C14.687625,53.11275 14.488125,53.5485 14.590125,53.968875 C14.692125,54.389625 15.068625,54.6855 15.501375,54.6855 L17.151,54.6855 C20.453625,54.6855 23.1405,57.372375 23.1405,60.675 L23.1405,70.470375 Z M73.738875,52.87125 C74.922,51.5295 75.601125,49.785 75.601125,47.925 C75.601125,43.7985 72.244125,40.441125 68.117625,40.441125 C63.991125,40.441125 60.63375,43.7985 60.63375,47.925 C60.63375,49.785 61.312875,51.5295 62.496,52.87125 C58.61925,53.35425 55.609875,56.669625 55.609875,60.675 L55.609875,71.407875 C55.609875,71.92575 56.0295,72.345375 56.547375,72.345375 L79.6875,72.345375 C80.205375,72.345375 80.625,71.92575 80.625,71.407875 L80.625,60.675 C80.625,56.67 77.615625,53.35425 73.738875,52.87125 L73.738875,52.87125 Z M78.75,70.470375 L57.4845,70.470375 L57.4845,60.675 C57.4845,57.372375 60.171375,54.6855 63.474,54.6855 L65.123625,54.6855 C65.556375,54.6855 65.932875,54.38925 66.034875,53.968875 C66.1365,53.5485 65.93775,53.11275 65.553,52.91475 C63.675,51.947625 62.50875,50.0355 62.50875,47.925 C62.50875,44.832 65.025,42.316125 68.117625,42.316125 C71.21025,42.316125 73.726125,44.832 73.726125,47.925 C73.726125,50.0355 72.559875,51.947625 70.681875,52.91475 C70.297125,53.11275 70.098,53.5485 70.2,53.968875 C70.301625,54.389625 70.678125,54.6855 71.11125,54.6855 L72.760875,54.6855 C76.0635,54.6855 78.750375,57.372375 78.750375,60.675 L78.750375,70.470375 L78.75,70.470375 Z M24.88425,19.041375 C25.14825,19.486875 25.001625,20.06175 24.556125,20.32575 C17.964,24.23475 13.07475,30.398625 10.789125,37.68225 C10.6635,38.08275 10.29375,38.33925 9.89475,38.33925 C9.80175,38.33925 9.70725,38.325375 9.613875,38.296125 C9.12,38.14125 8.845125,37.615125 9,37.120875 C11.424,29.3955 16.609125,22.858125 23.599875,18.71325 C24.045375,18.448875 24.62025,18.595875 24.88425,19.041375 L24.88425,19.041375 Z M55.74075,19.041375 C56.004375,18.595875 56.579625,18.448875 57.0255,18.712875 C64.01625,22.85775 69.201,29.395125 71.625375,37.1205 C71.78025,37.614375 71.505375,38.140875 71.011125,38.29575 C70.91775,38.325 70.82325,38.338875 70.73025,38.338875 C70.331625,38.338875 69.961875,38.082375 69.835875,37.681875 C67.55025,30.39825 62.661,24.234375 56.068875,20.325375 C55.623375,20.06175 55.47675,19.4865 55.74075,19.041375 Z M54.259875,75.64125 C54.4725,76.113375 54.2625,76.668375 53.79075,76.881375 C49.54275,78.79725 45.00825,79.768875 40.3125,79.768875 C35.61675,79.768875 31.08225,78.797625 26.834625,76.881375 C26.3625,76.66875 26.1525,76.113375 26.3655,75.64125 C26.578125,75.169125 27.13425,74.9595 27.605625,75.172125 C31.609125,76.97775 35.8845,77.8935 40.3125,77.8935 C44.740875,77.8935 49.015875,76.97775 53.01975,75.172125 C53.491875,74.9595 54.046875,75.16875 54.259875,75.64125 L54.259875,75.64125 Z" id="Shape" fill="#46362E"></path>
                    </g>
                </g>
            </g>
        </g>
    </g>
</svg>