<?xml version="1.0" encoding="UTF-8"?>
<svg width="1036px" height="533px" viewBox="0 0 1036 533" version="1.1" xmlns="http://www.w3.org/2000/svg" xmlns:xlink="http://www.w3.org/1999/xlink">
    <!-- Generator: Sketch 57.1 (83088) - https://sketch.com -->
    <title>Elements</title>
    <desc>Created with Sketch.</desc>
    <g id="Version01" stroke="none" stroke-width="1" fill="none" fill-rule="evenodd">
        <g id="CrustyCrust_Home" transform="translate(-197.000000, -135.000000)" fill="#FFFFFF">
            <g id="Elements" transform="translate(197.000000, 135.000000)">
                <path d="M948.624177,73.0050064 C947.944177,72.1930064 947.054177,71.5230064 946.234177,71.0900064 C945.824177,70.8740064 945.574177,71.5270064 945.964177,71.7480064 C946.804177,72.2280064 947.534177,72.8850064 948.094177,73.6830064 C947.254177,74.7280064 946.324177,75.7190064 945.374177,76.6780064 C945.014177,76.0740064 944.494177,75.5450064 943.974177,75.1620064 C943.674177,74.9360064 943.314177,75.3920064 943.614177,75.6210064 C944.134177,76.0190064 944.574177,76.4980064 944.884177,77.0810064 C944.894177,77.1000064 944.904177,77.1210064 944.914177,77.1410064 C944.304177,77.7460064 943.674177,78.3410064 943.054177,78.9290064 C942.694177,79.2770064 942.314177,79.6200064 941.944177,79.9600064 C941.174177,78.9240064 940.224177,77.9950064 939.384177,77.0450064 C939.124177,76.7430064 938.624177,77.1140064 938.884177,77.4250064 C939.714177,78.4030064 940.494177,79.5040064 941.424177,80.4190064 C939.934177,81.7270064 938.354177,82.9440064 936.624177,83.9170064 C936.504177,83.9870064 936.374177,84.0550064 936.254177,84.1220064 C935.684177,83.6700064 934.954177,83.3180064 934.424177,82.8830064 C933.524177,82.1570064 932.774177,81.2950064 932.134177,80.3390064 C931.934177,80.0490064 931.524177,80.3630064 931.694177,80.6530064 C932.294177,81.6650064 933.004177,82.5790064 933.864177,83.3820064 C934.274177,83.7660064 934.794177,84.2420064 935.354177,84.5790064 C933.484177,85.4800064 931.474177,86.0870064 929.384177,86.2460064 C928.054177,86.3470064 926.514177,86.3990064 925.464177,85.4360064 C924.624177,84.6520064 924.004177,83.4180064 923.554177,82.3760064 C922.214177,79.2950064 921.854177,75.9110064 921.274177,72.6360064 C920.974177,70.9500064 920.624177,69.2330064 919.974177,67.6560064 C922.184177,65.5240064 924.574177,63.5640064 927.114177,61.8350064 C929.724177,60.0530064 932.584177,58.7400064 935.324177,57.2040064 C935.844177,57.3350064 936.354177,57.4630064 936.864177,57.5970064 C932.724177,58.8890064 928.974177,61.3790064 926.604177,65.0820064 C926.494177,65.2450064 926.744177,65.3900064 926.874177,65.2640064 C930.074177,62.0160064 933.764177,59.3530064 938.114177,57.9540064 C938.864177,58.1850064 939.604177,58.4550064 940.324177,58.8100064 C942.434177,59.8510064 944.434177,61.2100064 946.354177,62.5640064 C948.044177,63.7570064 949.984177,65.2720064 950.424177,67.4190064 C950.844177,69.4620064 949.814177,71.3980064 948.624177,73.0050064 Z M919.484177,66.5980064 C921.244177,64.9570064 923.074177,63.4100064 925.064177,62.0260064 C926.004177,61.3690064 926.974177,60.7610064 927.954177,60.1880064 C927.534177,60.4630064 927.114177,60.7430064 926.704177,61.0260064 C924.124177,62.7910064 921.824177,64.8620064 919.784177,67.2050064 C919.684177,67.0000064 919.594177,66.7970064 919.484177,66.5980064 Z M912.954177,68.6470064 C911.074177,70.2590064 908.844177,71.7440064 906.264177,71.6230064 C904.174177,71.5260064 902.334177,70.3700064 900.974177,68.8420064 C897.864177,65.3570064 896.774177,60.5200064 896.684177,55.9620064 C896.564177,50.4860064 898.004177,45.2400064 900.614177,40.6370064 C904.044177,36.7730064 907.654177,33.0670064 912.364177,30.7490064 C917.054177,28.4350064 922.324177,27.7290064 927.474177,28.6350064 C932.544177,29.5270064 937.704177,32.0210064 941.194177,35.8570064 C942.954177,37.7910064 944.464177,40.2670064 944.394177,42.9710064 C944.314177,45.6190064 942.794177,47.9440064 940.874177,49.6720064 C938.724177,51.6130064 936.084177,52.8480064 933.474177,54.0330064 C930.784177,55.2510064 928.134177,56.4890064 925.624177,58.0460064 C923.244177,59.5210064 920.974177,61.1720064 918.874177,63.0240064 C916.834177,64.8260064 915.024177,66.8740064 912.954177,68.6470064 Z M949.814177,61.3030064 C947.434177,59.1710064 944.624177,57.3610064 941.764177,55.9350064 C940.914177,55.5100064 939.974177,55.0740064 938.984177,54.7340064 C940.034177,54.1490064 941.044177,53.5050064 941.984177,52.7640064 C946.754177,49.0270064 948.974177,43.1200064 946.154177,37.4670064 C943.504177,32.1390064 937.874177,28.2500064 932.324177,26.4230064 C925.824177,24.2820064 918.694177,24.5450064 912.414177,27.2930064 C909.824177,28.4280064 907.284177,30.0140064 905.134177,31.9890064 C898.774177,37.3270064 894.754177,45.6240064 894.104177,53.7740064 C893.674177,59.0350064 894.534177,64.5670064 897.454177,69.0440064 C900.414177,73.5790064 905.674177,76.0260064 910.854177,73.6470064 C913.484177,72.4360064 915.614177,70.3770064 917.644177,68.3630064 C917.864177,68.1470064 918.084177,67.9340064 918.304177,67.7210064 C918.794177,69.8460064 919.204177,71.9790064 919.474177,74.1600064 C919.824177,77.0770064 920.114177,80.0650064 921.094177,82.8570064 C922.004177,85.4840064 923.484177,88.1580064 926.384177,88.8400064 C929.324177,89.5340064 932.644177,88.7910064 935.394177,87.6830064 C938.404177,86.4680064 941.104177,84.5620064 943.534177,82.4260064 C945.844177,80.3940064 948.104177,78.1920064 950.104177,75.8480064 C951.864177,73.7900064 953.434177,71.2820064 953.474177,68.4950064 C953.514177,65.5820064 951.914177,63.1820064 949.814177,61.3030064 L949.814177,61.3030064 Z" id="Fill-14"></path>
                <path d="M898.124515,503.389432 C896.029515,502.963432 894.480515,501.180432 893.204515,499.535432 C891.308515,497.092432 889.582515,494.515432 888.028515,491.841432 C886.577515,489.344432 885.140515,486.763432 884.055515,484.081432 C883.366515,482.377432 882.909515,480.470432 883.391515,478.706432 C884.360515,480.749432 885.374515,482.770432 886.423515,484.773432 C887.587515,486.997432 888.824515,489.184432 890.097515,491.348432 C890.748515,492.457432 891.410515,493.559432 892.086515,494.653432 C892.706515,495.658432 893.295515,496.703432 894.218515,497.456432 C894.537515,497.717432 894.975515,497.421432 894.872515,497.029432 C894.541515,495.772432 893.761515,494.688432 893.089515,493.587432 C892.420515,492.489432 891.761515,491.384432 891.114515,490.272432 C889.852515,488.103432 888.638515,485.906432 887.446515,483.698432 C886.600515,482.132432 885.780515,480.552432 884.977515,478.964432 C886.871515,479.765432 888.363515,481.263432 889.760515,482.793432 C891.529515,484.729432 893.060515,486.882432 894.305515,489.191432 C896.663515,493.562432 898.028515,498.424432 898.124515,503.389432 Z M878.022515,491.991432 C879.243515,491.559432 880.283515,490.271432 879.789515,488.942432 C879.706515,488.719432 879.449515,488.696432 879.311515,488.880432 C878.837515,489.507432 878.336515,490.232432 877.615515,490.589432 C877.808515,489.492432 877.496515,488.382432 877.123515,487.306432 C878.031515,487.347432 878.945515,487.507432 879.751515,487.869432 C881.044515,488.451432 882.092515,489.450432 882.985515,490.531432 C884.708515,492.617432 885.856515,495.121432 886.609515,497.705432 C887.401515,500.422432 887.750515,503.247432 887.840515,506.070432 C887.926515,508.803432 887.936515,511.660432 887.104515,514.289432 C886.345515,516.683432 884.847515,519.468432 882.428515,520.521432 C880.062515,521.551432 877.425515,520.294432 875.794515,518.527432 C873.993515,516.575432 872.923515,513.920432 872.118515,511.422432 C871.237515,508.690432 870.701515,505.831432 870.574515,502.962432 C870.439515,499.921432 870.643515,496.765432 871.445515,493.818432 C871.824515,492.423432 872.358515,491.035432 873.180515,489.838432 C873.747515,489.013432 874.455515,488.364432 875.223515,487.764432 C875.507515,488.900432 875.896515,490.037432 876.687515,490.821432 C876.022515,490.846432 875.363515,490.597432 874.800515,490.220432 C874.560515,490.059432 874.322515,490.367432 874.433515,490.590432 C875.082515,491.889432 876.655515,492.474432 878.022515,491.991432 Z M869.990515,510.131432 C869.601515,512.292432 869.204515,514.314432 868.048515,516.234432 C866.854515,518.219432 865.305515,520.046432 863.591515,521.599432 C860.430515,524.465432 855.587515,526.483432 851.548515,524.112432 C847.257515,521.594432 847.848515,515.844432 849.251515,511.822432 C850.699515,507.671432 853.159515,503.900432 856.308515,500.839432 C858.187515,499.012432 860.332515,497.398432 862.650515,496.168432 C863.434515,495.751432 864.357515,495.397432 865.290515,495.220432 C865.203515,495.474432 865.114515,495.728432 865.032515,495.983432 C864.712515,496.976432 864.236515,498.235432 864.132515,499.403432 C863.460515,498.822432 862.826515,498.163432 862.172515,497.566432 C861.975515,497.387432 861.655515,497.608432 861.794515,497.853432 C862.472515,499.055432 863.117515,500.670432 864.483515,501.256432 C865.552515,501.715432 866.933515,501.239432 867.000515,499.959432 C867.018515,499.613432 866.507515,499.378432 866.251515,499.605432 C866.010515,499.818432 865.751515,499.935432 865.488515,499.968432 C865.993515,499.127432 866.304515,498.070432 866.650515,497.252432 C866.938515,496.570432 867.211515,495.881432 867.482515,495.192432 C868.177515,495.335432 868.812515,495.651432 869.325515,496.196432 C869.049515,497.781432 868.925515,499.396432 868.895515,500.986432 C868.836515,504.060432 869.208515,507.156432 869.990515,510.131432 Z M868.350515,493.023432 C869.509515,490.225432 870.738515,487.465432 872.118515,484.768432 C872.701515,483.628432 873.308515,482.501432 873.930515,481.384432 C873.957515,481.959432 874.085515,482.542432 874.186515,483.091432 C874.367515,484.071432 874.579515,485.054432 874.817515,486.022432 C874.871515,486.242432 874.923515,486.470432 874.975515,486.702432 C872.793515,487.596432 871.317515,489.976432 870.471515,492.072432 C870.054515,493.105432 869.739515,494.178432 869.504515,495.272432 C869.057515,494.800432 868.495515,494.438432 867.878515,494.188432 C868.033515,493.799432 868.189515,493.410432 868.350515,493.023432 Z M867.016515,482.448432 C865.432515,483.884432 863.681515,485.159432 861.973515,486.442432 C858.150515,489.315432 854.107515,492.040432 849.512515,493.509432 C847.760515,494.069432 845.271515,494.877432 843.458515,494.092432 C841.065515,493.054432 843.134515,490.461432 844.295515,489.349432 C847.596515,486.183432 851.415515,483.567432 855.515515,481.548432 C857.793515,480.426432 860.184515,479.459432 862.637515,478.792432 C863.772515,478.483432 864.918515,478.218432 866.097515,478.155432 C867.082515,478.103432 868.021515,478.242432 868.970515,478.415432 C867.205515,479.321432 865.434515,480.217432 863.654515,481.094432 C861.348515,482.230432 859.050515,483.382432 856.734515,484.497432 C855.605515,485.041432 854.472515,485.578432 853.338515,486.111432 C852.149515,486.669432 851.167515,487.372432 850.093515,488.114432 C849.871515,488.267432 849.996515,488.641432 850.281515,488.566432 C851.409515,488.268432 852.502515,488.026432 853.572515,487.536432 C854.767515,486.988432 855.947515,486.405432 857.129515,485.831432 C859.437515,484.709432 861.740515,483.576432 864.008515,482.375432 C865.770515,481.443432 867.520515,480.492432 869.266515,479.531432 C868.720515,480.610432 868.011515,481.546432 867.016515,482.448432 Z M895.119515,487.780432 C893.707515,485.300432 891.995515,482.992432 889.993515,480.956432 C888.529515,479.467432 886.524515,477.328432 884.259515,477.532432 C884.173515,477.359432 884.087515,477.187432 884.001515,477.014432 C882.953515,474.896432 882.033515,472.589432 880.701515,470.626432 C880.963515,470.254432 881.226515,469.882432 881.492515,469.513432 C883.451515,466.793432 885.499515,464.079432 887.648515,461.507432 C887.893515,461.213432 887.501515,460.821432 887.219515,461.089432 C885.019515,463.183432 882.942515,465.296432 880.997515,467.634432 C879.046515,469.979432 877.237515,472.440432 875.532515,474.970432 C875.527515,474.978432 875.522515,474.986432 875.516515,474.994432 C873.926515,475.721432 869.960515,477.834432 869.931515,477.922432 C869.852515,477.963432 869.772515,478.003432 869.693515,478.044432 C867.848515,476.934432 865.306515,477.148432 863.281515,477.529432 C860.765515,478.004432 858.283515,478.937432 855.945515,479.962432 C851.190515,482.047432 846.662515,485.020432 843.004515,488.721432 C841.683515,490.058432 840.307515,492.086432 841.390515,493.980432 C842.292515,495.559432 844.340515,495.783432 845.978515,495.602432 C851.347515,495.010432 856.338515,492.107432 860.675515,489.066432 C863.031515,487.414432 865.393515,485.681432 867.565515,483.790432 C869.102515,482.453432 870.839515,480.657432 871.069515,478.541432 C872.163515,477.941432 873.294515,477.350432 874.391515,476.710432 C871.466515,481.286432 868.970515,486.129432 866.863515,491.134432 C866.497515,492.005432 866.143515,492.886432 865.808515,493.775432 C865.717515,493.774432 865.626515,493.774432 865.535515,493.777432 C862.827515,493.867432 860.249515,495.576432 858.130515,497.130432 C853.911515,500.222432 850.575515,504.453432 848.468515,509.234432 C846.474515,513.758432 845.107515,520.117432 848.893515,524.139432 C852.498515,527.968432 858.563515,527.334432 862.607515,524.638432 C865.158515,522.938432 867.316515,520.593432 869.045515,518.074432 C869.871515,516.870432 870.741515,515.399432 871.187515,513.877432 C871.919515,515.793432 872.853515,517.644432 874.111515,519.229432 C875.834515,521.403432 878.502515,522.969432 881.348515,522.634432 C884.356515,522.279432 886.495515,519.747432 887.768515,517.188432 C889.243515,514.223432 889.615515,511.096432 889.647515,507.819432 C889.678515,504.606432 889.429515,501.354432 888.661515,498.227432 C887.818515,494.797432 886.272515,491.453432 883.873515,488.829432 C882.146515,486.939432 879.214515,485.048432 876.637515,485.912432 C876.625515,485.874432 876.612515,485.835432 876.600515,485.798432 C876.313515,484.895432 875.998515,484.001432 875.707515,483.099432 C875.409515,482.173432 875.147515,481.090432 874.527515,480.324432 C876.304515,477.209432 878.226515,474.182432 880.275515,471.236432 C880.850515,473.463432 881.941515,475.623432 882.910515,477.690432 C881.721515,479.354432 882.011515,481.602432 882.572515,483.535432 C883.492515,486.706432 885.164515,489.762432 886.807515,492.608432 C888.475515,495.497432 890.321515,498.320432 892.399515,500.932432 C893.992515,502.935432 896.068515,504.889432 898.780515,504.929432 C899.135515,504.934432 899.583515,504.698432 899.575621,504.280432 C899.458515,498.516432 897.976515,492.800432 895.119515,487.780432 L895.119515,487.780432 Z" id="Fill-776"></path>
                <path d="M1015.50823,243.480121 C1023.33823,247.203121 1028.82823,254.423121 1032.05823,262.308121 C1035.62823,271.052121 1037.04823,280.916121 1034.76823,290.174121 C1030.69823,306.629121 1015.59823,318.412121 999.01823,320.110121 C990.10823,321.023121 980.65823,319.446121 972.77823,315.100121 C968.60823,312.804121 965.12823,309.538121 962.09823,305.903121 C959.18823,302.422121 956.66823,298.547121 955.01823,294.308121 C951.95823,286.441121 952.04823,276.822121 957.58823,270.032121 C962.62823,263.861121 970.46823,260.532121 977.69823,257.380121 C982.79823,253.392121 986.91823,248.224121 992.37823,244.661121 C999.37823,240.090121 1008.02823,239.919121 1015.50823,243.480121 Z M995.79823,245.022121 C993.48823,246.164121 991.49823,247.662121 989.58823,249.360121 C988.49823,250.323121 987.40823,251.286121 986.32823,252.249121 C985.88823,252.634121 983.37823,254.356121 983.37823,254.862121 C980.83823,257.113121 978.44823,259.385121 975.36823,260.889121 C971.36823,262.845121 967.11823,264.231121 963.53823,266.973121 C960.43823,269.352121 957.87823,272.432121 956.49823,276.120121 C953.48823,284.131121 955.84823,292.929121 960.30823,299.893121 C962.67823,303.588121 965.63823,307.087121 969.00823,309.918121 C972.40823,312.786121 976.44823,314.753121 980.65823,316.139121 C988.85823,318.838121 997.80823,319.086121 1006.12823,316.727121 C1021.77823,312.287121 1033.31823,297.898121 1033.48823,281.531121 C1033.65823,265.584121 1024.97823,245.332121 1007.15823,243.167121 C1003.25823,242.691121 999.33823,243.272121 995.79823,245.022121 Z M986.99823,269.067121 C990.45823,273.526121 988.47823,279.259121 990.52823,284.146121 C992.25823,288.280121 996.87823,290.092121 999.50823,293.538121 C1002.23823,297.127121 1002.81823,302.108121 1000.88823,306.199121 C998.87823,310.459121 994.72823,313.025121 990.08823,313.352121 C984.99823,313.711121 979.31823,312.738121 975.23823,309.531121 C967.79823,303.697121 963.70823,293.849121 963.688157,284.531121 C963.67823,279.773121 964.68823,274.511121 967.74823,270.715121 C969.90823,268.034121 972.86823,266.204121 976.17823,265.782121 C979.93823,264.260121 984.42823,265.757121 986.99823,269.067121 Z M976.19823,267.106121 C972.49823,268.188121 969.44823,271.140121 967.76823,274.585121 C965.64823,278.941121 965.33823,284.124121 966.03823,288.859121 C966.64823,293.017121 968.07823,297.021121 970.24823,300.623121 C972.39823,304.207121 975.40823,307.891121 979.26823,309.705121 C981.36823,310.695121 983.67823,311.049121 985.97823,311.247121 C988.40823,311.457121 990.97823,311.505121 993.28823,310.599121 C996.93823,309.172121 999.58823,305.646121 999.78823,301.721121 C1000.01201,297.44977 997.660838,294.395844 994.586094,291.800366 L994.040121,291.345907 C991.26423,289.032846 988.77023,286.685521 987.95823,282.985121 C987.09823,279.023121 988.04823,274.549121 985.89823,270.920121 C983.85823,267.466121 979.89823,266.459121 976.19823,267.106121 Z M990.80823,294.904121 C991.00823,294.854121 991.21823,294.895121 991.41823,295.088121 C992.34823,296.018121 992.60823,297.707121 992.76823,298.972121 C992.97823,300.537121 992.90823,302.150121 992.57823,303.692121 C992.13823,305.692121 990.97823,308.472121 988.41823,307.827121 C982.75823,306.400121 987.45823,296.683121 990.28823,294.639121 C990.49823,294.492121 990.78823,294.678121 990.80823,294.904121 Z M990.32823,296.219121 C989.74823,297.516121 989.01823,298.750121 988.48823,300.073121 C987.87823,301.612121 986.63823,304.484121 988.21823,305.793121 C990.23823,307.465121 991.04823,303.220121 991.18823,302.009121 C991.37823,300.313121 991.33823,297.698121 990.32823,296.219121 Z M994.27823,295.973121 C994.48823,298.463121 995.15823,301.020121 995.15823,303.512121 C995.15823,303.762121 994.83823,303.768121 994.75823,303.565121 C993.83823,301.270121 993.78823,298.449121 993.61823,296.006121 C993.58823,295.582121 994.23823,295.554121 994.27823,295.973121 Z M1007.45823,251.834121 C1010.32823,252.693121 1013.22823,253.887121 1015.86823,255.298121 C1018.45823,256.685121 1020.35823,258.778121 1021.91823,261.244121 C1027.31823,269.771121 1030.69823,281.144121 1027.60823,291.090121 C1026.20823,295.588121 1023.07823,299.674121 1018.41823,301.040121 C1014.40823,302.214121 1009.95823,300.523121 1007.44823,297.242121 C1006.17823,295.586121 1005.48823,293.677121 1005.39823,291.595121 C1005.27823,288.927121 1006.13823,286.336121 1006.13823,283.676121 C1006.13823,278.048121 1000.89823,274.817121 996.48823,272.515121 C994.50823,271.485121 992.44823,270.416121 991.04823,268.621121 C989.72823,266.930121 989.18823,264.779121 989.39823,262.659121 C989.77823,258.844121 992.66823,254.914121 995.86823,252.938121 C999.49823,250.698121 1003.48823,250.642121 1007.45823,251.834121 Z M991.49823,265.614121 C992.25823,267.903121 994.31823,269.225121 996.34823,270.296121 C998.58823,271.479121 1000.88823,272.556121 1002.92823,274.083121 C1006.20823,276.543121 1008.42823,280.016121 1008.26823,284.219121 C1008.11823,288.509121 1006.30823,292.849121 1009.57823,296.460121 C1012.29823,299.463121 1016.54823,300.134121 1020.03823,298.075121 C1023.96823,295.760121 1025.77823,291.127121 1026.30823,286.797121 C1026.87823,282.080121 1026.08823,277.445121 1024.62823,272.961121 C1023.25823,268.766121 1021.31823,264.325121 1018.70823,260.743121 C1017.29823,258.806121 1015.44823,257.480121 1013.32823,256.405121 C1011.15823,255.305121 1008.92823,254.293121 1006.57823,253.654121 C999.54823,251.747121 988.68823,257.101121 991.49823,265.614121 Z M989.36823,292.187121 C987.94823,294.264121 986.49823,296.402121 984.46823,297.929121 C984.28823,298.060121 984.03823,297.895121 984.15823,297.685121 C985.34823,295.466121 987.15823,293.649121 988.86823,291.823121 C989.09823,291.569121 989.57823,291.888121 989.36823,292.187121 Z M985.28823,288.298121 C985.51823,288.338121 985.61823,288.643121 985.50823,288.835121 C985.57823,288.962121 985.60823,289.112121 985.57823,289.274121 C985.31823,290.444121 984.20823,291.360121 983.39823,292.202121 C982.47823,293.154121 981.48823,294.029121 980.36823,294.734121 C978.76823,295.735121 975.60823,297.161121 974.26823,295.015121 C972.99823,292.976121 975.05823,290.535121 976.74823,289.555121 C977.83823,288.918121 979.05823,288.684121 980.30823,288.534121 C981.93823,288.339121 983.64823,288.021121 985.28823,288.298121 Z M983.28823,289.600121 C981.97823,289.859121 980.61823,289.950121 979.31823,290.284121 C978.36823,290.529121 977.48823,290.965121 976.78823,291.672121 C976.24823,292.225121 975.29823,293.360121 975.94823,294.053121 C977.01823,295.175121 979.97823,292.861121 980.82823,292.130121 C981.55823,291.507121 982.22823,290.818121 982.85823,290.104121 C983.00823,289.939121 983.14823,289.768121 983.28823,289.600121 Z M1013.6947,292.212947 L1013.76823,292.217121 C1015.11823,292.447121 1016.88823,292.798121 1017.86823,293.813121 C1018.00823,293.952121 1017.85823,294.155121 1017.68823,294.119121 C1017.05823,293.989121 1016.48823,293.671121 1015.89823,293.435121 C1015.16823,293.142121 1014.40823,292.933121 1013.63823,292.776121 C1013.32966,292.712693 1013.38109,292.302489 1013.62878,292.224996 L1013.6947,292.212947 Z M1017.70823,286.249121 C1019.07823,286.735121 1021.28823,287.710121 1020.67823,289.504121 C1020.03823,291.393121 1017.79823,291.837121 1016.10823,291.186121 C1014.26823,290.473121 1012.59823,288.770121 1011.85823,286.943121 C1011.65823,286.808121 1011.58823,286.490121 1011.76823,286.309121 C1013.05823,285.019121 1016.17823,285.706121 1017.70823,286.249121 Z M1013.06823,287.189121 C1013.81823,287.952121 1014.65823,288.688121 1015.50823,289.278121 C1016.17823,289.734121 1016.93823,290.111121 1017.75823,290.092121 C1018.56823,290.072121 1020.04823,289.236121 1019.10823,288.445121 C1018.10823,287.603121 1016.57823,287.229121 1015.31823,287.106121 C1014.61823,287.038121 1013.81823,287.192121 1013.06823,287.189121 Z M997.37823,277.629121 C996.91823,277.384121 997.26823,276.671121 997.72823,276.905121 C1001.86823,278.981121 1003.57823,283.811121 1002.86823,288.215121 C1002.83823,288.379121 1002.55823,288.375121 1002.53823,288.210121 C1002.03823,284.171121 1001.30823,279.743121 997.37823,277.629121 Z M992.67823,280.244121 C993.45823,283.172121 995.05823,285.400121 996.77823,287.826121 C996.86823,287.963121 996.66823,288.158121 996.53823,288.055121 C994.18823,286.224121 992.85823,283.218121 992.20823,280.379121 C992.13823,280.071121 992.59823,279.936121 992.67823,280.244121 Z M984.02823,284.094121 C984.41823,284.089121 984.43823,284.666121 984.05823,284.695121 C982.71823,284.796121 981.40823,285.012121 980.10823,285.342121 C979.19823,285.575121 978.29823,285.940121 977.34823,286.002121 C977.06823,286.020121 977.02823,285.670121 977.21823,285.531121 C978.98823,284.197121 981.90823,284.123121 984.02823,284.094121 Z M979.04823,275.185121 C980.81823,275.663121 983.73823,277.112121 984.07823,279.180121 C984.75823,279.292121 985.25823,280.237121 984.56823,280.814121 C983.65823,281.583121 982.17823,281.415121 981.04823,281.433121 C979.66823,281.455121 978.28823,281.356121 976.94823,280.988121 C975.11823,280.488121 972.20823,278.873121 973.28823,276.531121 C974.23823,274.463121 977.25823,274.705121 979.04823,275.185121 Z M1019.17101,278.672256 L1019.54823,278.674121 C1019.72823,278.680121 1019.82823,278.952121 1019.63823,279.032121 C1017.77823,279.829121 1015.56823,280.029121 1013.60823,280.579121 C1013.28823,280.670121 1013.14823,280.182121 1013.46823,280.080121 C1015.11323,279.553371 1017.00323,278.820668 1018.78987,278.690608 L1019.17101,278.672256 Z M975.54823,276.896121 C973.54823,277.936121 977.52823,279.264121 978.33823,279.402121 C979.14823,279.540121 979.97823,279.581121 980.79823,279.584121 C981.37823,279.585121 982.76823,279.774121 983.30823,279.438121 C982.22823,278.838121 981.36823,277.846121 980.18823,277.343121 C978.90823,276.798121 976.86823,276.208121 975.54823,276.896121 Z M1019.44823,271.276121 C1020.91823,273.176121 1018.59823,274.917121 1017.09823,275.700121 C1016.07823,276.230121 1014.98823,276.638121 1013.85823,276.824121 C1012.81823,276.993121 1011.45823,277.242121 1010.42823,277.062121 C1010.10823,277.005121 1009.92823,276.594121 1010.08823,276.317121 C1010.08823,276.291121 1010.09823,276.264121 1010.10823,276.235121 C1010.91823,274.123121 1012.45823,272.724121 1014.35823,271.553121 C1015.82823,270.647121 1018.09823,269.536121 1019.44823,271.276121 Z M1015.69823,272.384121 C1015.11823,272.703121 1014.55823,273.064121 1014.01823,273.447121 C1013.11823,274.093121 1012.22823,274.806121 1011.46823,275.624121 C1012.18823,275.501121 1012.98823,275.557121 1013.69823,275.429121 C1015.06823,275.182121 1017.19823,274.474121 1018.05823,273.295121 C1018.49823,272.691121 1018.30823,271.921121 1017.53823,271.780121 C1016.96823,271.675121 1016.16823,272.124121 1015.69823,272.384121 Z M977.743286,270.865625 L977.79823,270.866121 C979.87823,271.135121 982.00823,272.422121 983.87823,273.333121 C984.28823,273.536121 983.95823,274.102121 983.55823,273.952121 C981.59823,273.232121 979.21823,272.580121 977.56823,271.255121 C977.404594,271.120939 977.528809,270.928518 977.688929,270.877223 L977.743286,270.865625 Z M1013.97823,264.719121 C1012.63823,267.310121 1010.30823,269.505121 1008.36823,271.654121 C1008.21823,271.815121 1007.93823,271.592121 1008.06823,271.418121 C1009.77823,269.079121 1011.45823,266.357121 1013.71823,264.506121 C1013.86823,264.381121 1014.06823,264.545121 1013.97823,264.719121 Z M1008.14823,259.962121 C1009.63823,261.278121 1008.29823,264.161121 1007.53823,265.544121 C1006.97823,266.549121 1006.26823,267.470121 1005.46823,268.287121 C1004.90823,268.857121 1004.32823,269.626121 1003.46823,269.452121 C1003.34823,269.428121 1003.24823,269.291121 1003.24823,269.170121 C1003.25823,268.993121 1003.27823,268.862121 1003.31823,268.748121 C1003.29823,268.712121 1003.26823,268.673121 1003.25823,268.629121 C1002.84823,267.471121 1002.90823,266.001121 1002.94823,264.781121 C1002.98823,263.613121 1003.23823,262.418121 1003.81823,261.396121 C1004.63823,259.981121 1006.63823,258.625121 1008.14823,259.962121 Z M1005.99823,261.205121 C1005.59823,261.447121 1005.26823,261.934121 1005.05823,262.336121 C1004.70823,263.022121 1004.56823,263.793121 1004.49823,264.554121 C1004.39823,265.524121 1004.51823,266.602121 1004.37823,267.599121 C1004.78823,267.195121 1005.18823,266.781121 1005.55823,266.321121 C1006.50823,265.111121 1007.24823,263.690121 1007.34823,262.131121 C1007.40823,261.313121 1006.85823,260.684121 1005.99823,261.205121 Z M998.50823,258.330121 C998.54823,259.354121 998.27823,260.360121 998.20823,261.379121 C998.09823,262.804121 998.16823,264.189121 998.44823,265.590121 C998.51823,265.922121 998.03823,266.075121 997.93823,265.741121 C997.27823,263.519121 996.71823,260.316121 998.00823,258.206121 C998.13823,257.983121 998.48823,258.063121 998.50823,258.330121 Z" id="Combined-Shape"></path>
                <path d="M74.0725294,291.984576 C71.9915294,294.726576 69.5815294,297.202576 67.5525294,299.983576 C65.4485294,302.867576 63.5275294,305.878576 61.7155294,308.953576 C59.8255294,312.162576 58.0655294,315.447576 56.4445294,318.800576 C55.0715294,321.638576 53.8505294,324.561576 52.3305294,327.325576 C50.5925294,330.482576 48.4125294,333.485576 45.1355294,335.161576 C43.7105294,335.890576 42.1435294,336.352576 40.5475294,336.523576 C43.9905294,334.072576 46.8385294,330.675576 48.1445294,326.621576 C48.1995294,326.447576 47.9355294,326.323576 47.8465294,326.489576 C45.7495294,330.423576 43.1555294,333.934576 39.5545294,336.590576 C38.5955294,336.619576 37.6345294,336.544576 36.6935294,336.354576 C39.3045294,334.122576 41.4975294,331.415576 43.2955294,328.490576 C45.2525294,325.304576 46.8915294,321.865576 47.5025294,318.152576 C47.5355294,317.951576 47.2805294,317.875576 47.2005294,318.063576 C45.7165294,321.518576 44.2845294,325.004576 42.2565294,328.187576 C40.8895294,330.334576 39.3295294,332.324576 37.6655294,334.232576 C39.1815294,332.273576 40.4085294,330.063576 41.3795294,327.800576 C42.7815294,324.536576 43.8685294,321.149576 44.8035294,317.724576 C45.3155294,315.850576 45.8245294,313.975576 46.3405294,312.102576 C46.5715294,311.260576 46.8035294,310.419576 47.0525294,309.583576 C47.3975294,308.427576 47.4605294,307.262576 47.6105294,306.073576 C47.6785294,305.540576 47.0525294,305.197576 46.6655294,305.603576 C45.6505294,306.669576 44.8195294,307.668576 44.2305294,309.032576 C43.5725294,310.556576 43.0005294,312.120576 42.5355294,313.715576 C41.7045294,316.563576 41.0685294,319.465576 40.2705294,322.322576 C38.8195294,327.523576 36.3385294,333.090576 31.6985294,336.196576 C27.7095294,338.866576 21.6475294,339.369576 18.0895294,335.642576 C13.8365294,331.185576 14.8155294,324.435576 15.6695294,318.931576 C16.2385294,315.264576 16.7625294,311.597576 17.1415294,307.905576 C17.3235294,306.127576 17.5515294,304.354576 17.7645294,302.580576 C17.9995294,300.629576 18.0655294,298.657576 18.3075294,296.713576 C18.3735294,296.177576 17.5865294,295.965576 17.4705294,296.518576 C17.0905294,298.323576 16.5395294,300.092576 16.1525294,301.901576 C15.7505294,303.780576 15.3615294,305.662576 14.9195294,307.532576 C14.0545294,311.189576 13.3555294,314.874576 12.6955294,318.572576 C12.0055294,322.440576 11.3515294,326.789576 12.0315294,330.780576 C11.9815294,330.759576 11.9325294,330.737576 11.8835294,330.716576 C11.3635294,328.073576 10.9605294,325.399576 10.9565294,322.700576 C10.9535294,319.766576 11.5625294,317.007576 11.9405294,314.121576 C11.9765294,313.847576 11.5935294,313.634576 11.4485294,313.926576 C10.1055294,316.647576 9.76852936,320.014576 9.79952936,323.011576 C9.82452936,325.489576 10.1625294,327.953576 10.9615294,330.289576 C10.4285294,330.020576 9.91552936,329.713576 9.44252936,329.333576 C8.81452936,328.829576 8.23352936,328.259576 7.70452936,327.645576 C7.24052936,326.573576 6.94752936,325.436576 6.82652936,324.244576 C6.63652936,322.381576 7.04252936,320.678576 7.45752936,318.882576 C7.51652936,318.625576 7.17152936,318.483576 7.03152936,318.706576 C5.76452936,320.729576 5.63352936,323.245576 6.22452936,325.583576 C6.21752936,325.571576 6.20952936,325.559576 6.20252936,325.547576 C4.22152936,322.191576 4.02852936,318.188576 4.38452936,314.397576 C4.81352936,309.830576 6.12152936,305.383576 6.40552936,300.804576 C6.68152936,296.369576 6.46752936,291.916576 5.74752936,287.531576 C5.04452936,283.242576 3.65452936,279.098576 3.27452936,274.750576 C2.97252936,271.286576 3.29652936,267.797576 4.19652936,264.439576 C6.00052936,257.708576 10.3775294,251.572576 16.7605294,248.534576 C20.2855294,246.856576 24.2345294,246.216576 28.1105294,246.661576 C28.6295294,246.720576 29.1375294,246.804576 29.6385294,246.902576 C27.7575294,247.497576 26.0085294,248.584576 24.3975294,249.799576 C21.2805294,252.148576 17.7325294,255.012576 15.8675294,258.510576 C15.7585294,258.714576 16.0275294,258.950576 16.1985294,258.769576 C18.6445294,256.184576 21.1555294,253.834576 23.9355294,251.605576 C26.1655294,249.817576 28.6185294,248.127576 31.3665294,247.323576 C32.6125294,247.685576 33.8105294,248.158576 34.9755294,248.725576 C32.8015294,249.309576 30.6735294,250.671576 28.9785294,251.927576 C26.5125294,253.753576 24.3755294,256.032576 22.6425294,258.560576 C18.8535294,264.086576 16.5295294,271.154576 16.5805294,277.872576 C16.5825294,278.141576 16.9855294,278.192576 17.0515294,277.929576 C18.6855294,271.453576 19.8715294,264.962576 23.6285294,259.285576 C25.2285294,256.867576 27.1885294,254.684576 29.4765294,252.898576 C30.6505294,251.982576 31.9015294,251.199576 33.2175294,250.505576 C34.1125294,250.033576 35.0695294,249.672576 35.9865294,249.244576 C36.4395294,249.488576 36.8895294,249.744576 37.3345294,250.013576 C32.5645294,252.203576 28.5255294,255.796576 25.5785294,260.205576 C23.2605294,263.673576 21.5885294,267.747576 20.6885294,271.816576 C19.7765294,275.940576 19.2415294,280.351576 19.7465294,284.564576 C19.7885294,284.914576 20.3455294,285.056576 20.4195294,284.644576 C21.0335294,281.235576 21.4465294,277.814576 22.3305294,274.453576 C23.1935294,271.176576 24.3115294,267.929576 25.8975294,264.929576 C28.9035294,259.242576 33.3815294,254.483576 39.4435294,252.084576 C45.0425294,249.868576 51.5305294,249.694576 56.7925294,252.901576 C62.9515294,256.655576 63.6675294,264.500576 62.8025294,271.012576 C62.3295294,274.580576 61.4055294,277.947576 59.9155294,281.229576 C58.9885294,283.270576 57.8395294,285.222576 56.6015294,287.088576 C56.1245294,287.807576 55.6035294,288.494576 55.0975294,289.193576 C54.5125294,290.002576 54.0945294,290.892576 53.5715294,291.743576 C53.2905294,292.201576 53.8875294,292.846576 54.3675294,292.609576 C60.9055294,289.373576 64.3715294,281.519576 65.7485294,274.685576 C66.4995294,270.959576 66.3565294,267.288576 65.8145294,263.549576 C65.7385294,263.028576 65.6515294,262.508576 65.5515294,261.991576 C66.5015294,262.506576 67.5065294,262.913576 68.4535294,263.462576 C68.5545294,263.520576 68.6545294,263.584576 68.7555294,263.643576 C68.9395294,265.318576 68.6745294,267.116576 68.5135294,268.698576 C68.2785294,270.995576 67.9425294,273.273576 67.4325294,275.525576 C66.3225294,280.426576 64.4235294,284.868576 62.4225294,289.447576 C62.3445294,289.624576 62.6195294,289.721576 62.7195294,289.579576 C65.7585294,285.259576 67.6475294,279.916576 68.7775294,274.789576 C69.3555294,272.167576 69.7365294,269.508576 69.8535294,266.824576 C69.8915294,265.970576 69.9015294,265.120576 69.8105294,264.298576 C70.6515294,264.842576 71.4695294,265.428576 72.2275294,266.071576 C72.4995294,266.302576 72.7635294,266.542576 73.0215294,266.787576 C74.2415294,272.388576 71.1455294,278.035576 70.5545294,283.564576 C70.5335294,283.768576 70.8665294,283.859576 70.9495294,283.671576 C71.6175294,282.167576 72.0015294,280.518576 72.4495294,278.938576 C72.9265294,277.255576 73.4135294,275.577576 73.7515294,273.860576 C74.1635294,271.770576 74.3045294,269.697576 73.9005294,267.686576 C75.3925294,269.319576 76.5805294,271.216576 77.3635294,273.298576 C79.7955294,279.769576 78.1695294,286.585576 74.0725294,291.984576 Z M50.3675294,245.935576 C51.0695294,244.794576 51.8605294,243.707576 52.7375294,242.694576 C54.5755294,240.571576 56.7075294,238.684576 59.1185294,237.238576 C63.4725294,234.628576 68.4445294,233.646576 73.4235294,233.931576 C72.7605294,235.311576 72.5775294,236.873576 72.6155294,238.492576 C72.6285294,239.034576 72.6635294,239.786576 72.8125294,240.507576 C72.4325294,240.420576 72.0245294,240.393576 71.6195294,240.366576 C70.4895294,240.293576 69.3525294,240.282576 68.2225294,240.357576 C65.9225294,240.511576 63.6795294,240.965576 61.4995294,241.711576 C59.4025294,242.429576 57.4025294,243.365576 55.5395294,244.568576 C54.2245294,245.417576 52.3695294,246.560576 51.3635294,247.992576 C51.2565294,247.975576 51.1475294,247.963576 51.0405294,247.948576 C52.7105294,245.045576 55.0155294,242.534576 57.7985294,240.661576 C60.7015294,238.707576 63.9425294,237.612576 67.3035294,236.740576 C67.5075294,236.687576 67.4675294,236.381576 67.2585294,236.376576 C60.1065294,236.201576 53.3455294,241.616576 50.3265294,247.850576 C49.9975294,247.813576 49.6685294,247.781576 49.3385294,247.759576 C49.6775294,247.148576 50.0025294,246.528576 50.3675294,245.935576 Z M74.2825294,237.753576 C74.3675294,236.517576 74.7655294,235.277576 75.1905294,234.084576 C75.3935294,234.108576 75.5965294,234.135576 75.7985294,234.163576 C76.2515294,236.184576 76.6165294,238.690576 75.3945294,240.382576 C75.2665294,240.560576 74.9665294,241.057576 74.6735294,240.918576 C74.5475294,240.857576 74.4635294,240.141576 74.4335294,239.984576 C74.2895294,239.253576 74.2325294,238.497576 74.2825294,237.753576 Z M80.7315294,274.117576 C79.7405294,270.427576 77.6735294,267.079576 74.8895294,264.472576 C73.5775294,263.245576 72.0775294,262.096576 70.4335294,261.354576 C68.7885294,260.612576 66.9375294,259.832576 65.1055294,260.035576 C64.4245294,257.516576 63.3385294,255.135576 61.5335294,253.167576 C59.3815294,250.820576 56.6015294,249.297576 53.5935294,248.470576 C53.7115294,248.384576 53.8285294,248.299576 53.9455294,248.218576 C54.8585294,247.586576 55.7935294,246.978576 56.7625294,246.433576 C58.5785294,245.410576 60.5065294,244.556576 62.4945294,243.930576 C64.4335294,243.319576 66.4565294,242.891576 68.4745294,242.646576 C69.5445294,242.517576 70.6175294,242.451576 71.6945294,242.443576 C72.3735294,242.439576 72.9945294,242.466576 73.5585294,242.199576 C73.8735294,242.542576 74.2945294,242.750576 74.8585294,242.726576 C76.6815294,242.647576 77.7985294,240.402576 78.1845294,238.874576 C78.7085294,236.805576 78.3945294,234.746576 78.0845294,232.671576 C78.0205294,232.244576 77.5685294,231.889576 77.1795294,231.783576 C70.6975294,230.027576 63.4755294,231.305576 57.7835294,234.790576 C55.0615294,236.456576 52.6965294,238.621576 50.8055294,241.190576 C49.4475294,243.035576 47.9825294,245.353576 47.4425294,247.707576 C45.6845294,247.729576 43.9375294,247.943576 42.2705294,248.327576 C40.8755294,248.649576 39.5255294,249.087576 38.2265294,249.626576 C37.0555294,248.361576 35.6605294,247.368576 34.1285294,246.615576 C34.1125294,246.581576 34.0825294,246.554576 34.0315294,246.546576 C34.0085294,246.542576 33.9865294,246.541576 33.9645294,246.537576 C29.4475294,244.378576 23.7775294,244.261576 19.1155294,245.368576 C11.5675294,247.161576 5.67252936,252.744576 2.62352936,259.786576 C1.07852936,263.355576 0.204529362,267.201576 0.0285293622,271.084576 C-0.177470638,275.601576 0.772529362,279.915576 1.57752936,284.331576 C2.47552936,289.257576 3.00852936,294.207576 2.83752936,299.220576 C2.66952936,304.132576 1.87252936,308.928576 1.41452936,313.809576 C0.964529362,318.605576 1.31852936,323.394576 3.87452936,327.590576 C5.64152936,330.491576 9.03252936,333.441576 12.6085294,333.118576 C13.1315294,334.696576 13.9265294,336.184576 15.0885294,337.522576 C18.8875294,341.897576 24.8835294,342.247576 30.0175294,340.217576 C32.0445294,339.415576 33.8175294,338.226576 35.3615294,336.781576 C35.2225294,336.997576 35.4815294,337.337576 35.7145294,337.156576 C35.7485294,337.130576 35.7815294,337.102576 35.8155294,337.075576 C40.8675294,340.579576 47.8235294,337.330576 51.7465294,333.424576 C54.4325294,330.749576 56.4015294,327.431576 58.1065294,324.071576 C59.8465294,320.641576 61.5895294,317.220576 63.5215294,313.892576 C67.3575294,307.284576 71.8545294,301.100576 76.0155294,294.701576 C78.0765294,291.532576 80.0625294,288.327576 80.9345294,284.604576 C81.7425294,281.156576 81.6485294,277.533576 80.7315294,274.117576 L80.7315294,274.117576 Z" id="Fill-4"></path>
                <path d="M217.998719,514.678896 C216.476719,514.951896 214.965719,514.870896 213.470719,515.221896 C213.383719,515.241896 213.317719,515.278896 213.266719,515.325896 C213.018719,515.395896 212.837719,515.673896 212.931719,515.934896 C213.424719,517.293896 214.799719,518.203896 215.099719,519.648896 C215.615719,522.141896 211.782719,520.230896 210.841719,519.828896 C207.570719,518.428896 204.415719,516.621896 201.452719,514.651896 C200.971719,514.331896 200.488719,515.088896 200.887719,515.462896 C201.036719,515.601896 201.186719,515.736896 201.336719,515.872896 C201.318719,515.917896 201.310719,515.963896 201.313719,516.008896 C201.420719,517.263896 202.581719,518.182896 203.332719,519.107896 C204.411719,520.436896 205.443719,521.854896 206.261719,523.359896 C206.516719,523.828896 207.312719,525.154896 206.939719,525.698896 C206.637719,526.138896 205.634719,525.846896 205.241719,525.703896 C204.391719,525.392896 203.714719,524.825896 203.148719,524.151896 C202.958719,523.624896 202.704719,523.170896 202.390719,522.847896 C201.964719,522.408896 201.174719,522.900896 201.263719,523.463896 C201.495719,524.930896 201.944719,526.165896 201.458719,527.667896 C201.213719,528.427896 200.838719,529.262896 199.943719,528.642896 C199.584719,528.394896 199.365719,527.835896 199.206719,527.446896 C198.475719,525.653896 198.307719,523.726896 196.618719,522.512896 C196.182719,522.199896 195.489719,522.330896 195.203719,522.787896 C194.479719,523.943896 192.773719,525.912896 192.117719,523.558896 C191.705719,522.079896 191.759719,520.449896 191.733719,518.928896 C191.700719,516.963896 191.951719,514.037896 190.906719,512.146896 C192.705719,511.685896 194.543719,511.364896 196.389719,511.201896 C198.793719,510.989896 201.263719,510.869896 203.669719,511.089896 C204.872719,511.200896 206.076719,511.367896 207.263719,511.590896 C208.413719,511.806896 209.514719,512.172896 210.692719,512.136896 C210.903719,512.129896 211.061719,511.849896 210.884719,511.689896 C209.112719,510.094896 206.109719,509.587896 203.822719,509.167896 C201.128719,508.673896 198.482719,508.441896 195.749719,508.680896 C193.811719,508.849896 191.892719,509.176896 190.013719,509.669896 C190.396719,508.682896 190.647719,507.616896 190.997719,506.650896 C191.542719,505.142896 192.091719,503.635896 192.724719,502.161896 C193.025719,501.460896 193.341719,500.765896 193.672719,500.078896 C193.914719,499.577896 194.330719,498.333896 194.980719,498.203896 C195.779719,498.043896 196.661719,499.354896 196.964719,499.901896 C197.288719,500.489896 197.481719,501.104896 197.993719,501.560896 C198.244719,501.783896 198.646719,501.709896 198.801719,501.411896 C198.811719,501.392896 198.819719,501.372896 198.828719,501.353896 C200.310719,500.433896 201.621719,499.306896 203.234719,498.555896 C203.464719,498.448896 204.147719,498.031896 204.418719,498.273896 C204.526719,498.369896 204.292719,499.284896 204.255719,499.490896 C204.128719,500.194896 203.916719,500.889896 203.875719,501.603896 C203.821719,501.809896 203.819719,502.020896 203.888719,502.236896 C203.939719,502.399896 204.127719,502.461896 204.260719,502.346896 C205.217719,501.514896 206.650719,500.806896 207.814719,500.312896 C208.427719,500.052896 209.094719,499.811896 209.765719,499.773896 C210.256719,499.745896 210.586719,499.623896 210.530719,500.164896 C210.492719,500.531896 210.158719,500.891896 209.954719,501.175896 C209.215719,502.206896 208.403719,503.188896 207.527719,504.106896 C206.626719,505.050896 205.527719,505.821896 205.076719,507.089896 C205.018719,507.253896 205.176719,507.482896 205.359719,507.459896 C205.367719,507.458896 205.374719,507.456896 205.381719,507.455896 C205.459719,507.552896 205.585719,507.611896 205.740719,507.577896 C208.648719,506.940896 211.416719,505.893896 214.369719,505.400896 C214.864719,505.317896 215.556719,505.109896 216.055719,505.249896 C216.947719,505.499896 216.266719,506.212896 215.829719,506.642896 C214.743719,507.709896 213.534719,508.662896 212.417719,509.697896 C211.851719,510.221896 212.182719,511.350896 213.059719,511.173896 C214.580719,510.867896 216.112719,510.875896 217.642719,511.134896 C218.498719,511.279896 221.571719,511.765896 221.688719,512.971896 C221.806719,514.193896 218.736719,514.546896 217.998719,514.678896 Z M175.418719,516.202896 C174.759719,518.422896 173.906719,520.527896 172.773719,522.551896 C171.938719,524.042896 170.434719,526.943896 168.320719,526.470896 C166.977719,526.170896 167.196719,524.670896 167.334719,523.615896 C167.484719,522.465896 167.732719,521.355896 167.807719,520.202896 C167.860719,520.066896 167.868719,519.909896 167.824719,519.769896 C167.813719,519.566896 167.663719,519.444896 167.490719,519.414896 C166.770719,519.002896 166.162719,519.296896 165.371719,519.596896 C164.226719,520.032896 162.864719,520.437896 162.683719,518.754896 C162.482719,516.886896 163.549719,515.391896 164.389719,513.845896 C164.583719,513.661896 164.755719,513.454896 164.891719,513.214896 C165.026719,512.975896 164.923719,512.726896 164.730719,512.591896 C164.683719,512.544896 164.624719,512.513896 164.554719,512.505896 C164.550719,512.504896 164.545719,512.504896 164.540719,512.502896 C164.535719,512.502896 164.530719,512.500896 164.525719,512.500896 C164.490719,512.493896 164.455719,512.487896 164.419719,512.487896 C163.524719,512.487896 162.866719,512.974896 162.095719,513.392896 C161.273719,513.837896 160.445719,514.273896 159.610719,514.693896 C157.913719,515.548896 156.183719,516.430896 154.375719,517.024896 C153.037719,517.463896 150.456719,518.158896 149.335719,516.875896 C147.929719,515.268896 150.709719,513.667896 151.442719,512.520896 C151.541719,512.365896 151.421719,512.147896 151.237719,512.148896 C151.104719,512.150896 150.972719,512.160896 150.840719,512.177896 C150.783719,512.105896 150.705719,512.048896 150.602719,512.026896 C149.009719,511.691896 147.125719,512.574896 145.590719,511.837896 C144.524719,511.326896 145.383719,510.472896 145.952719,509.885896 C146.449719,509.372896 146.984719,508.895896 147.546719,508.453896 C148.701719,507.545896 150.005719,506.801896 151.345719,506.200896 C152.269719,505.785896 153.519719,505.534896 154.382719,504.916896 C154.515719,504.915896 154.644719,504.909896 154.760719,504.893896 C155.050719,504.852896 155.339719,504.506896 155.114719,504.220896 C154.724719,503.727896 154.290719,503.367896 153.740719,503.059896 C153.461719,502.903896 153.161719,502.780896 152.876719,502.633896 C152.506719,502.441896 152.271719,502.412896 152.325719,502.079896 C152.401719,501.601896 153.478719,501.019896 153.871719,500.800896 C154.512719,500.443896 155.221719,500.163896 155.925719,499.958896 C158.118719,499.321896 160.485719,499.317896 162.747719,499.689896 C163.207719,500.017896 163.699719,500.237896 164.199719,500.270896 C164.527719,500.291896 164.715719,499.900896 164.636719,499.630896 C164.323719,498.574896 163.272719,497.892896 162.620719,497.028896 C162.354719,496.675896 161.456719,495.519896 161.743719,495.006896 C162.010719,494.527896 163.123719,495.063896 163.466719,495.191896 C165.452719,495.937896 166.947719,497.298896 168.486719,498.695896 C168.546719,498.797896 168.608719,498.899896 168.676719,498.999896 C168.935719,499.381896 169.434719,499.167896 169.470719,498.755896 C169.651719,496.725889 169.277719,494.737896 169.660719,492.707896 C169.651719,492.752896 169.763719,491.722896 170.004719,491.725889 C170.242719,491.729896 170.850719,493.060896 170.970719,493.269896 C171.489719,494.170896 171.979719,495.087896 172.438719,496.021896 C174.392719,499.998896 175.731719,504.267896 176.871719,508.548896 C175.558719,507.963896 174.214719,507.446896 172.846719,507.002896 C168.303719,505.529896 163.648719,505.104896 158.907719,505.419896 C158.449719,505.450896 158.474719,506.086896 158.920719,506.123896 C163.360719,506.491896 167.803719,507.630896 171.973719,509.169896 C173.650719,509.788896 175.289719,510.518896 176.876719,511.343896 C176.068719,512.768896 175.856719,514.729896 175.418719,516.202896 Z M188.410719,487.157896 C186.925719,487.318896 185.415719,487.213896 183.942719,486.991896 C183.277719,486.891896 179.664719,486.546896 179.632719,485.701896 C179.616719,485.262896 180.840719,484.296896 181.629719,483.690896 C181.958719,483.530896 182.219719,483.304896 182.367719,482.988896 C182.426719,482.865896 182.448719,482.693896 182.357719,482.576896 C181.557719,481.532896 179.866719,482.005896 178.704719,481.987896 C177.655719,481.970896 175.442719,482.102896 174.360719,481.442896 C174.762719,480.756896 175.958719,480.073896 176.473719,479.809896 C177.380719,479.346896 178.389719,479.209896 179.248719,478.634896 C179.417719,478.520896 179.412719,478.317896 179.256719,478.195896 C179.209719,478.157896 179.158719,478.127896 179.109719,478.094896 C179.139719,477.861896 179.083719,477.625896 178.914719,477.463896 C177.957719,476.549896 176.934719,475.731896 176.031719,474.756896 C175.506719,474.188896 175.006719,473.599896 174.642719,472.913896 C174.464719,472.577896 174.310719,472.226896 174.232719,471.851896 C174.175719,471.634896 174.152719,471.414896 174.161719,471.191896 C174.075719,470.912896 174.134719,470.848896 174.339719,470.998896 C174.811719,470.757896 176.097719,471.234896 176.538719,471.379896 C177.350719,471.647896 178.115719,472.024896 178.877719,472.409896 C179.932719,472.944896 180.919719,473.596896 181.949719,474.168896 C182.137719,474.431896 182.344719,474.669896 182.570719,474.871896 C182.722719,475.007896 182.946719,474.957896 183.014719,474.760896 C183.019719,474.745896 183.022719,474.730896 183.027719,474.715896 C183.328719,474.817896 183.671719,474.517896 183.476719,474.204896 C183.368719,474.030896 183.249719,473.861896 183.127719,473.696896 C183.071719,473.134896 182.867719,472.583896 182.687719,472.027896 C182.478719,471.384896 182.264719,470.694896 182.327719,470.007896 C182.342719,469.935896 182.357719,469.864896 182.371719,469.793896 C182.599719,469.903896 182.844719,470.026896 182.872719,470.043896 C183.810719,470.603896 184.571719,471.401896 185.204719,472.284896 C185.639719,472.891896 186.010719,473.573896 186.456719,474.184896 C186.664719,474.775896 186.974719,475.301896 187.467719,475.615896 C187.621719,475.713896 187.864719,475.648896 187.947719,475.484896 C188.301719,474.778896 188.104719,474.148896 187.977719,473.391896 C187.824719,472.477896 187.700719,471.554896 187.833719,470.630896 C187.923719,470.006896 187.950719,469.636896 188.571719,470.167896 C188.802719,470.364896 188.973719,470.676896 189.150719,470.922896 C189.689719,471.672896 190.182719,472.453896 190.637719,473.256896 C191.414719,474.624896 192.100719,476.061896 192.664719,477.530896 C193.022719,478.463896 193.319719,479.416896 193.604719,480.373896 C193.792719,481.005896 193.886719,481.549896 194.165719,482.020896 C193.807719,482.711896 193.450719,483.402896 193.095719,484.095896 C192.404719,482.848896 191.481719,481.820896 190.295719,480.906896 C189.382719,480.202896 188.407719,479.568896 187.425719,478.967896 C186.637719,478.486896 185.693719,477.706896 184.721719,477.844896 C184.505719,477.875896 184.353719,478.035896 184.406719,478.265896 C184.587719,479.052896 185.227719,479.470896 185.886719,479.898896 C186.929719,480.574896 188.033719,481.147896 189.066719,481.839896 C190.357719,482.703896 191.700719,483.771896 192.594719,485.077896 C192.354719,485.549896 192.113719,486.020896 191.875719,486.493896 C190.708719,486.557896 189.576719,487.031896 188.410719,487.157896 Z M191.925719,465.364896 C191.940719,464.980896 192.098719,464.984896 192.398719,465.377896 C192.495719,465.468896 192.593719,465.560896 192.690719,465.652896 C193.038719,465.989896 193.312719,466.373896 193.590719,466.765896 C193.934719,467.250896 194.211719,467.702896 194.743719,467.992896 C194.858719,468.054896 195.009719,468.011896 195.049719,467.877896 C195.082719,467.762896 195.100719,467.644896 195.109719,467.524896 C195.140719,467.491896 195.166719,467.454896 195.182719,467.412896 C195.677719,466.178896 195.236719,464.461896 195.274719,463.149896 C195.322719,461.484896 195.573719,459.809896 196.014719,458.203896 C196.113719,457.845896 196.365719,456.387896 196.696719,456.202896 C197.249719,455.893896 197.819719,457.161896 197.999719,457.556896 C198.525719,458.712896 198.488719,460.146896 199.010719,461.277896 C198.997719,461.373896 198.982719,461.468896 198.972719,461.564896 C198.925719,461.994896 199.463719,462.311896 199.740719,461.975896 C199.773719,461.960896 199.804719,461.940896 199.833719,461.910896 C200.107719,461.619896 200.271719,461.226896 200.346719,460.774896 C201.124719,459.168896 201.888719,457.567896 202.959719,456.117896 C204.255719,454.364896 205.794719,452.797896 207.590719,451.553896 C207.845719,451.376896 208.612719,450.716896 208.941719,450.960896 C209.162719,451.124896 209.015719,452.472896 209.013719,452.738896 C209.002719,453.907896 208.866719,455.064896 208.631719,456.209896 C208.367719,457.494896 207.969719,458.747896 207.474719,459.960896 C207.091719,460.897896 206.479719,461.817896 206.559719,462.859896 C206.579719,463.128896 206.778719,463.282896 207.004719,463.296896 C207.089719,463.389896 207.219719,463.433896 207.384719,463.367896 C208.585719,462.887896 209.776719,462.401896 211.028719,462.069896 C211.663719,461.901896 212.304719,461.774896 212.952719,461.676896 C213.437719,461.603896 214.239719,461.411896 214.843719,461.477896 C214.829719,462.386896 213.549719,463.740896 213.108719,464.221896 C212.428719,464.961896 211.686719,465.658896 210.918719,466.305896 C210.128719,466.970896 209.276719,467.556896 208.385719,468.077896 C207.411719,468.646896 206.401719,469.421896 205.368719,469.859896 C204.515719,470.221896 204.770719,471.589896 205.688719,471.640896 C206.921719,471.710896 208.186719,471.705896 209.411719,471.872896 C211.188719,472.113896 209.620719,473.350896 208.846719,473.915896 C207.086719,475.202896 205.103719,476.203896 203.044719,476.914896 C201.992719,477.277896 200.922719,477.534896 199.834719,477.766896 C199.528719,477.831896 199.124719,477.877896 198.700719,477.937896 C199.688719,475.903896 200.668719,473.865896 201.647719,471.827896 C202.764719,469.500896 204.066719,467.113896 204.561719,464.560896 C204.618719,464.267896 204.252719,463.996896 204.022719,464.249896 C202.377719,466.059896 201.287719,468.354896 200.160719,470.507896 C199.019719,472.686896 197.872719,474.863896 196.745719,477.049896 C196.628719,477.276896 196.511719,477.502896 196.394719,477.728896 C196.094719,476.739896 195.529719,475.809896 195.063719,474.901896 C194.244719,473.304896 193.442719,471.703896 192.909719,469.984896 C192.673719,469.226896 192.440719,468.466896 192.251719,467.696896 C192.124719,467.175896 191.622719,465.872896 191.925719,465.364896 Z M195.052719,479.017896 C195.213719,479.141896 195.377719,479.259896 195.548719,479.359896 C195.454719,479.540896 195.360719,479.721896 195.266719,479.901896 C195.208719,479.606896 195.135719,479.309896 195.052719,479.017896 Z M204.407719,480.884896 C204.732719,480.870896 206.103719,480.655896 206.346719,480.895896 C206.279719,480.830896 205.619719,481.934896 205.443719,482.140896 C205.028719,482.625896 204.550719,483.000896 204.015719,483.341896 C203.316719,483.787896 203.962719,484.776896 204.679719,484.550896 C207.387719,483.697896 210.398719,483.381896 213.207719,483.811896 C213.838719,483.908896 214.654719,483.970896 215.225719,484.258896 C216.024719,484.660896 215.706719,485.113896 215.205719,485.704896 C214.545719,486.483896 213.606719,486.887896 212.883719,487.551896 C212.458719,487.587896 212.080719,487.746896 211.796719,488.091896 C211.715719,488.189896 211.680719,488.316896 211.747719,488.434896 C212.278719,489.358896 213.274719,489.318896 214.194719,489.654896 C214.702719,489.839896 216.728719,490.679896 217.099719,491.450896 C216.112719,492.081896 214.419719,492.201896 213.389719,492.167896 C212.337719,492.131896 211.279719,491.858896 210.263719,491.516896 C209.877719,490.861896 209.323719,490.381896 208.690719,490.766896 C208.436719,490.919896 208.381719,491.240896 208.389719,491.506896 C208.398719,491.839896 208.490719,492.102896 208.570719,492.421896 C208.702719,492.943896 208.881719,493.151896 208.386719,493.369896 C207.697719,493.673896 206.377719,493.159896 205.729719,492.913896 C204.312719,492.376896 203.352719,491.378896 202.285719,490.457896 C202.106719,490.049896 201.865719,489.686896 201.559719,489.403896 C201.238719,489.106896 200.648719,489.256896 200.488719,489.655896 C200.048719,490.759896 200.820719,492.300896 200.147719,493.266896 C199.333719,494.435896 197.606719,493.054896 196.914719,492.417896 C196.131719,491.697896 195.429719,490.886896 194.808719,490.022896 C194.448719,489.522896 194.121719,488.948896 193.743719,488.429896 C194.054719,487.737896 194.373719,487.048896 194.691719,486.358896 C196.424719,486.391896 198.163719,486.482896 199.875719,486.749896 C201.646719,487.026896 203.459719,487.840896 205.254719,487.817896 C205.475719,487.814896 205.632719,487.516896 205.451719,487.353896 C203.984719,486.031896 201.532719,485.726896 199.641719,485.483896 C198.124719,485.288896 196.620719,485.262896 195.120719,485.427896 C195.519719,484.570896 195.921719,483.714896 196.328719,482.859896 C197.223719,482.682896 198.055719,482.250896 198.921719,481.939896 C200.137719,481.502896 201.402719,481.202896 202.683719,481.032896 C203.255719,480.957896 203.831719,480.910896 204.407719,480.884896 Z M219.985719,509.809896 C218.477719,509.413896 216.974719,509.269896 215.458719,509.302896 C215.725719,509.073896 215.991719,508.844896 216.258719,508.615896 C216.912719,508.052896 217.634719,507.483896 218.010719,506.681896 C218.590719,505.448896 218.085719,504.105896 216.755719,503.705896 C215.235719,503.248896 213.409719,503.976896 211.947719,504.376896 C210.812719,504.687896 209.645719,505.022896 208.515719,505.444896 C209.070719,504.833896 209.568719,504.181896 210.011719,503.632896 C210.820719,502.628896 213.053719,500.419896 211.949719,499.023896 C210.929719,497.734896 208.705719,498.365896 207.477719,498.911896 C207.101719,499.079896 206.486719,499.348896 205.868719,499.694896 C206.370719,498.239896 206.304719,496.670896 204.726719,496.474896 C203.478719,496.320896 201.976719,497.327896 201.001719,498.002896 C200.298719,498.488896 199.542719,499.100896 198.930719,499.794896 C198.615719,498.619896 197.571719,497.477896 196.693719,496.898896 C195.178719,495.901896 193.600719,496.442896 192.702719,497.933896 C191.572719,499.811896 190.795719,502.010896 190.071719,504.071896 C189.447719,505.849896 188.592719,508.077896 188.600719,510.077896 C188.459719,510.121896 188.317719,510.163896 188.177719,510.208896 C187.308719,510.491896 186.307719,510.801896 185.343719,511.208896 C185.878719,509.348896 186.434719,507.495896 187.020719,505.652896 C188.685719,500.417896 190.688719,495.355896 192.880719,490.368896 C193.237719,491.047896 193.684719,491.684896 194.071719,492.218896 C195.085719,493.616896 196.458719,495.187896 198.150719,495.748896 C199.592719,496.225896 201.287719,495.837896 202.113719,494.489896 C202.291719,494.198896 202.423719,493.864896 202.515719,493.508896 C204.110719,494.798896 206.327719,495.586896 207.950719,495.592896 C209.361719,495.598896 210.932719,494.790896 210.828719,493.205896 C211.674719,493.574896 212.603719,493.771896 213.572719,493.834896 C215.098719,493.934896 217.360719,493.729896 218.536719,492.618896 C220.024719,491.213896 217.715719,489.592896 216.636719,488.931896 C216.220719,488.677896 215.610719,488.315896 214.950719,488.025896 C217.038719,486.795896 218.758719,483.996896 216.154719,482.803896 C214.358719,481.981896 212.036719,481.870896 210.104719,481.923896 C209.081719,481.950896 208.116719,482.072896 207.175719,482.280896 C207.412719,481.922896 207.600719,481.543896 207.709719,481.151896 C208.156719,479.550896 206.666719,479.328896 205.461719,479.246896 C204.792719,479.201896 204.119719,479.195896 203.448719,479.225896 C205.975719,478.264896 208.342719,476.784896 210.284719,475.028896 C211.299719,474.109896 212.659719,472.450896 211.546719,471.084896 C211.064719,470.492896 210.326719,470.357896 209.614719,470.263896 C209.627719,470.256896 209.640719,470.250896 209.653719,470.242896 C210.598719,469.671896 211.495719,469.018896 212.343719,468.313896 C213.963719,466.966896 215.884719,465.060896 216.460719,462.969896 C216.675719,462.186896 216.857719,461.094896 216.375719,460.383896 C215.820719,459.566896 214.840719,459.746896 213.981719,459.876896 C212.174719,460.147896 210.342719,460.695896 208.712719,461.575896 C208.998719,460.976896 209.208719,460.329896 209.404719,459.781896 C209.944719,458.272896 210.322719,456.693896 210.532719,455.105896 C210.757719,453.397896 211.712719,448.522896 208.549719,449.037896 C207.340719,449.233896 206.268719,450.207896 205.367719,450.975896 C204.292719,451.892896 203.303719,452.924896 202.430719,454.036896 C201.500719,455.222896 200.630719,456.567896 199.988719,457.996896 C199.111719,455.476896 197.003719,453.168896 195.521719,455.017896 C194.915719,455.771896 194.692719,456.888896 194.450719,457.802896 C194.141719,458.969896 193.927719,460.153896 193.830719,461.358896 C193.756719,462.281896 193.641719,463.511896 193.721719,464.684896 C193.253719,464.225896 192.733719,463.863896 192.267719,463.686896 C190.077719,462.854896 189.858719,465.656896 189.855719,467.088896 C189.854719,467.647896 189.898719,468.198896 189.976719,468.740896 C189.590719,468.320896 189.137719,467.978896 188.551719,467.843896 C187.651719,467.635896 186.730719,467.982896 186.295719,468.812896 C186.005719,469.365896 185.918719,470.034896 185.920719,470.699896 C185.813719,470.556896 185.704719,470.416896 185.595719,470.282896 C184.817719,469.331896 183.489719,468.027896 182.178719,467.915896 C180.821719,467.800896 180.591719,469.435896 180.660719,470.449896 C180.684719,470.790896 180.738719,471.153896 180.820719,471.522896 C179.977719,470.936896 179.064719,470.445896 178.166719,470.035896 C176.816719,469.419896 173.846719,468.267896 172.634719,469.686896 C171.439719,471.085896 172.724719,473.772896 173.551719,475.019896 C174.197719,475.992896 175.005719,477.196896 176.008719,478.000896 C175.596719,478.153896 175.204719,478.344896 174.860719,478.546896 C173.823719,479.154896 171.898719,480.664896 172.350719,482.068896 C172.874719,483.693896 175.779719,483.761896 177.108719,483.869896 C177.586719,483.908896 178.308719,483.999896 179.069719,484.030896 C178.685719,484.370896 178.357719,484.772896 178.113719,485.232896 C177.097719,487.147896 179.133719,487.726896 180.554719,488.095896 C182.706719,488.653896 184.941719,489.118896 187.174719,489.071896 C188.316719,489.047896 189.696719,488.963896 190.863719,488.528896 C190.675719,488.911896 190.485719,489.293896 190.299719,489.678896 C186.941719,496.635896 184.262719,503.889896 182.031719,511.279896 C181.175719,510.654896 180.148719,510.173896 179.380719,509.767896 C178.933719,509.531896 178.481719,509.305896 178.025719,509.085896 C177.761719,503.229896 175.787719,497.611896 172.974719,492.483896 C172.418719,491.468896 171.809719,490.139896 170.675719,489.655896 C169.663719,489.223896 168.645719,489.674896 168.154719,490.618896 C167.605719,491.672896 167.592719,493.150896 167.594719,494.312896 C167.594719,494.880896 167.611719,495.444896 167.670719,495.998896 C167.201719,495.500896 166.662719,495.059896 166.076719,494.671896 C164.907719,493.896896 162.930719,492.808896 161.451719,493.082896 C159.772719,493.392896 159.872719,495.547896 160.420719,496.737896 C160.613719,497.155896 160.888719,497.634896 161.221719,498.101896 C158.460719,497.469896 155.460719,497.872896 152.955719,499.265896 C151.878719,499.863896 149.984719,501.163896 150.357719,502.656896 C150.518719,503.301896 151.058719,503.822896 151.732719,504.202896 C150.702719,504.489896 149.698719,504.957896 149.003719,505.308896 C147.082719,506.279896 145.266719,507.668896 143.883719,509.322896 C142.686719,510.753896 142.510719,512.874896 144.588719,513.563896 C145.524719,513.873896 146.819719,514.043896 148.036719,513.923896 C147.616719,514.512896 147.350719,515.201896 147.330719,515.919896 C147.273719,517.979896 149.142719,519.094896 150.998719,519.194896 C153.512719,519.330896 155.933719,518.260896 158.154719,517.212896 C159.287719,516.678896 160.406719,516.113896 161.513719,515.528896 C160.928719,516.909896 160.745719,518.490896 161.072719,519.727896 C161.406719,520.989896 162.407719,521.784896 163.717719,521.810896 C164.419719,521.824896 165.075719,521.585896 165.720719,521.341896 C165.908719,521.271896 166.097719,521.211896 166.284719,521.151896 C165.439719,523.251896 164.888719,526.116896 166.539719,527.494896 C168.433719,529.073896 170.902719,527.916896 172.289719,526.288896 C174.194719,524.052896 175.600719,521.160896 176.757719,518.480896 C177.471719,516.828896 178.575719,514.301896 178.426719,512.204896 C179.298719,512.751896 180.267719,513.469896 181.265719,513.879896 C181.076719,514.539896 180.889719,515.200896 180.706719,515.862896 C179.252719,521.123896 177.494719,526.640896 177.737719,532.139896 C177.768719,532.859896 178.745719,532.898896 179.038719,532.346896 C181.254719,528.182896 182.106719,523.424896 183.266719,518.881896 C183.642719,517.409896 184.030719,515.941896 184.429719,514.475896 C185.966719,514.025896 187.486719,513.174896 188.912719,512.718896 C189.131719,512.648896 189.351719,512.582896 189.572719,512.516896 C189.606719,513.157896 189.730719,513.801896 189.789719,514.437896 C189.894719,515.574896 189.883719,516.710896 189.861719,517.850896 C189.822719,519.849896 189.705719,521.986896 190.163719,523.950896 C190.517719,525.471896 191.458719,526.784896 193.157719,526.775896 C194.481719,526.768896 195.441719,525.950896 196.191719,524.966896 C196.767719,525.870896 196.944719,527.096896 197.312719,528.059896 C197.806719,529.352896 198.744719,530.677896 200.217719,530.900896 C202.459719,531.238896 203.468719,529.102896 203.544719,526.877896 C203.775719,527.047896 204.019719,527.198896 204.274719,527.325896 C205.706719,528.038896 208.094719,528.241896 208.724719,526.355896 C209.366719,524.436896 207.705719,522.306896 206.724719,520.815896 C206.378719,520.289896 206.017719,519.774896 205.642719,519.269896 C206.076719,519.560896 206.517719,519.844896 206.970719,520.116896 C208.958719,521.312896 211.412719,522.985896 213.782719,523.170896 C215.788719,523.326896 217.600719,521.870896 217.250719,519.758896 C217.063719,518.630896 216.351719,517.373896 215.411719,516.470896 C217.043719,516.524896 218.770719,516.132896 220.279719,515.736896 C221.674719,515.369896 223.503719,514.739896 223.601719,513.029896 C223.712719,511.092896 221.521719,510.211896 219.985719,509.809896 L219.985719,509.809896 Z" id="Fill-5"></path>
                <path d="M192.786714,62.1120068 C192.200714,63.3670068 191.484714,64.5480068 190.739714,65.7100068 C191.559714,61.8950068 191.692714,57.9090068 190.738714,54.1410068 C189.700714,50.0420068 187.299714,45.8110068 183.273714,44.0570068 C183.029714,43.9500068 182.854714,44.2460068 183.063714,44.4090068 C186.523714,47.1170068 189.016714,50.7130068 189.964714,55.0370068 C190.864714,59.1400068 190.395714,63.2710068 189.675714,67.3500068 C189.582714,67.4930068 189.489714,67.6360068 189.396714,67.7800068 C190.155714,64.6920068 190.210714,61.4300068 189.508714,58.2700068 C188.165714,52.2240068 183.876714,47.5360068 179.231714,43.7060068 C174.110714,39.4840068 168.901714,35.5130068 164.484714,30.5160068 C159.669714,25.0710068 155.530714,18.8530068 152.537714,12.2210068 C152.397714,11.9110068 151.857714,12.1300068 151.982714,12.4510068 C156.501714,24.0490068 163.700714,33.8800068 173.251714,41.8550068 C177.590714,45.4780068 182.345714,49.1530068 185.154714,54.1650068 C188.063714,59.3570068 188.253714,65.9210068 185.515714,71.2310068 C184.046714,74.0780068 181.760714,76.4640068 179.031714,78.1320068 C177.730714,78.9280068 176.346714,79.5690068 174.889714,80.0220068 C174.291714,80.2070068 173.692714,80.3430068 173.102714,80.4900068 C174.151714,79.1380068 175.052714,77.6200068 175.932714,76.1930068 C176.974714,74.5060068 177.950714,72.7770068 178.500714,70.8590068 C179.559714,67.1660068 179.256714,62.6930068 177.483714,59.2650068 C177.380714,59.0640068 177.117714,59.2080068 177.144714,59.4010068 C177.661714,63.2190068 178.692714,66.8690068 177.589714,70.7080068 C177.291714,71.7450068 176.877714,72.7270068 176.397714,73.6760068 C176.611714,72.7790068 176.757714,71.8580068 176.826714,70.9180068 C177.227714,65.4200068 175.177714,60.1110068 172.455714,55.4410068 C169.278714,49.9910068 165.486714,44.9230068 162.303714,39.4670068 C160.656714,36.6420068 159.077714,33.7760068 157.600714,30.8590068 C156.103714,27.9020068 154.778714,24.8710068 153.213714,21.9490068 C152.953714,21.4640068 152.187714,21.8470068 152.355714,22.3540068 C154.042714,27.4520068 156.609714,32.3060068 159.079714,37.0640068 C161.560714,41.8400068 164.284714,46.4730068 167.108714,51.0530068 C172.035714,59.0430068 178.040714,69.8940068 171.271714,78.6540068 C168.696714,81.9860068 164.909714,84.2770068 160.943714,85.5670068 C156.578714,86.9880068 151.559714,87.5010068 147.829714,84.3340068 C139.726714,77.4540068 143.090714,64.6180068 145.431714,55.8590068 C146.921714,50.2840068 148.626714,44.7630068 149.757714,39.0980068 C150.868714,33.5320068 151.591714,27.6100068 150.375714,22.0040068 C150.283714,21.5800068 149.611714,21.6950068 149.628714,22.1220068 C149.863714,27.8190068 149.429714,33.3340068 148.158714,38.8980068 C146.885714,44.4740068 145.085714,49.9180068 143.534714,55.4190068 C140.861714,64.8960068 137.332714,77.1220068 144.927714,85.2980068 C145.579714,86.0010068 146.282714,86.6000068 147.024714,87.1060068 C146.217714,87.1210068 145.412714,87.1480068 144.606714,87.1650068 C141.474714,85.3860068 139.259714,81.2520068 138.341714,78.1840068 C136.626714,72.4510068 137.979714,66.8920068 138.862714,61.1660068 C138.883714,61.0290068 138.655714,60.9610068 138.597714,61.0860068 C135.956714,66.7700068 135.655714,74.0100068 137.875714,79.8800068 C138.774714,82.2590068 140.629714,85.3460068 143.021714,87.1780068 C142.057714,87.1710068 141.092714,87.1300068 140.124714,87.0090068 C137.405714,86.6690068 134.668714,85.8620068 132.369714,84.3380068 C127.320714,80.9890068 125.033714,73.8670068 125.050714,68.0720068 C125.089714,54.9750068 136.461714,45.5600068 142.804714,35.1990068 C146.190714,29.6700068 149.080714,22.8870068 147.718714,16.2970068 C147.644714,15.9380068 147.074714,16.0240068 147.085714,16.3860068 C147.303714,23.5010068 144.828714,29.8650068 140.765714,35.6170068 C136.820714,41.2040068 131.924714,46.0860068 128.233714,51.8540068 C124.807714,57.2080068 122.275714,63.3910068 122.742714,69.8580068 C122.888714,71.8730068 123.258714,73.9620068 123.875714,75.9870068 C123.510714,75.2990068 123.108714,74.6260068 122.815714,73.9040068 C122.277714,72.5810068 121.938714,71.1860068 121.787714,69.7670068 C121.458714,66.6840068 122.252714,64.0860068 123.039714,61.1600068 C123.101714,60.9320068 122.773714,60.7160068 122.614714,60.9200068 C120.812714,63.2290068 120.421714,66.6960068 120.691714,69.5260068 C120.906714,71.7810068 121.596714,74.8570068 123.199714,76.7490068 C122.556714,76.1120068 121.947714,75.4350068 121.389714,74.6870068 C119.553714,72.2270068 118.258714,69.3340068 117.682714,66.3200068 C116.466714,59.9550068 118.586714,53.6360068 122.785714,48.8210068 C126.531714,44.5260068 131.264714,41.2610068 135.358714,37.3270068 C139.489714,33.3570068 142.641714,28.6560068 144.055714,23.0520068 C144.886714,19.7630068 145.092714,16.2420068 144.670714,12.8760068 C144.349714,10.3170068 143.652714,7.43800675 142.292714,5.14000675 C144.388714,5.62500675 146.894714,5.31200675 148.817714,4.76800675 C149.721714,4.51300675 151.967714,3.65300675 152.672714,2.49100675 C152.869714,4.81500675 153.649714,7.18600675 154.402714,9.31900675 C155.345714,11.9910068 156.585714,14.5140068 158.070714,16.9260068 C161.117714,21.8760068 165.161714,26.2710068 169.907714,29.6360068 C174.732714,33.0560068 180.289714,34.8030068 185.486714,37.5090068 C188.048714,38.8430068 190.528714,40.4680068 192.310714,42.7830068 C194.226714,45.2740068 195.076714,48.3970068 195.178714,51.5030068 C195.299714,55.1760068 194.330714,58.8010068 192.786714,62.1120068 Z M124.132714,77.6300068 C124.230714,77.6910068 124.346714,77.6540068 124.421714,77.5760068 C124.479714,77.7310068 124.534714,77.8870068 124.596714,78.0400068 C124.440714,77.9050068 124.286714,77.7680068 124.132714,77.6300068 Z M145.292714,2.28400675 C146.188714,1.89400675 147.121714,1.78200675 148.089714,1.72400675 C148.852714,1.67800675 149.985714,1.40700675 150.717714,1.60600675 C152.093714,1.97900675 149.862714,2.95300675 149.286714,3.19100675 C148.341714,3.58200675 147.343714,3.81400675 146.330714,3.94400675 C145.211714,4.08700675 144.080714,4.02000675 142.959714,4.03300675 C143.667714,3.37600675 144.350714,2.69500675 145.292714,2.28400675 Z M191.536714,38.6800068 C186.827714,34.8770068 180.802714,33.4190068 175.505714,30.6780068 C170.166714,27.9140068 165.462714,23.9550068 161.757714,19.2280068 C159.648714,16.5380068 157.905714,13.6030068 156.432714,10.5220068 C154.918714,7.35400675 154.200714,3.96600675 152.898714,0.737006754 C152.845714,0.605006754 152.647714,0.666006754 152.640714,0.794006754 C152.636714,0.873006754 152.635714,0.953006754 152.633714,1.03200675 C152.573714,0.943006754 152.505714,0.853006754 152.421714,0.762006754 C151.695714,-0.0239932458 150.460714,0.0580067542 149.490714,0.0290067542 C148.264714,-0.00699324585 146.988714,-0.0589932458 145.784714,0.219006754 C143.980714,0.636006754 141.467714,1.95300675 140.928714,3.90200675 C140.847714,3.97800675 140.804714,4.09700675 140.840714,4.24900675 C140.843714,4.26100675 140.846714,4.27400675 140.849714,4.28700675 C140.849714,4.28700675 140.849714,4.28700675 140.849714,4.28800675 C140.787714,4.37100675 140.774714,4.49300675 140.825714,4.58200675 C140.822714,4.67400675 140.822714,4.76700675 140.829714,4.86100675 C140.840714,5.03100675 140.943714,5.16000675 141.078714,5.22200675 C141.790714,8.07400675 142.568714,10.7850068 142.749714,13.7790068 C142.932714,16.8040068 142.577714,19.8330068 141.792714,22.7550068 C140.211714,28.6380068 136.612714,33.1750068 132.138714,37.1690068 C127.843714,41.0040068 123.104714,44.4170068 119.609714,49.0560068 C115.854714,54.0410068 114.274714,60.3270068 115.311714,66.4930068 C116.311714,72.4430068 120.448714,79.2330068 126.354714,81.5140068 C127.399714,83.1750068 128.679714,84.6640068 130.219714,85.8620068 C132.755714,87.8370068 135.746714,88.8000068 138.903714,89.2110068 C142.186714,89.6370068 145.785714,89.6860068 149.050714,89.0980068 C149.416714,89.0320068 149.648714,88.7920068 149.756714,88.5020068 C156.637714,91.0010068 165.539714,87.5760068 170.780714,82.9330068 C170.829714,82.8900068 170.875714,82.8440068 170.924714,82.8000068 C173.375714,83.6190068 176.453714,82.2640068 178.637714,81.1890068 C181.246714,79.9050068 183.620714,78.0360068 185.449714,75.7740068 C186.200714,74.8460068 186.861714,73.8580068 187.430714,72.8260068 C187.605714,72.9080068 187.814714,72.9030068 188.006714,72.7470068 C190.680714,70.5740068 192.489714,67.4740068 194.131714,64.4830068 C195.745714,61.5410068 197.006714,58.3990068 197.483714,55.0640068 C198.376714,48.8320068 196.518714,42.7040068 191.536714,38.6800068 L191.536714,38.6800068 Z" id="Fill-6"></path>
                <path d="M1023.95776,146.085776 C1024.22776,147.646776 1024.07776,149.497776 1022.95776,150.713776 C1021.76776,152.013776 1019.80776,152.470776 1018.10776,152.231776 C1016.41776,151.995776 1014.80776,151.123776 1013.80776,149.727776 C1013.39776,149.167776 1013.15776,148.575776 1012.97776,147.970776 C1013.04776,146.779776 1013.03776,145.585776 1013.59776,144.477776 C1014.34776,142.971776 1015.76776,141.956776 1017.39776,141.576776 C1020.71776,140.797776 1023.39776,142.800776 1023.95776,146.085776 Z M1015.16776,139.841776 C1013.37776,140.702776 1011.93776,142.141776 1011.31776,144.056776 C1010.98776,145.086776 1010.85776,146.352776 1011.20776,147.413776 C1011.27776,148.308776 1011.59776,149.216776 1011.97776,149.949776 C1012.78776,151.535776 1014.17776,152.805776 1015.80776,153.519776 C1019.00776,154.923776 1023.28776,154.334776 1025.24776,151.192776 C1027.00776,148.397776 1026.48776,144.291776 1024.55776,141.714776 C1022.38776,138.808776 1018.33776,138.322776 1015.16776,139.841776 L1015.16776,139.841776 Z" id="Fill-12"></path>
                <path d="M978.957759,430.085776 C979.227759,431.646776 979.077759,433.497776 977.957759,434.713776 C976.767759,436.013776 974.807759,436.470776 973.107759,436.231776 C971.417759,435.995776 969.807759,435.123776 968.807759,433.727776 C968.397759,433.167776 968.157759,432.575776 967.977759,431.970776 C968.047759,430.779776 968.037759,429.585776 968.597759,428.477776 C969.347759,426.971776 970.767759,425.956776 972.397759,425.576776 C975.717759,424.797776 978.397759,426.800776 978.957759,430.085776 Z M970.167759,423.841776 C968.377759,424.702776 966.937759,426.141776 966.317759,428.056776 C965.987759,429.086776 965.857759,430.352776 966.207759,431.413776 C966.277759,432.308776 966.597759,433.216776 966.977759,433.949776 C967.787759,435.535776 969.177759,436.805776 970.807759,437.519776 C974.007759,438.923776 978.287759,438.334776 980.247759,435.192776 C982.007759,432.397776 981.487759,428.291776 979.557759,425.714776 C977.387759,422.808776 973.337759,422.322776 970.167759,423.841776 L970.167759,423.841776 Z" id="Fill-12-Copy"></path>
                <path d="M99.9577586,430.085776 C100.227759,431.646776 100.077759,433.497776 98.9577586,434.713776 C97.7677586,436.013776 95.8077586,436.470776 94.1077586,436.231776 C92.4177586,435.995776 90.8077586,435.123776 89.8077586,433.727776 C89.3977586,433.167776 89.1577586,432.575776 88.9777586,431.970776 C89.0477586,430.779776 89.0377586,429.585776 89.5977586,428.477776 C90.3477586,426.971776 91.7677586,425.956776 93.3977586,425.576776 C96.7177586,424.797776 99.3977586,426.800776 99.9577586,430.085776 Z M91.1677586,423.841776 C89.3777586,424.702776 87.9377586,426.141776 87.3177586,428.056776 C86.9877586,429.086776 86.8577586,430.352776 87.2077586,431.413776 C87.2777586,432.308776 87.5977586,433.216776 87.9777586,433.949776 C88.7877586,435.535776 90.1777586,436.805776 91.8077586,437.519776 C95.0077586,438.923776 99.2877586,438.334776 101.247759,435.192776 C103.007759,432.397776 102.487759,428.291776 100.557759,425.714776 C98.3877586,422.808776 94.3377586,422.322776 91.1677586,423.841776 L91.1677586,423.841776 Z" id="Fill-12-Copy-2"></path>
                <path d="M45.9577586,152.085776 C46.2277586,153.646776 46.0777586,155.497776 44.9577586,156.713776 C43.7677586,158.013776 41.8077586,158.470776 40.1077586,158.231776 C38.4177586,157.995776 36.8077586,157.123776 35.8077586,155.727776 C35.3977586,155.167776 35.1577586,154.575776 34.9777586,153.970776 C35.0477586,152.779776 35.0377586,151.585776 35.5977586,150.477776 C36.3477586,148.971776 37.7677586,147.956776 39.3977586,147.576776 C42.7177586,146.797776 45.3977586,148.800776 45.9577586,152.085776 Z M37.1677586,145.841776 C35.3777586,146.702776 33.9377586,148.141776 33.3177586,150.056776 C32.9877586,151.086776 32.8577586,152.352776 33.2077586,153.413776 C33.2777586,154.308776 33.5977586,155.216776 33.9777586,155.949776 C34.7877586,157.535776 36.1777586,158.805776 37.8077586,159.519776 C41.0077586,160.923776 45.2877586,160.334776 47.2477586,157.192776 C49.0077586,154.397776 48.4877586,150.291776 46.5577586,147.714776 C44.3877586,144.808776 40.3377586,144.322776 37.1677586,145.841776 L37.1677586,145.841776 Z" id="Fill-12-Copy-3"></path>
            </g>
        </g>
    </g>
</svg>