<?xml version="1.0" encoding="UTF-8"?>
<svg width="18px" height="18px" viewBox="0 0 18 18" version="1.1" xmlns="http://www.w3.org/2000/svg" xmlns:xlink="http://www.w3.org/1999/xlink">
    <!-- Generator: Sketch 57.1 (83088) - https://sketch.com -->
    <title>Home</title>
    <desc>Created with Sketch.</desc>
    <g id="Version01" stroke="none" stroke-width="1" fill="none" fill-rule="evenodd">
        <g id="Mobile_Home" transform="translate(-20.000000, -17.000000)" fill="#302B2B" fill-rule="nonzero">
            <g id="Home" transform="translate(20.000000, 17.000000)">
                <path d="M1.54307121,4.14273822 L8.02871414,0.539603257 C8.63275921,0.20402266 9.36724079,0.20402266 9.97128586,0.539603257 L16.4569288,4.14273822 C17.4093243,4.67184686 18,5.67570867 18,6.76521005 L18,15 C18,16.6568542 16.6568542,18 15,18 L3,18 C1.34314575,18 0,16.6568542 0,15 L0,6.76521005 C0,5.67570867 0.590675651,4.67184686 1.54307121,4.14273822 Z M2.51435707,5.89105277 C2.19689188,6.06742232 2,6.40204292 2,6.76521005 L2,15 C2,15.5522847 2.44771525,16 3,16 L15,16 C15.5522847,16 16,15.5522847 16,15 L16,6.76521005 C16,6.40204292 15.8031081,6.06742232 15.4856429,5.89105277 L9,2.28791781 L2.51435707,5.89105277 Z" id="Rectangle"></path>
                <path d="M8,9 L10,9 C11.1045695,9 12,9.8954305 12,11 L12,16 C12,17.1045695 11.1045695,18 10,18 L8,18 C6.8954305,18 6,17.1045695 6,16 L6,11 C6,9.8954305 6.8954305,9 8,9 Z M8,16 L10,16 L10,11 L8,11 L8,16 Z" id="Rectangle"></path>
            </g>
        </g>
    </g>
</svg>