<svg width="96" height="96" viewBox="0 0 96 96" xmlns="http://www.w3.org/2000/svg">
    <title>
        General
    </title>
    <g fill="none" fill-rule="evenodd">
        <path fill="#FFF" d="M0 0h96v96H0z"/>
        <g transform="translate(9.938 9)" fill-rule="nonzero">
            <path d="M27.373 53.471a24.01 24.01 0 0 1 .463-5.173c-.974.12-1.968.183-2.976.183-12.331 0-22.479-9.342-23.757-21.334-.09.841-.138 1.695-.138 2.56 0 6.866 2.9 13.05 7.537 17.41l-7.025 5.91 9.956-3.553v-.001a23.784 23.784 0 0 0 13.428 4.129c.848 0 1.687-.044 2.512-.13z" fill="#F2EAE0"/>
            <path d="M24.531 37.19c-1.016 0-1.639.45-1.982.829a2.696 2.696 0 0 0-.702 1.848c0 .706.25 1.342.722 1.839.343.36.962.791 1.962.791.972 0 1.592-.418 1.94-.768.497-.5.76-1.144.76-1.862 0-.717-.255-1.363-.738-1.871-.502-.528-1.18-.806-1.962-.806z" fill="#DA4A48"/>
            <path d="M30.162 18.365c-1.289-1.3-3.03-1.96-5.172-1.96-2.071 0-3.82.631-5.2 1.877-1.414 1.279-2.144 2.982-2.17 5.062a1.429 1.429 0 0 0 1.43 1.447h1.822c.779 0 1.415-.625 1.428-1.404.014-.797.244-1.393.702-1.82.48-.448 1.13-.666 1.988-.666.807 0 1.395.21 1.795.639.428.46.635 1.124.635 2.032 0 .48-.057.903-.17 1.256-.112.353-.274.68-.48.972-.165.235-.61.758-1.786 1.916-1.158 1.138-1.908 2.14-2.292 3.06-.38.91-.577 2.034-.6 3.432a1.428 1.428 0 0 0 1.428 1.454h1.823c.789 0 1.428-.64 1.428-1.429 0-1.434.4-2.44 1.268-3.17 1.536-1.411 2.567-2.644 3.15-3.767a8.073 8.073 0 0 0 .91-3.756c.001-2.136-.65-3.877-1.937-5.175z" fill="#DA4A48"/>
            <path d="M75.16 53.026c0-.865-.049-1.72-.139-2.56C73.743 62.458 63.596 71.8 51.264 71.8c-12.331 0-22.479-9.342-23.756-21.334a24.15 24.15 0 0 0-.139 2.56c0 13.196 10.699 23.895 23.895 23.895 4.979 0 9.6-1.524 13.428-4.13v.001l9.956 3.553-7.025-5.91c4.636-4.358 7.537-10.543 7.537-17.41z" fill="#F2EAE0"/>
            <path d="M51.125 55.866a2.937 2.937 0 0 1-2.938-2.937V41.304a2.937 2.937 0 0 1 5.875 0v11.625a2.937 2.937 0 0 1-2.937 2.937z" fill="#DA4A48"/>
            <circle fill="#DA4A48" transform="rotate(-76.645 51.15 61.53)" cx="51.149" cy="61.529" r="2.938"/>
            <g fill="#46362E">
                <path d="M24.86 6.75c4.84 0 9.468 1.488 13.384 4.302A.938.938 0 0 0 39.34 9.53 24.66 24.66 0 0 0 24.86 4.875C11.168 4.875.028 16.015.028 29.707c0 4.81 1.37 9.456 3.968 13.47L.595 52.711a.937.937 0 0 0 1.198 1.198l9.513-3.394a24.77 24.77 0 0 0 11.949 3.971.938.938 0 0 0 .06-1.873 22.896 22.896 0 0 1-11.354-3.915.94.94 0 0 0-.842-.108l-8.094 2.888 2.894-8.112a.937.937 0 0 0-.105-.84 22.84 22.84 0 0 1-3.911-12.82C1.903 17.048 12.202 6.75 24.86 6.75z"/>
                <path d="M72.129 66.496a24.709 24.709 0 0 0 3.968-13.47c0-13.693-11.14-24.833-24.832-24.833-13.693 0-24.833 11.14-24.833 24.833 0 13.693 11.14 24.832 24.833 24.832a24.7 24.7 0 0 0 13.555-4.025l9.513 3.395a.936.936 0 0 0 1.198-1.199l-3.402-9.533zm-7.122 5.414a.937.937 0 0 0-.843.108 22.834 22.834 0 0 1-12.9 3.966c-12.658 0-22.957-10.299-22.957-22.958 0-12.659 10.299-22.957 22.958-22.957 12.659 0 22.957 10.298 22.957 22.957a22.84 22.84 0 0 1-3.91 12.82.938.938 0 0 0-.106.84l2.894 8.111-8.093-2.887z"/>
                <path d="M38.338 15.669c.178.683.581 1.229.905 1.668 1.25 1.69 2.61 3.421 4.155 5.29.178.215.355.433.532.65.272.336.544.672.823 1.001.947 1.297 2.348 2.04 3.849 2.04h5.213c2.74 0 4.969-2.494 4.969-5.559V6.973a2.422 2.422 0 0 0-2.997-2.35 2.56 2.56 0 0 0-3.218-2.045A2.71 2.71 0 0 0 49.876.143c-1.019 0-1.909.566-2.37 1.401a2.71 2.71 0 0 0-3.874 2.441v10.218l-.247-.246c-.346-.342-1.397-1.38-2.982-1.16-.599.085-1.114.314-1.49.665-.587.548-.797 1.353-.575 2.208zm1.854-.836c.043-.04.175-.138.471-.18a1.29 1.29 0 0 1 .18-.013c.4 0 .768.198 1.224.65.152.148.288.286.416.414.56.562.965.967 1.56 1.372a.937.937 0 0 0 1.465-.774V3.984a.833.833 0 0 1 1.662 0v7.525a.937.937 0 1 0 1.875 0V2.848a.832.832 0 0 1 1.663 0v8.661a.937.937 0 1 0 1.875 0V5.04a.682.682 0 0 1 1.363 0v6.471a.937.937 0 1 0 1.875 0V6.973a.545.545 0 0 1 1.088 0v13.786c0 2.03-1.388 3.683-3.094 3.683h-5.213c-.903 0-1.76-.47-2.35-1.291-.015-.021-.03-.04-.047-.06-.278-.327-.548-.66-.818-.994-.181-.223-.361-.445-.544-.666a120.704 120.704 0 0 1-4.091-5.208c-.252-.341-.513-.693-.6-1.025-.068-.265.008-.335.04-.365z"/>
            </g>
        </g>
    </g>
</svg>
