<svg width="96" height="96" viewBox="0 0 96 96" xmlns="http://www.w3.org/2000/svg">
    <title>
        Careers
    </title>
    <g fill="none" fill-rule="evenodd">
        <path fill="#FFF" d="M0 0h96v96H0z"/>
        <g fill-rule="nonzero">
            <g fill="#F2EAE0">
                <path d="M36.43 31.45h23.14v7.686H36.43z"/>
                <path d="M8.625 71.784h23.14v7.686H8.625z"/>
                <path d="M64.234 71.784h23.141v7.686h-23.14z"/>
            </g>
            <path d="M58.692 58.61l-7.36-4.752v-6.173a3.331 3.331 0 1 0-6.663 0v6.172l-7.36 4.753a3.332 3.332 0 0 0 3.614 5.598L48 59.638l7.077 4.57a3.33 3.33 0 0 0 4.606-.992 3.331 3.331 0 0 0-.991-4.606z" fill="#DA4A48"/>
            <path d="M36.43 40.073h23.14c.518 0 .937-.42.937-.937V28.403c0-4.005-3.009-7.32-6.885-7.804a7.46 7.46 0 0 0 1.862-4.946c0-4.127-3.358-7.484-7.484-7.484-4.127 0-7.484 3.357-7.484 7.484 0 1.86.68 3.604 1.862 4.946-3.876.483-6.886 3.799-6.886 7.804v10.733c0 .518.42.937.938.937zm.937-11.67a5.996 5.996 0 0 1 5.99-5.99h1.65a.938.938 0 0 0 .429-1.77 5.593 5.593 0 0 1-3.045-4.99A5.615 5.615 0 0 1 48 10.044a5.615 5.615 0 0 1 5.609 5.609 5.592 5.592 0 0 1-3.044 4.99.937.937 0 0 0 .429 1.77h1.65a5.996 5.996 0 0 1 5.989 5.99v9.795H37.367v-9.795zm-11.55 32.53a7.462 7.462 0 0 0 1.862-4.946c0-4.126-3.358-7.483-7.484-7.483-4.127 0-7.484 3.357-7.484 7.483 0 1.86.68 3.605 1.862 4.947-3.876.483-6.886 3.799-6.886 7.803V79.47c0 .518.42.938.938.938h23.14c.518 0 .938-.42.938-.938V68.737c0-4.004-3.01-7.32-6.886-7.803zm5.011 17.6H9.563v-9.796a5.996 5.996 0 0 1 5.989-5.989h1.65a.938.938 0 0 0 .429-1.77 5.592 5.592 0 0 1-3.045-4.99 5.615 5.615 0 0 1 5.61-5.61 5.615 5.615 0 0 1 5.608 5.61 5.592 5.592 0 0 1-3.044 4.99.938.938 0 0 0 .429 1.77h1.65a5.996 5.996 0 0 1 5.989 5.99v9.795zm50.598-17.6a7.46 7.46 0 0 0 1.863-4.946c0-4.126-3.357-7.483-7.484-7.483-4.126 0-7.484 3.357-7.484 7.483 0 1.86.68 3.605 1.862 4.947-3.876.483-6.886 3.798-6.886 7.803V79.47c0 .518.42.938.938.938h23.14c.518 0 .937-.42.937-.938V68.737c0-4.004-3.009-7.32-6.886-7.803zm5.011 17.6H65.172v-9.796a5.996 5.996 0 0 1 5.99-5.989h1.65a.938.938 0 0 0 .428-1.77 5.592 5.592 0 0 1-3.044-4.99 5.615 5.615 0 0 1 5.61-5.61 5.615 5.615 0 0 1 5.608 5.61 5.592 5.592 0 0 1-3.045 4.99.937.937 0 0 0 .43 1.77h1.65a5.996 5.996 0 0 1 5.989 5.99v9.795zm-53.865-51.43a.937.937 0 0 1-.328 1.285 30.927 30.927 0 0 0-13.767 17.357.938.938 0 0 1-1.79-.562 32.796 32.796 0 0 1 14.6-18.407.937.937 0 0 1 1.285.328zm30.856 0a.938.938 0 0 1 1.285-.328 32.797 32.797 0 0 1 14.6 18.408.938.938 0 0 1-1.79.561 30.927 30.927 0 0 0-13.767-17.356.937.937 0 0 1-.328-1.284zm-1.48 56.6a.938.938 0 0 1-.47 1.24A32.564 32.564 0 0 1 48 87.832c-4.696 0-9.23-.97-13.478-2.887a.937.937 0 1 1 .771-1.71A30.701 30.701 0 0 0 48 85.957c4.428 0 8.703-.916 12.707-2.721a.937.937 0 0 1 1.24.469z" fill="#46362E"/>
        </g>
    </g>
</svg>
