<svg width="96" height="96" viewBox="0 0 96 96" xmlns="http://www.w3.org/2000/svg">
    <title>
        Catering
    </title>
    <g fill="none" fill-rule="evenodd">
        <path fill="#FFF" d="M0 0h96v96H0z"/>
        <g fill-rule="nonzero">
            <g fill="#F2EAE0">
                <path d="M30.138 57.82a2.89 2.89 0 0 1 4.088 4.089l2.469-2.468a2.882 2.882 0 0 1 2.059-.846l-14.57-14.57-3.401 3.402 5.289 5.29 3.293 5.877.773-.774z"/>
                <path d="M53.945 71.985l-1.437-1.438-.11.14a2.89 2.89 0 0 1-3.153 4.056l-.314.404.926.925a2.891 2.891 0 0 0 4.088-4.087z"/>
                <path d="M58.788 68.65l-.108.026c-.66.16-1.185.624-1.498 1.227a2.886 2.886 0 0 1-.647.827c-1.156 1.028-2.938.904-4.032-.19l-.294-.293h-.001l2.491 2.49a2.89 2.89 0 0 0 4.089-4.087z"/>
                <path d="M63.37 65.055l-.148.026c-.63.112-1.136.547-1.409 1.125a2.89 2.89 0 0 1-4.658.81l3.324 3.324c1.067 1.067 2.89.311 2.89-1.197a2.89 2.89 0 0 0 0-4.088z"/>
                <path d="M68.354 61.863l-.062.006c-.662.073-1.204.515-1.483 1.12-.147.32-.357.62-.628.88-1.149 1.1-2.997 1-4.121-.124l-1.078-1.077 3.198 3.197c1.12 1.12 2.957 1.233 4.11.148a2.891 2.891 0 0 0 .064-4.15z"/>
                <path d="M34.226 61.908l-.125.126.125-.126z"/>
                <path d="M34.101 62.034a2.891 2.891 0 0 1-4.089-4.087l-2.78 2.779a2.89 2.89 0 0 0 4.09 4.088l2.779-2.78z"/>
                <path d="M42.071 74.506a2.89 2.89 0 0 1-.097-3.985 2.791 2.791 0 0 0-.103.097l-2.58 2.58a2.89 2.89 0 0 0 4.088 4.088l2.58-2.58c.034-.033.066-.067.098-.102a2.892 2.892 0 0 1-3.986-.098z"/>
                <path d="M37.32 66.993a2.89 2.89 0 0 1-4.089-4.087l-2.78 2.78a2.89 2.89 0 0 0 4.088 4.087l2.78-2.78z"/>
                <path d="M43.545 68.945l-2.138 2.137a2.891 2.891 0 0 1-4.088-4.088l2.137-2.137-4.917 4.917a2.89 2.89 0 0 0 4.088 4.088l4.918-4.917z"/>
                <path d="M26.745 41.465l-7.357 7.356a.66.66 0 0 1-.933 0l-8.136-8.136a.66.66 0 0 1 0-.934l7.356-7.356 9.07 9.07z"/>
                <path d="M76.612 47.766l-5.533-5.533 9.07-9.07 5.533 5.533a.66.66 0 0 1 0 .933l-8.137 8.136a.66.66 0 0 1-.933 0z"/>
                <path d="M72.032 43.186l-.953-.953-11.26 11.26 5.368 5.366 5.456-8.424 4.32-4.319z"/>
            </g>
            <g fill="#46362E">
                <path d="M86.344 38.033L67.683 19.37a1.6 1.6 0 0 0-2.258 0l-8.137 8.137a1.599 1.599 0 0 0 0 2.26l.457.457-4.677 4.676h-6.03a3.998 3.998 0 0 0-2.689 1.034l-2.983-.965-3.4-3.4.748-.747c.302-.301.468-.703.468-1.13 0-.426-.166-.827-.468-1.129l-8.137-8.137a1.586 1.586 0 0 0-1.13-.468c-.426 0-.827.166-1.129.468L9.655 39.09a1.599 1.599 0 0 0 0 2.259l8.137 8.136c.311.312.72.468 1.13.468.409 0 .818-.156 1.129-.468l.732-.731 4.534 4.535 1.651 2.946a.937.937 0 1 0 1.636-.916l-1.714-3.06a.937.937 0 0 0-.155-.205l-4.626-4.626 14.53-14.532 3.56 3.56a.939.939 0 0 0 .374.229l2.274.735-6.642 6.642c-1.324 1.324-1.544 3.385-.524 4.9a3.881 3.881 0 0 0 2.85 1.712 3.853 3.853 0 0 0 3.107-1.114l6.461-6.46 16.424 16.423a.936.936 0 0 0 1.45-.153l5.402-8.34 3.586-3.587.987.986c.312.312.72.467 1.13.467.409 0 .818-.155 1.129-.467l8.137-8.136c.302-.302.468-.703.468-1.13 0-.427-.166-.828-.467-1.13zm-75.166 2.185l18.27-18.27 7.743 7.745-18.27 18.27-7.743-7.745zm58.802 9.555a.941.941 0 0 0-.124.153l-4.826 7.45L48.763 41.11a.935.935 0 0 0-1.326 0l-7.124 7.124a1.986 1.986 0 0 1-1.6.573 1.988 1.988 0 0 1-1.476-.892c-.52-.774-.397-1.837.294-2.528l7.98-7.98a2.142 2.142 0 0 1 1.525-.632h6.42a.937.937 0 0 0 .662-.274l4.951-4.951 7.284 7.283 7.284 7.283-3.657 3.657zm7.098-2.866l-1.453-1.454-9.717-9.716-7.1-7.1 7.745-7.744 18.27 18.27-7.745 7.744z"/>
                <path d="M44.743 68.93a3.833 3.833 0 0 0-.536-4.736 3.802 3.802 0 0 0-2.018-1.056c.245-.51.378-1.07.378-1.653a3.803 3.803 0 0 0-1.12-2.707 3.833 3.833 0 0 0-5.415 0l-.144.145a3.797 3.797 0 0 0-1-1.766 3.833 3.833 0 0 0-5.413 0l-2.905 2.906a3.833 3.833 0 0 0 0 5.413c.637.638 1.444 1 2.277 1.094-.117.37-.18.76-.18 1.16 0 1.022.398 1.984 1.121 2.706a3.816 3.816 0 0 0 2.707 1.12c.092 0 .183-.007.275-.014a3.818 3.818 0 0 0 4.75 3.982c.067.916.452 1.77 1.108 2.425a3.804 3.804 0 0 0 2.707 1.121 3.802 3.802 0 0 0 2.706-1.121l2.58-2.58a3.833 3.833 0 0 0 0-5.414 3.792 3.792 0 0 0-1.878-1.026zm-16.847-7.541l2.905-2.906c.381-.38.88-.57 1.381-.57.5 0 1 .19 1.381.57.762.762.762 2.001 0 2.763l-2.905 2.905c-.762.761-2 .761-2.762 0a1.955 1.955 0 0 1 0-2.762zm3.218 7.721a1.94 1.94 0 0 1-.572-1.38c0-.523.203-1.013.572-1.382l6.244-6.244c.38-.38.88-.571 1.381-.571a1.949 1.949 0 0 1 1.953 1.952 1.94 1.94 0 0 1-.572 1.381l-6.244 6.244c-.761.762-2 .762-2.762 0zm4.088 4.089c-.761-.762-.761-2 0-2.763l4.917-4.917c.381-.38.881-.57 1.382-.57.5 0 1 .19 1.38.57.762.762.762 2 0 2.763l-4.916 4.917c-.762.761-2 .761-2.763 0zm10.094.844l-2.58 2.58a1.94 1.94 0 0 1-1.38.572 1.94 1.94 0 0 1-1.382-.572 1.939 1.939 0 0 1-.572-1.382c0-.521.203-1.012.572-1.38l2.58-2.58c.38-.38.88-.571 1.38-.571.501 0 1 .19 1.382.57a1.955 1.955 0 0 1 0 2.763z"/>
                <path d="M67.69 61.2a.937.937 0 0 0 0 1.325c.37.37.573.86.573 1.381 0 .522-.203 1.013-.572 1.382a1.94 1.94 0 0 1-1.381.572 1.941 1.941 0 0 1-1.382-.573l-3.283-3.282a.937.937 0 1 0-1.325 1.325l2.386 2.387h.001c.761.762.761 2.001 0 2.763a1.94 1.94 0 0 1-1.381.572 1.942 1.942 0 0 1-1.381-.572l-2.853-2.853a.937.937 0 1 0-1.326 1.326l2.357 2.357.002.003c.369.368.572.86.572 1.38 0 .522-.203 1.013-.572 1.382a1.94 1.94 0 0 1-1.381.572 1.94 1.94 0 0 1-1.381-.572l-2.492-2.49a.938.938 0 1 0-1.326 1.326l.298.298.002.001 1.437 1.437c.761.762.761 2 0 2.762a1.94 1.94 0 0 1-1.382.573 1.942 1.942 0 0 1-1.38-.572l-.927-.926a.937.937 0 0 0-1.325 1.326l.926.925a3.803 3.803 0 0 0 2.706 1.122 3.804 3.804 0 0 0 2.708-1.122 3.81 3.81 0 0 0 1.102-2.356 3.804 3.804 0 0 0 3.74-.977 3.796 3.796 0 0 0 1.114-2.55c.248.05.503.076.761.076a3.804 3.804 0 0 0 2.707-1.121 3.799 3.799 0 0 0 1.094-2.26 3.828 3.828 0 0 0 3.89-6.347.937.937 0 0 0-1.325 0z"/>
            </g>
            <path d="M48 17.156a7.47 7.47 0 1 0 0 14.94 7.47 7.47 0 0 0 0-14.94zm4.68 6.478l-2.078 1.51a.53.53 0 0 0-.192.592l.794 2.443a.529.529 0 0 1-.814.592l-2.079-1.51a.53.53 0 0 0-.622 0l-2.078 1.51a.529.529 0 0 1-.815-.592l.794-2.443a.53.53 0 0 0-.192-.592l-2.079-1.51a.529.529 0 0 1 .311-.957h2.57a.53.53 0 0 0 .503-.366l.794-2.443a.53.53 0 0 1 1.006 0l.794 2.443a.53.53 0 0 0 .503.366h2.57c.513 0 .726.656.31.957z" fill="#DA4A48"/>
        </g>
    </g>
</svg>
