<svg width="1036" height="533" viewBox="0 0 1036 533" xmlns="http://www.w3.org/2000/svg">
    <title>
        Elements
    </title>
    <g fill="#FFF" fill-rule="evenodd">
        <path d="M948.624 73.005a8.22 8.22 0 0 0-2.39-1.915c-.41-.216-.66.437-.27.658.84.48 1.57 1.137 2.13 1.935-.84 1.045-1.77 2.036-2.72 2.995a5.355 5.355 0 0 0-1.4-1.516c-.3-.226-.66.23-.36.459.52.398.96.877 1.27 1.46l.03.06c-.61.605-1.24 1.2-1.86 1.788-.36.348-.74.691-1.11 1.031-.77-1.036-1.72-1.965-2.56-2.915-.26-.302-.76.069-.5.38.83.978 1.61 2.079 2.54 2.994-1.49 1.308-3.07 2.525-4.8 3.498-.12.07-.25.138-.37.205-.57-.452-1.3-.804-1.83-1.239-.9-.726-1.65-1.588-2.29-2.544-.2-.29-.61.024-.44.314a12.21 12.21 0 0 0 2.17 2.729c.41.384.93.86 1.49 1.197-1.87.901-3.88 1.508-5.97 1.667-1.33.101-2.87.153-3.92-.81-.84-.784-1.46-2.018-1.91-3.06-1.34-3.081-1.7-6.465-2.28-9.74-.3-1.686-.65-3.403-1.3-4.98a54.406 54.406 0 0 1 7.14-5.821c2.61-1.782 5.47-3.095 8.21-4.631.52.131 1.03.259 1.54.393-4.14 1.292-7.89 3.782-10.26 7.485-.11.163.14.308.27.182 3.2-3.248 6.89-5.911 11.24-7.31.75.231 1.49.501 2.21.856 2.11 1.041 4.11 2.4 6.03 3.754 1.69 1.193 3.63 2.708 4.07 4.855.42 2.043-.61 3.979-1.8 5.586zm-29.14-6.407c1.76-1.641 3.59-3.188 5.58-4.572a42.36 42.36 0 0 1 2.89-1.838c-.42.275-.84.555-1.25.838a36.426 36.426 0 0 0-6.92 6.179c-.1-.205-.19-.408-.3-.607zm-6.53 2.049c-1.88 1.612-4.11 3.097-6.69 2.976-2.09-.097-3.93-1.253-5.29-2.781-3.11-3.485-4.2-8.322-4.29-12.88-.12-5.476 1.32-10.722 3.93-15.325 3.43-3.864 7.04-7.57 11.75-9.888 4.69-2.314 9.96-3.02 15.11-2.114 5.07.892 10.23 3.386 13.72 7.222 1.76 1.934 3.27 4.41 3.2 7.114-.08 2.648-1.6 4.973-3.52 6.701-2.15 1.941-4.79 3.176-7.4 4.361-2.69 1.218-5.34 2.456-7.85 4.013-2.38 1.475-4.65 3.126-6.75 4.978-2.04 1.802-3.85 3.85-5.92 5.623zm36.86-7.344c-2.38-2.132-5.19-3.942-8.05-5.368-.85-.425-1.79-.861-2.78-1.201a22.542 22.542 0 0 0 3-1.97c4.77-3.737 6.99-9.644 4.17-15.297-2.65-5.328-8.28-9.217-13.83-11.044-6.5-2.141-13.63-1.878-19.91.87-2.59 1.135-5.13 2.721-7.28 4.696-6.36 5.338-10.38 13.635-11.03 21.785-.43 5.261.43 10.793 3.35 15.27 2.96 4.535 8.22 6.982 13.4 4.603 2.63-1.211 4.76-3.27 6.79-5.284.22-.216.44-.429.66-.642.49 2.125.9 4.258 1.17 6.439.35 2.917.64 5.905 1.62 8.697.91 2.627 2.39 5.301 5.29 5.983 2.94.694 6.26-.049 9.01-1.157 3.01-1.215 5.71-3.121 8.14-5.257 2.31-2.032 4.57-4.234 6.57-6.578 1.76-2.058 3.33-4.566 3.37-7.353.04-2.913-1.56-5.313-3.66-7.192z"/>
        <path d="M898.125 503.39c-2.095-.427-3.644-2.21-4.92-3.855a69.529 69.529 0 0 1-5.176-7.694c-1.451-2.497-2.888-5.078-3.973-7.76-.69-1.704-1.146-3.61-.664-5.375a171.454 171.454 0 0 0 3.032 6.067 152.005 152.005 0 0 0 3.674 6.575 170.122 170.122 0 0 0 1.989 3.305c.62 1.005 1.209 2.05 2.132 2.803a.407.407 0 0 0 .654-.427c-.331-1.257-1.111-2.34-1.783-3.442a190.42 190.42 0 0 1-1.975-3.315 235.76 235.76 0 0 1-3.668-6.574 196.744 196.744 0 0 1-2.47-4.734c1.895.801 3.387 2.3 4.784 3.83a32.04 32.04 0 0 1 4.545 6.397c2.358 4.371 3.723 9.233 3.819 14.198zm-20.102-11.399c1.22-.432 2.26-1.72 1.767-3.049-.083-.223-.34-.246-.478-.062-.474.627-.975 1.352-1.696 1.71.193-1.098-.12-2.208-.492-3.284.908.041 1.822.201 2.628.563 1.293.582 2.34 1.581 3.234 2.662 1.723 2.086 2.87 4.59 3.624 7.174.792 2.717 1.14 5.542 1.23 8.365.087 2.733.097 5.59-.735 8.22-.76 2.393-2.257 5.178-4.676 6.231-2.366 1.03-5.003-.227-6.634-1.994-1.801-1.952-2.871-4.607-3.676-7.105a32.312 32.312 0 0 1-1.544-8.46c-.135-3.04.069-6.197.87-9.144.38-1.395.914-2.783 1.736-3.98.567-.825 1.275-1.474 2.043-2.074.284 1.136.673 2.273 1.464 3.057-.665.025-1.324-.224-1.887-.6-.24-.162-.478.146-.367.37.649 1.298 2.222 1.883 3.589 1.4zm-8.032 18.14c-.39 2.161-.786 4.183-1.942 6.103-1.194 1.985-2.743 3.812-4.457 5.365-3.161 2.866-8.004 4.884-12.043 2.513-4.291-2.518-3.7-8.268-2.297-12.29 1.448-4.15 3.908-7.922 7.057-10.983 1.879-1.827 4.024-3.44 6.342-4.67a9.544 9.544 0 0 1 2.64-.949c-.087.254-.176.508-.258.763-.32.993-.796 2.252-.9 3.42-.672-.58-1.306-1.24-1.96-1.837-.197-.179-.517.042-.378.287.678 1.202 1.323 2.817 2.689 3.403 1.069.46 2.45-.017 2.517-1.297.018-.346-.493-.58-.75-.354-.24.213-.5.33-.762.363.505-.84.816-1.898 1.162-2.716.288-.682.56-1.37.832-2.06.695.143 1.33.46 1.843 1.004-.276 1.585-.4 3.2-.43 4.79a33.551 33.551 0 0 0 1.095 9.145zm-1.64-17.108c1.159-2.798 2.388-5.558 3.768-8.255a108.58 108.58 0 0 1 1.812-3.384c.027.575.155 1.158.256 1.707.18.98.393 1.963.63 2.931.055.22.107.448.159.68-2.182.894-3.658 3.274-4.504 5.37a19.45 19.45 0 0 0-.967 3.2 4.615 4.615 0 0 0-1.626-1.084c.155-.389.31-.778.472-1.165zm-1.334-10.575c-1.584 1.436-3.335 2.711-5.043 3.994-3.823 2.873-7.866 5.598-12.461 7.067-1.752.56-4.241 1.368-6.054.583-2.393-1.038-.324-3.63.837-4.743 3.3-3.166 7.12-5.782 11.22-7.8 2.278-1.123 4.669-2.09 7.122-2.757 1.135-.309 2.28-.574 3.46-.637.985-.052 1.924.087 2.873.26a361.816 361.816 0 0 1-5.316 2.68c-2.306 1.135-4.604 2.287-6.92 3.402a390.077 390.077 0 0 1-3.396 1.614c-1.19.558-2.171 1.261-3.245 2.003-.222.153-.097.527.188.452 1.128-.298 2.22-.54 3.29-1.03 1.196-.548 2.376-1.13 3.558-1.705 2.308-1.122 4.61-2.255 6.879-3.456a359.659 359.659 0 0 0 5.258-2.844c-.546 1.08-1.255 2.015-2.25 2.917zm28.103 5.332a33.022 33.022 0 0 0-5.126-6.824c-1.464-1.489-3.47-3.628-5.734-3.424l-.258-.518c-1.048-2.118-1.968-4.425-3.3-6.388.262-.372.525-.744.79-1.113 1.96-2.72 4.008-5.434 6.157-8.006.245-.294-.147-.686-.43-.418-2.2 2.094-4.276 4.207-6.221 6.545-1.951 2.345-3.76 4.806-5.465 7.336a.333.333 0 0 1-.016.024c-1.59.727-5.556 2.84-5.585 2.928l-.238.122c-1.845-1.11-4.387-.896-6.412-.515-2.516.475-4.998 1.408-7.336 2.433-4.755 2.085-9.283 5.058-12.941 8.76-1.321 1.336-2.697 3.364-1.614 5.258.902 1.58 2.95 1.803 4.588 1.622 5.369-.592 10.36-3.495 14.697-6.536 2.356-1.652 4.718-3.385 6.89-5.276 1.537-1.337 3.274-3.133 3.504-5.249 1.094-.6 2.225-1.19 3.322-1.83-2.925 4.575-5.421 9.418-7.528 14.423-.366.871-.72 1.752-1.055 2.641a6.212 6.212 0 0 0-.273.002c-2.708.09-5.286 1.8-7.405 3.353-4.22 3.092-7.555 7.323-9.662 12.104-1.994 4.524-3.361 10.883.425 14.905 3.605 3.83 9.67 3.195 13.714.5 2.55-1.7 4.709-4.046 6.438-6.565.826-1.204 1.696-2.675 2.142-4.197.732 1.916 1.666 3.767 2.924 5.352 1.723 2.174 4.39 3.74 7.237 3.405 3.008-.355 5.147-2.887 6.42-5.446 1.475-2.965 1.847-6.092 1.879-9.369.03-3.213-.218-6.465-.986-9.592-.843-3.43-2.39-6.774-4.788-9.398-1.727-1.89-4.66-3.78-7.236-2.917l-.037-.114c-.287-.903-.602-1.797-.893-2.699-.298-.926-.56-2.009-1.18-2.775a120.428 120.428 0 0 1 5.748-9.088c.575 2.227 1.666 4.387 2.635 6.454-1.19 1.664-.9 3.912-.338 5.845.92 3.171 2.592 6.227 4.235 9.073 1.668 2.89 3.514 5.712 5.592 8.324 1.593 2.003 3.669 3.957 6.38 3.997.356.005.804-.23.796-.649-.117-5.764-1.6-11.48-4.456-16.5z"/>
        <path d="M1015.508 243.48c7.83 3.723 13.32 10.943 16.55 18.828 3.57 8.744 4.99 18.608 2.71 27.866-4.07 16.455-19.17 28.238-35.75 29.936-8.91.913-18.36-.664-26.24-5.01-4.17-2.296-7.65-5.562-10.68-9.197-2.91-3.48-5.43-7.356-7.08-11.595-3.06-7.867-2.97-17.486 2.57-24.276 5.04-6.17 12.88-9.5 20.11-12.652 5.1-3.988 9.22-9.156 14.68-12.719 7-4.57 15.65-4.742 23.13-1.18zm-19.71 1.542c-2.31 1.142-4.3 2.64-6.21 4.338-1.09.963-2.18 1.926-3.26 2.89-.44.384-2.95 2.106-2.95 2.612-2.54 2.251-4.93 4.523-8.01 6.027-4 1.956-8.25 3.342-11.83 6.084-3.1 2.38-5.66 5.46-7.04 9.147-3.01 8.011-.65 16.81 3.81 23.773 2.37 3.695 5.33 7.194 8.7 10.025 3.4 2.868 7.44 4.835 11.65 6.221 8.2 2.7 17.15 2.947 25.47.588 15.65-4.44 27.19-18.829 27.36-35.196.17-15.947-8.51-36.199-26.33-38.364-3.9-.476-7.82.105-11.36 1.855zm-8.8 24.045c3.46 4.46 1.48 10.192 3.53 15.08 1.73 4.133 6.35 5.945 8.98 9.391 2.73 3.59 3.31 8.57 1.38 12.661-2.01 4.26-6.16 6.826-10.8 7.153-5.09.36-10.77-.614-14.85-3.82-7.44-5.835-11.53-15.683-11.55-25-.01-4.759 1-10.02 4.06-13.817 2.16-2.68 5.12-4.51 8.43-4.933 3.76-1.522 8.25-.025 10.82 3.285zm-10.8-1.96c-3.7 1.081-6.75 4.033-8.43 7.478-2.12 4.356-2.43 9.54-1.73 14.274a31.733 31.733 0 0 0 4.21 11.764c2.15 3.584 5.16 7.268 9.02 9.082 2.1.99 4.41 1.344 6.71 1.542 2.43.21 5 .258 7.31-.648 3.65-1.427 6.3-4.953 6.5-8.878.224-4.271-2.127-7.325-5.202-9.92l-.546-.455c-2.776-2.313-5.27-4.66-6.082-8.36-.86-3.963.09-8.437-2.06-12.066-2.04-3.454-6-4.46-9.7-3.814zm14.61 27.797c.2-.05.41-.009.61.184.93.93 1.19 2.62 1.35 3.884.21 1.565.14 3.178-.19 4.72-.44 2-1.6 4.78-4.16 4.135-5.66-1.427-.96-11.144 1.87-13.188.21-.147.5.04.52.265zm-.48 1.315c-.58 1.297-1.31 2.531-1.84 3.854-.61 1.54-1.85 4.411-.27 5.72 2.02 1.672 2.83-2.573 2.97-3.784.19-1.696.15-4.31-.86-5.79zm3.95-.246c.21 2.49.88 5.047.88 7.54 0 .25-.32.255-.4.052-.92-2.295-.97-5.116-1.14-7.559-.03-.424.62-.452.66-.033zm13.18-44.139c2.87.86 5.77 2.053 8.41 3.464 2.59 1.387 4.49 3.48 6.05 5.946 5.4 8.527 8.78 19.9 5.69 29.846-1.4 4.498-4.53 8.584-9.19 9.95-4.01 1.174-8.46-.517-10.97-3.798a9.825 9.825 0 0 1-2.05-5.647c-.12-2.668.74-5.259.74-7.919 0-5.628-5.24-8.859-9.65-11.16-1.98-1.03-4.04-2.1-5.44-3.895-1.32-1.69-1.86-3.842-1.65-5.962.38-3.815 3.27-7.745 6.47-9.72 3.63-2.24 7.62-2.297 11.59-1.105zm-15.96 13.78c.76 2.29 2.82 3.611 4.85 4.682 2.24 1.183 4.54 2.26 6.58 3.787 3.28 2.46 5.5 5.933 5.34 10.136-.15 4.29-1.96 8.63 1.31 12.241 2.72 3.003 6.97 3.674 10.46 1.615 3.93-2.315 5.74-6.948 6.27-11.278.57-4.717-.22-9.352-1.68-13.836-1.37-4.195-3.31-8.636-5.92-12.218-1.41-1.937-3.26-3.263-5.38-4.338-2.17-1.1-4.4-2.112-6.75-2.75-7.03-1.908-17.89 3.446-15.08 11.96zm-2.13 26.573c-1.42 2.077-2.87 4.215-4.9 5.742-.18.131-.43-.034-.31-.244 1.19-2.219 3-4.036 4.71-5.862.23-.254.71.065.5.364zm-4.08-3.889c.23.04.33.345.22.537.07.127.1.277.07.44-.26 1.17-1.37 2.085-2.18 2.927-.92.952-1.91 1.827-3.03 2.532-1.6 1.001-4.76 2.427-6.1.281-1.27-2.039.79-4.48 2.48-5.46 1.09-.637 2.31-.87 3.56-1.02 1.63-.196 3.34-.514 4.98-.237zm-2 1.302c-1.31.26-2.67.35-3.97.684-.95.245-1.83.681-2.53 1.388-.54.553-1.49 1.688-.84 2.381 1.07 1.122 4.03-1.192 4.88-1.923.73-.623 1.4-1.312 2.03-2.026.15-.165.29-.336.43-.504zm30.407 2.613l.073.004c1.35.23 3.12.581 4.1 1.596.14.14-.01.342-.18.306-.63-.13-1.2-.448-1.79-.684-.73-.293-1.49-.502-2.26-.659-.308-.063-.257-.474-.01-.551l.067-.012zm4.013-5.964c1.37.486 3.58 1.461 2.97 3.255-.64 1.89-2.88 2.333-4.57 1.682-1.84-.713-3.51-2.416-4.25-4.243-.2-.135-.27-.453-.09-.634 1.29-1.29 4.41-.603 5.94-.06zm-4.64.94c.75.763 1.59 1.5 2.44 2.09.67.455 1.43.832 2.25.813.81-.02 2.29-.856 1.35-1.647-1-.842-2.53-1.216-3.79-1.339-.7-.068-1.5.086-2.25.083zm-15.69-9.56c-.46-.245-.11-.958.35-.724 4.14 2.076 5.85 6.906 5.14 11.31-.03.164-.31.16-.33-.005-.5-4.039-1.23-8.467-5.16-10.58zm-4.7 2.615c.78 2.928 2.38 5.156 4.1 7.582.09.137-.11.332-.24.23-2.35-1.832-3.68-4.838-4.33-7.677-.07-.308.39-.443.47-.135zm-8.65 3.85c.39-.005.41.572.03.601-1.34.101-2.65.317-3.95.647-.91.233-1.81.598-2.76.66-.28.018-.32-.332-.13-.47 1.77-1.335 4.69-1.409 6.81-1.438zm-4.98-8.909c1.77.478 4.69 1.927 5.03 3.995.68.112 1.18 1.057.49 1.634-.91.77-2.39.601-3.52.62-1.38.021-2.76-.078-4.1-.446-1.83-.5-4.74-2.115-3.66-4.457.95-2.068 3.97-1.826 5.76-1.346zm40.123 3.487l.377.002c.18.006.28.278.09.358-1.86.797-4.07.997-6.03 1.547-.32.091-.46-.397-.14-.499 1.645-.527 3.535-1.26 5.322-1.39l.381-.018zm-43.623-1.776c-2 1.04 1.98 2.368 2.79 2.506.81.138 1.64.18 2.46.182.58.001 1.97.19 2.51-.146-1.08-.6-1.94-1.592-3.12-2.095-1.28-.545-3.32-1.135-4.64-.447zm43.9-5.62c1.47 1.9-.85 3.641-2.35 4.424-1.02.53-2.11.938-3.24 1.124-1.04.17-2.4.418-3.43.238-.32-.057-.5-.468-.34-.745 0-.026.01-.053.02-.082.81-2.112 2.35-3.51 4.25-4.682 1.47-.906 3.74-2.017 5.09-.277zm-3.75 1.108c-.58.32-1.14.68-1.68 1.063-.9.646-1.79 1.36-2.55 2.177.72-.123 1.52-.067 2.23-.195 1.37-.247 3.5-.955 4.36-2.134.44-.604.25-1.374-.52-1.515-.57-.105-1.37.344-1.84.604zm-37.955-1.518h.055c2.08.27 4.21 1.556 6.08 2.467.41.203.08.77-.32.62-1.96-.72-4.34-1.373-5.99-2.698-.163-.134-.04-.326.12-.378l.055-.011zm36.235-6.147c-1.34 2.591-3.67 4.786-5.61 6.935-.15.161-.43-.062-.3-.236 1.71-2.339 3.39-5.06 5.65-6.912a.17.17 0 0 1 .26.213zm-5.83-4.757c1.49 1.316.15 4.2-.61 5.582a12.97 12.97 0 0 1-2.07 2.743c-.56.57-1.14 1.34-2 1.165-.12-.024-.22-.16-.22-.282.01-.177.03-.308.07-.422-.02-.036-.05-.075-.06-.119-.41-1.158-.35-2.628-.31-3.848.04-1.168.29-2.363.87-3.385.82-1.415 2.82-2.77 4.33-1.434zm-2.15 1.243c-.4.242-.73.73-.94 1.131-.35.686-.49 1.457-.56 2.218-.1.97.02 2.048-.12 3.045.41-.404.81-.818 1.18-1.278.95-1.21 1.69-2.63 1.79-4.19.06-.818-.49-1.447-1.35-.926zm-7.49-2.875c.04 1.024-.23 2.03-.3 3.05a15.25 15.25 0 0 0 .24 4.21c.07.332-.41.485-.51.151-.66-2.222-1.22-5.425.07-7.535.13-.223.48-.143.5.124z"/>
        <path d="M74.073 291.985c-2.081 2.742-4.491 5.218-6.52 7.999-2.104 2.884-4.025 5.895-5.837 8.97a136.34 136.34 0 0 0-5.271 9.847c-1.373 2.838-2.594 5.76-4.114 8.525-1.738 3.157-3.918 6.16-7.195 7.836a13.192 13.192 0 0 1-4.588 1.362c3.443-2.451 6.29-5.848 7.597-9.902.055-.174-.21-.298-.298-.132-2.097 3.934-4.691 7.445-8.292 10.1-.96.03-1.92-.045-2.861-.235 2.61-2.232 4.804-4.94 6.602-7.864 1.957-3.186 3.596-6.625 4.207-10.338.033-.201-.222-.277-.302-.09-1.484 3.456-2.916 6.942-4.944 10.125-1.367 2.147-2.927 4.137-4.591 6.045 1.516-1.96 2.743-4.17 3.714-6.432 1.402-3.264 2.489-6.651 3.424-10.076.512-1.874 1.02-3.75 1.537-5.622.23-.842.463-1.683.712-2.52.345-1.155.408-2.32.558-3.51.068-.532-.558-.875-.945-.47-1.015 1.067-1.846 2.066-2.435 3.43a40.243 40.243 0 0 0-1.695 4.683c-.831 2.848-1.467 5.75-2.265 8.607-1.451 5.2-3.932 10.768-8.572 13.874-3.99 2.67-10.051 3.173-13.61-.554-4.252-4.457-3.273-11.207-2.42-16.711.57-3.667 1.094-7.334 1.473-11.026.182-1.778.41-3.551.623-5.325.235-1.951.3-3.923.543-5.867.066-.536-.721-.748-.837-.195-.38 1.805-.931 3.574-1.318 5.383-.402 1.879-.791 3.76-1.233 5.63-.865 3.658-1.564 7.343-2.224 11.04-.69 3.869-1.344 8.218-.664 12.209l-.148-.064c-.52-2.643-.923-5.317-.927-8.016-.003-2.934.606-5.693.984-8.58.036-.273-.347-.486-.492-.194-1.343 2.72-1.68 6.088-1.65 9.085.026 2.478.364 4.942 1.163 7.278a8.552 8.552 0 0 1-1.52-.956 13.259 13.259 0 0 1-1.737-1.688 11.425 11.425 0 0 1-.878-3.401c-.19-1.863.216-3.566.63-5.362.06-.257-.285-.4-.425-.176-1.267 2.023-1.398 4.539-.807 6.877l-.022-.036c-1.981-3.356-2.174-7.36-1.818-11.15.429-4.567 1.737-9.014 2.02-13.593a59.218 59.218 0 0 0-.657-13.273c-.703-4.29-2.093-8.433-2.473-12.781a29.83 29.83 0 0 1 .922-10.311c1.804-6.731 6.18-12.867 12.564-15.905a20.902 20.902 0 0 1 11.35-1.873c.519.059 1.027.143 1.528.24-1.881.596-3.63 1.683-5.241 2.898-3.117 2.349-6.665 5.213-8.53 8.71-.11.205.16.44.33.26 2.447-2.585 4.958-4.935 7.738-7.164 2.23-1.788 4.683-3.478 7.43-4.282 1.247.362 2.445.835 3.61 1.402-2.174.584-4.302 1.946-5.997 3.202-2.466 1.826-4.603 4.105-6.336 6.633-3.79 5.526-6.113 12.594-6.062 19.312.002.269.405.32.47.057 1.635-6.476 2.82-12.967 6.578-18.644 1.6-2.418 3.56-4.601 5.848-6.387a24.995 24.995 0 0 1 3.74-2.393c.896-.472 1.853-.833 2.77-1.261.453.244.903.5 1.348.769-4.77 2.19-8.81 5.783-11.756 10.192-2.318 3.468-3.99 7.542-4.89 11.61-.912 4.125-1.447 8.536-.942 12.749.042.35.599.492.673.08.614-3.41 1.027-6.83 1.91-10.191.864-3.277 1.982-6.524 3.568-9.524 3.006-5.687 7.484-10.446 13.546-12.845 5.599-2.216 12.087-2.39 17.349.817 6.159 3.754 6.875 11.599 6.01 18.11-.473 3.569-1.397 6.936-2.887 10.218-.927 2.04-2.076 3.993-3.314 5.859-.477.719-.998 1.406-1.504 2.105-.585.809-1.003 1.699-1.526 2.55-.281.458.316 1.103.796.866 6.538-3.236 10.004-11.09 11.38-17.924.752-3.726.609-7.397.067-11.136a34.207 34.207 0 0 0-.263-1.558c.95.515 1.955.922 2.902 1.47.1.059.2.123.302.182.184 1.675-.081 3.473-.242 5.055-.235 2.297-.571 4.575-1.081 6.827-1.11 4.9-3.01 9.343-5.01 13.922-.078.177.197.274.297.132 3.039-4.32 4.928-9.663 6.058-14.79.578-2.622.959-5.281 1.076-7.965.038-.854.048-1.704-.043-2.526.84.544 1.659 1.13 2.417 1.773.272.23.536.47.794.716 1.22 5.6-1.876 11.248-2.467 16.777-.021.204.312.295.395.107.668-1.504 1.052-3.153 1.5-4.733.477-1.683.964-3.361 1.302-5.078.412-2.09.553-4.163.149-6.174a17.431 17.431 0 0 1 3.463 5.612c2.432 6.47.806 13.287-3.291 18.686zm-23.705-46.05a24.825 24.825 0 0 1 2.37-3.24c1.838-2.123 3.97-4.01 6.38-5.456 4.355-2.61 9.327-3.592 14.306-3.307-.663 1.38-.846 2.942-.808 4.56.013.543.048 1.295.197 2.016-.38-.087-.788-.114-1.193-.141a26.018 26.018 0 0 0-3.397-.01c-2.3.155-4.543.609-6.723 1.355-2.097.718-4.097 1.654-5.96 2.857-1.315.849-3.17 1.992-4.176 3.424-.107-.017-.216-.03-.323-.044 1.67-2.903 3.975-5.414 6.758-7.287 2.903-1.954 6.144-3.05 9.505-3.921.204-.053.164-.36-.045-.364-7.152-.175-13.913 5.24-16.932 11.474a21.837 21.837 0 0 0-.988-.091c.339-.611.664-1.231 1.029-1.824zm23.915-8.181c.085-1.236.483-2.476.908-3.67.203.025.406.052.608.08.453 2.02.818 4.527-.404 6.219-.128.178-.428.675-.721.536-.126-.061-.21-.777-.24-.934a8.609 8.609 0 0 1-.151-2.231zm6.449 36.364c-.991-3.69-3.058-7.038-5.842-9.645-1.312-1.227-2.812-2.376-4.456-3.118-1.645-.742-3.496-1.522-5.328-1.32-.681-2.518-1.767-4.9-3.572-6.867-2.152-2.347-4.932-3.87-7.94-4.697a35.851 35.851 0 0 1 3.169-2.037 30.221 30.221 0 0 1 5.732-2.503 33.373 33.373 0 0 1 5.98-1.284 28.652 28.652 0 0 1 3.22-.203c.679-.004 1.3.023 1.864-.244.315.343.736.55 1.3.527 1.823-.08 2.94-2.324 3.326-3.852.524-2.07.21-4.128-.1-6.203-.064-.427-.516-.782-.905-.888-6.482-1.756-13.704-.478-19.396 3.007a24.582 24.582 0 0 0-6.978 6.4c-1.358 1.845-2.823 4.163-3.363 6.517a24.496 24.496 0 0 0-5.172.62 25.53 25.53 0 0 0-4.044 1.299c-1.171-1.265-2.566-2.258-4.098-3.011a.12.12 0 0 0-.097-.07c-.023-.003-.045-.004-.067-.008-4.517-2.16-10.187-2.276-14.85-1.17-7.547 1.794-13.442 7.377-16.491 14.419a32.155 32.155 0 0 0-2.595 11.298c-.206 4.517.744 8.83 1.549 13.247.898 4.926 1.43 9.876 1.26 14.889-.168 4.912-.965 9.708-1.423 14.589-.45 4.796-.096 9.585 2.46 13.78 1.767 2.902 5.158 5.852 8.734 5.529.523 1.578 1.318 3.066 2.48 4.404 3.799 4.375 9.795 4.725 14.929 2.695 2.027-.802 3.8-1.991 5.344-3.436-.14.216.12.556.353.375.034-.026.067-.054.1-.081 5.053 3.504 12.009.255 15.932-3.651 2.686-2.675 4.655-5.993 6.36-9.353 1.74-3.43 3.483-6.851 5.415-10.18 3.836-6.607 8.333-12.791 12.494-19.19 2.06-3.17 4.047-6.374 4.919-10.097.808-3.448.714-7.071-.203-10.487z"/>
        <path d="M217.999 514.679c-1.522.273-3.033.192-4.528.543a.438.438 0 0 0-.204.104c-.248.07-.43.348-.335.609.493 1.359 1.868 2.269 2.168 3.714.516 2.493-3.317.582-4.258.18-3.271-1.4-6.426-3.207-9.39-5.177-.48-.32-.963.437-.564.81.149.14.299.275.449.41a.31.31 0 0 0-.023.137c.107 1.255 1.268 2.174 2.019 3.099 1.079 1.329 2.11 2.747 2.929 4.252.255.469 1.05 1.795.678 2.339-.302.44-1.305.148-1.698.005-.85-.311-1.527-.878-2.093-1.552-.19-.527-.444-.981-.758-1.304-.426-.44-1.216.053-1.127.616.232 1.467.68 2.702.195 4.204-.245.76-.62 1.595-1.515.975-.36-.248-.578-.807-.737-1.196-.731-1.793-.9-3.72-2.588-4.934-.436-.313-1.13-.182-1.415.275-.724 1.156-2.43 3.125-3.086.77-.412-1.478-.358-3.108-.384-4.63-.033-1.964.218-4.89-.827-6.781a34.264 34.264 0 0 1 5.483-.945c2.404-.212 4.874-.332 7.28-.112 1.203.11 2.407.278 3.594.5 1.15.217 2.25.583 3.429.547.21-.007.369-.287.192-.447-1.772-1.595-4.775-2.102-7.062-2.522-2.694-.494-5.34-.726-8.073-.487a34.355 34.355 0 0 0-5.736.989c.383-.987.634-2.053.984-3.02.545-1.507 1.094-3.014 1.727-4.488.3-.701.617-1.396.948-2.083.242-.501.658-1.745 1.308-1.875.799-.16 1.68 1.15 1.984 1.698.324.588.517 1.203 1.029 1.659a.524.524 0 0 0 .808-.15c.01-.018.018-.038.027-.057 1.482-.92 2.793-2.047 4.406-2.798.23-.107.913-.524 1.184-.282.108.096-.126 1.01-.163 1.217-.127.704-.34 1.399-.38 2.113-.054.206-.056.417.013.633.05.163.239.225.372.11.957-.832 2.39-1.54 3.554-2.034.613-.26 1.28-.501 1.95-.54.492-.027.822-.15.766.392-.038.367-.372.727-.576 1.01a27.214 27.214 0 0 1-2.427 2.932c-.901.944-2 1.715-2.451 2.983-.058.164.1.393.283.37l.022-.004a.349.349 0 0 0 .359.122c2.908-.637 5.676-1.684 8.629-2.177.495-.083 1.187-.291 1.686-.151.892.25.21.963-.226 1.393-1.086 1.067-2.295 2.02-3.412 3.055-.566.524-.235 1.653.642 1.476 1.52-.306 3.053-.298 4.583-.04.856.146 3.929.632 4.046 1.838.118 1.222-2.952 1.575-3.69 1.707zm-42.58 1.524c-.66 2.22-1.512 4.325-2.645 6.349-.835 1.49-2.34 4.392-4.453 3.919-1.343-.3-1.124-1.8-.986-2.855.15-1.15.398-2.26.473-3.413a.663.663 0 0 0 .017-.433c-.011-.203-.161-.325-.334-.355-.72-.412-1.328-.118-2.12.182-1.144.436-2.506.84-2.687-.842-.201-1.868.866-3.363 1.706-4.91.194-.183.366-.39.502-.63.135-.24.032-.488-.161-.623a.292.292 0 0 0-.176-.086c-.004-.001-.01-.001-.014-.003l-.015-.002a.54.54 0 0 0-.106-.013c-.895 0-1.553.487-2.324.905-.822.445-1.65.88-2.485 1.3-1.697.856-3.427 1.738-5.235 2.332-1.338.439-3.92 1.134-5.04-.15-1.406-1.606 1.374-3.207 2.107-4.354.099-.155-.021-.373-.205-.372a3.516 3.516 0 0 0-.397.029.408.408 0 0 0-.238-.151c-1.593-.335-3.477.548-5.012-.19-1.066-.51-.207-1.364.362-1.951.497-.513 1.032-.99 1.594-1.432 1.155-.908 2.459-1.652 3.799-2.253.924-.415 2.174-.666 3.037-1.284.133-.001.262-.007.378-.023.29-.041.579-.387.354-.673a4.456 4.456 0 0 0-1.374-1.161c-.28-.156-.58-.28-.864-.426-.37-.192-.605-.221-.551-.554.076-.478 1.153-1.06 1.546-1.28.64-.356 1.35-.636 2.054-.841 2.193-.637 4.56-.641 6.822-.27.46.329.952.549 1.452.582.328.02.516-.37.437-.64-.313-1.056-1.364-1.738-2.016-2.602-.266-.353-1.164-1.51-.877-2.022.267-.48 1.38.057 1.723.185 1.986.746 3.48 2.107 5.02 3.504.06.102.122.204.19.304.259.382.758.168.794-.244.18-2.03-.193-4.018.19-6.048-.01.045.103-.985.344-.982.238.004.846 1.335.966 1.544a47.374 47.374 0 0 1 1.468 2.752c1.954 3.977 3.293 8.246 4.433 12.527a40.974 40.974 0 0 0-4.025-1.546c-4.543-1.473-9.198-1.898-13.94-1.583-.457.03-.432.667.014.704 4.44.368 8.883 1.507 13.053 3.046a42.696 42.696 0 0 1 4.903 2.174c-.808 1.425-1.02 3.386-1.458 4.859zm12.992-29.045c-1.485.16-2.995.056-4.468-.166-.665-.1-4.278-.445-4.31-1.29-.016-.44 1.208-1.405 1.997-2.011.329-.16.59-.386.738-.702.059-.123.08-.295-.01-.412-.8-1.044-2.491-.571-3.653-.59-1.05-.016-3.262.116-4.344-.544.402-.686 1.598-1.37 2.113-1.633.907-.463 1.916-.6 2.775-1.175.169-.114.164-.317.008-.44-.047-.037-.098-.067-.147-.1.03-.233-.026-.47-.195-.631-.957-.914-1.98-1.732-2.883-2.707-.525-.568-1.025-1.157-1.39-1.843a4.045 4.045 0 0 1-.41-1.062 2.229 2.229 0 0 1-.07-.66c-.086-.28-.027-.343.178-.193.472-.241 1.758.236 2.199.38.812.269 1.577.646 2.339 1.03 1.055.536 2.042 1.188 3.072 1.76.188.263.395.5.62.703.153.136.377.086.445-.111l.013-.045c.3.102.644-.198.449-.511a7.615 7.615 0 0 0-.35-.508c-.055-.562-.26-1.113-.44-1.67-.208-.642-.422-1.332-.36-2.02l.045-.213c.228.11.473.233.5.25.939.56 1.7 1.358 2.333 2.24.435.608.806 1.29 1.252 1.9.208.592.518 1.118 1.01 1.432.155.098.398.033.48-.131.355-.706.158-1.336.03-2.093-.152-.914-.276-1.837-.143-2.761.09-.624.117-.994.738-.463.23.197.402.509.579.755.539.75 1.032 1.53 1.487 2.334a31.684 31.684 0 0 1 2.027 4.274c.358.933.655 1.886.94 2.843.188.632.282 1.176.56 1.647-.357.69-.714 1.382-1.07 2.075-.69-1.247-1.613-2.275-2.8-3.19-.912-.703-1.887-1.337-2.87-1.938-.787-.481-1.731-1.261-2.703-1.123-.216.03-.368.19-.315.42.18.788.82 1.206 1.48 1.634 1.043.676 2.147 1.249 3.18 1.94 1.29.865 2.634 1.933 3.528 3.239-.24.472-.481.943-.72 1.416-1.166.064-2.298.538-3.464.664zm3.515-21.793c.015-.384.173-.38.473.013l.292.275c.348.337.622.72.9 1.113.344.485.62.937 1.153 1.227.115.062.266.019.306-.115.033-.115.05-.233.06-.353a.344.344 0 0 0 .073-.112c.495-1.234.054-2.951.092-4.263.048-1.665.299-3.34.74-4.946.099-.358.35-1.816.682-2.001.553-.31 1.123.959 1.303 1.354.526 1.156.489 2.59 1.01 3.72-.012.097-.027.192-.037.288-.047.43.49.747.768.41a.297.297 0 0 0 .093-.064c.274-.291.438-.684.513-1.136.778-1.606 1.542-3.207 2.613-4.657 1.296-1.753 2.835-3.32 4.63-4.564.256-.177 1.023-.837 1.352-.593.22.164.074 1.512.072 1.778a18.085 18.085 0 0 1-.382 3.47 21.273 21.273 0 0 1-1.157 3.752c-.383.937-.995 1.857-.915 2.899.02.269.219.423.445.437.085.093.215.137.38.07 1.2-.48 2.392-.965 3.644-1.297a18.07 18.07 0 0 1 1.924-.393c.485-.073 1.287-.265 1.89-.2-.013.91-1.293 2.264-1.734 2.745-.68.74-1.422 1.437-2.19 2.084a18.143 18.143 0 0 1-2.533 1.772c-.974.569-1.984 1.344-3.017 1.782-.853.362-.598 1.73.32 1.78 1.233.07 2.498.066 3.723.233 1.777.24.209 1.478-.565 2.043-1.76 1.287-3.743 2.288-5.802 2.999-1.052.363-2.122.62-3.21.852-.306.065-.71.11-1.134.17.988-2.033 1.968-4.071 2.947-6.11 1.117-2.326 2.419-4.713 2.914-7.266.057-.293-.31-.564-.54-.311-1.644 1.81-2.734 4.105-3.861 6.258-1.141 2.179-2.288 4.356-3.415 6.542l-.351.679c-.3-.99-.865-1.92-1.331-2.827-.82-1.597-1.621-3.198-2.154-4.917a38.975 38.975 0 0 1-.658-2.288c-.127-.521-.63-1.824-.326-2.332zm3.127 13.653c.16.124.325.242.496.342l-.282.542a11.033 11.033 0 0 0-.214-.884zm9.355 1.867c.325-.014 1.696-.23 1.939.01-.067-.064-.727 1.04-.903 1.246-.415.485-.893.86-1.428 1.2-.7.447-.053 1.436.664 1.21 2.708-.853 5.719-1.17 8.528-.74.63.098 1.447.16 2.018.448.799.402.48.855-.02 1.446-.66.779-1.6 1.183-2.322 1.847-.425.036-.803.195-1.087.54-.081.098-.116.225-.05.343.532.924 1.528.884 2.448 1.22.508.185 2.534 1.025 2.905 1.796-.987.63-2.68.75-3.71.717-1.052-.036-2.11-.31-3.126-.651-.386-.655-.94-1.135-1.573-.75-.254.153-.31.474-.301.74.009.333.1.596.18.915.133.522.312.73-.183.948-.69.304-2.01-.21-2.657-.456-1.417-.537-2.377-1.535-3.444-2.456a3.143 3.143 0 0 0-.726-1.054c-.321-.297-.911-.147-1.071.252-.44 1.104.332 2.645-.341 3.61-.814 1.17-2.541-.211-3.233-.848a15.683 15.683 0 0 1-2.106-2.395c-.36-.5-.687-1.074-1.065-1.593.31-.692.63-1.381.948-2.071 1.733.033 3.472.124 5.184.39 1.77.278 3.584 1.092 5.379 1.069.22-.003.378-.301.197-.464-1.467-1.322-3.92-1.627-5.81-1.87a19.008 19.008 0 0 0-4.521-.056c.399-.857.8-1.713 1.208-2.568.895-.177 1.727-.61 2.593-.92a18.217 18.217 0 0 1 3.762-.907 20.31 20.31 0 0 1 1.724-.148zm15.578 28.925c-1.508-.396-3.011-.54-4.527-.507l.8-.687c.654-.563 1.376-1.132 1.752-1.934.58-1.233.075-2.576-1.255-2.976-1.52-.457-3.346.27-4.808.67-1.135.312-2.302.647-3.432 1.069.555-.611 1.053-1.263 1.496-1.812.809-1.004 3.042-3.213 1.938-4.61-1.02-1.288-3.244-.657-4.472-.111-.376.168-.991.437-1.61.783.503-1.455.437-3.024-1.141-3.22-1.248-.154-2.75.853-3.725 1.528-.703.486-1.46 1.098-2.071 1.792-.315-1.175-1.36-2.317-2.237-2.896-1.515-.997-3.093-.456-3.991 1.035-1.13 1.878-1.907 4.077-2.631 6.138-.624 1.778-1.48 4.006-1.471 6.006l-.423.13c-.87.284-1.87.594-2.834 1 .535-1.86 1.09-3.712 1.677-5.555 1.665-5.235 3.668-10.297 5.86-15.284.357.679.804 1.316 1.19 1.85 1.015 1.398 2.388 2.969 4.08 3.53 1.442.477 3.137.089 3.963-1.26.178-.29.31-.624.402-.98 1.595 1.29 3.812 2.078 5.435 2.084 1.41.006 2.982-.802 2.878-2.387.846.369 1.775.566 2.744.629 1.526.1 3.788-.105 4.964-1.216 1.488-1.405-.821-3.026-1.9-3.687a14.47 14.47 0 0 0-1.686-.906c2.088-1.23 3.808-4.03 1.204-5.222-1.796-.822-4.118-.933-6.05-.88a15.34 15.34 0 0 0-2.93.357c.238-.358.426-.737.535-1.13.447-1.6-1.043-1.822-2.248-1.904a18.022 18.022 0 0 0-2.013-.021 21.99 21.99 0 0 0 6.836-4.197c1.015-.92 2.375-2.578 1.262-3.944-.482-.592-1.22-.727-1.932-.821l.039-.021a22.11 22.11 0 0 0 2.69-1.93c1.62-1.346 3.54-3.252 4.117-5.343.215-.783.397-1.875-.085-2.586-.555-.817-1.535-.637-2.394-.507-1.807.27-3.64.819-5.27 1.699.287-.6.497-1.246.693-1.794.54-1.51.918-3.088 1.128-4.676.225-1.708 1.18-6.583-1.983-6.068-1.21.196-2.281 1.17-3.182 1.938a21.418 21.418 0 0 0-2.937 3.06c-.93 1.187-1.8 2.532-2.442 3.96-.877-2.52-2.985-4.827-4.467-2.978-.606.754-.83 1.87-1.071 2.785a20.206 20.206 0 0 0-.62 3.556c-.074.923-.19 2.153-.11 3.326-.467-.46-.987-.821-1.453-.998-2.19-.832-2.41 1.97-2.412 3.402-.001.559.043 1.11.12 1.652-.385-.42-.838-.762-1.424-.897-.9-.208-1.821.139-2.256.969-.29.553-.377 1.222-.375 1.887a13.105 13.105 0 0 0-.325-.417c-.778-.951-2.106-2.255-3.417-2.367-1.357-.115-1.587 1.52-1.518 2.534.024.34.078.704.16 1.073a17.13 17.13 0 0 0-2.654-1.487c-1.35-.616-4.32-1.768-5.532-.35-1.195 1.4.09 4.087.917 5.334.646.973 1.454 2.177 2.457 2.98a7.343 7.343 0 0 0-1.148.547c-1.037.608-2.962 2.118-2.51 3.522.524 1.625 3.429 1.693 4.758 1.8.478.04 1.2.13 1.96.162-.383.34-.711.742-.955 1.202-1.016 1.915 1.02 2.494 2.44 2.863 2.153.558 4.388 1.023 6.62.976 1.143-.024 2.523-.108 3.69-.543-.188.383-.378.765-.564 1.15-3.358 6.957-6.037 14.21-8.268 21.6-.856-.624-1.883-1.105-2.651-1.511a41.832 41.832 0 0 0-1.355-.682c-.264-5.856-2.238-11.474-5.051-16.602-.556-1.015-1.165-2.344-2.3-2.828-1.011-.432-2.03.019-2.52.963-.55 1.054-.562 2.532-.56 3.694 0 .568.017 1.132.076 1.686a9.025 9.025 0 0 0-1.594-1.327c-1.17-.775-3.146-1.863-4.625-1.59-1.68.31-1.58 2.466-1.031 3.656.193.418.468.897.8 1.364-2.76-.632-5.76-.23-8.265 1.164-1.077.598-2.971 1.898-2.598 3.39.16.646.7 1.167 1.375 1.547-1.03.287-2.034.755-2.73 1.106-1.92.97-3.736 2.36-5.12 4.014-1.196 1.43-1.372 3.552.706 4.24.936.31 2.23.48 3.448.36-.42.59-.686 1.279-.706 1.997-.057 2.06 1.812 3.175 3.668 3.275 2.514.136 4.935-.934 7.156-1.982a82.225 82.225 0 0 0 3.359-1.684c-.585 1.38-.768 2.962-.441 4.199.334 1.262 1.335 2.057 2.645 2.083.702.014 1.358-.225 2.003-.47.188-.07.377-.13.564-.19-.845 2.1-1.396 4.966.255 6.344 1.894 1.579 4.363.422 5.75-1.206 1.905-2.236 3.31-5.128 4.468-7.808.714-1.652 1.818-4.18 1.669-6.276.872.547 1.84 1.265 2.839 1.675-.19.66-.376 1.32-.56 1.983-1.453 5.26-3.211 10.778-2.968 16.277.03.72 1.008.759 1.3.207 2.217-4.164 3.069-8.922 4.229-13.465.376-1.472.764-2.94 1.163-4.406 1.537-.45 3.057-1.301 4.483-1.757.219-.07.439-.136.66-.202.034.64.158 1.285.217 1.92.105 1.138.094 2.274.072 3.414-.04 1.999-.156 4.136.302 6.1.354 1.52 1.295 2.834 2.994 2.825 1.324-.007 2.284-.825 3.034-1.81.576.905.753 2.13 1.12 3.094.495 1.293 1.433 2.618 2.906 2.84 2.242.339 3.25-1.797 3.327-4.022.23.17.475.32.73.448 1.432.713 3.82.916 4.45-.97.642-1.92-1.02-4.05-2-5.54a33.161 33.161 0 0 0-1.082-1.546c.434.29.875.575 1.328.847 1.988 1.196 4.442 2.869 6.812 3.054 2.006.156 3.818-1.3 3.468-3.412-.187-1.128-.9-2.385-1.84-3.288 1.633.054 3.36-.338 4.869-.734 1.395-.367 3.224-.997 3.322-2.707.11-1.937-2.08-2.818-3.616-3.22z"/>
        <path d="M192.787 62.112c-.586 1.255-1.302 2.436-2.047 3.598.82-3.815.953-7.801-.001-11.569-1.038-4.099-3.44-8.33-7.465-10.084-.244-.107-.42.189-.21.352 3.46 2.708 5.953 6.304 6.9 10.628.9 4.103.432 8.234-.288 12.313l-.28.43a20.9 20.9 0 0 0 .113-9.51c-1.343-6.046-5.632-10.734-10.277-14.564-5.121-4.222-10.33-8.193-14.747-13.19-4.815-5.445-8.954-11.663-11.947-18.295-.14-.31-.68-.091-.555.23 4.519 11.598 11.718 21.429 21.269 29.404 4.339 3.623 9.094 7.298 11.903 12.31 2.909 5.192 3.099 11.756.36 17.066-1.468 2.847-3.754 5.233-6.483 6.901a18.407 18.407 0 0 1-4.142 1.89c-.598.185-1.197.321-1.787.468 1.049-1.352 1.95-2.87 2.83-4.297 1.042-1.687 2.018-3.416 2.568-5.334 1.059-3.693.756-8.166-1.017-11.594-.103-.201-.366-.057-.34.136.518 3.818 1.549 7.468.446 11.307a16.945 16.945 0 0 1-1.192 2.968c.214-.897.36-1.818.429-2.758.4-5.498-1.65-10.807-4.371-15.477-3.177-5.45-6.97-10.518-10.152-15.974a165.958 165.958 0 0 1-4.703-8.608c-1.497-2.957-2.822-5.988-4.387-8.91-.26-.485-1.026-.102-.858.405 1.687 5.098 4.254 9.952 6.724 14.71 2.48 4.776 5.205 9.409 8.029 13.989 4.927 7.99 10.932 18.841 4.163 27.601-2.575 3.332-6.362 5.623-10.328 6.913-4.365 1.421-9.384 1.934-13.114-1.233-8.103-6.88-4.74-19.716-2.398-28.475 1.49-5.575 3.195-11.096 4.326-16.761 1.11-5.566 1.834-11.488.618-17.094-.092-.424-.764-.309-.747.118.235 5.697-.2 11.212-1.47 16.776-1.273 5.576-3.073 11.02-4.624 16.521-2.673 9.477-6.202 21.703 1.393 29.879a12.323 12.323 0 0 0 2.097 1.808c-.807.015-1.612.042-2.418.059-3.132-1.779-5.347-5.913-6.265-8.981-1.715-5.733-.362-11.292.52-17.018.022-.137-.206-.205-.264-.08-2.641 5.684-2.942 12.924-.722 18.794.899 2.379 2.754 5.466 5.146 7.298a24.737 24.737 0 0 1-2.897-.169c-2.72-.34-5.456-1.147-7.755-2.671-5.05-3.349-7.336-10.471-7.32-16.266.04-13.097 11.412-22.512 17.755-32.873 3.386-5.529 6.276-12.312 4.914-18.902-.074-.359-.644-.273-.633.089.218 7.115-2.257 13.479-6.32 19.231-3.945 5.587-8.841 10.469-12.532 16.237-3.426 5.354-5.958 11.537-5.491 18.004a28.152 28.152 0 0 0 1.133 6.129c-.365-.688-.767-1.361-1.06-2.083a15.266 15.266 0 0 1-1.028-4.137c-.33-3.083.465-5.681 1.252-8.607.062-.228-.266-.444-.425-.24-1.802 2.309-2.193 5.776-1.923 8.606.215 2.255.905 5.331 2.508 7.223a18.327 18.327 0 0 1-1.81-2.062 20.54 20.54 0 0 1-3.707-8.367c-1.216-6.365.904-12.684 5.103-17.499 3.746-4.295 8.479-7.56 12.573-11.494 4.13-3.97 7.283-8.671 8.697-14.275a27.831 27.831 0 0 0 .615-10.176c-.321-2.559-1.018-5.438-2.378-7.736 2.096.485 4.602.172 6.525-.372.904-.255 3.15-1.115 3.855-2.277.197 2.324.977 4.695 1.73 6.828.943 2.672 2.183 5.195 3.668 7.607 3.047 4.95 7.09 9.345 11.837 12.71 4.825 3.42 10.382 5.167 15.579 7.873 2.562 1.334 5.042 2.959 6.824 5.274 1.916 2.491 2.766 5.614 2.868 8.72.12 3.673-.848 7.298-2.392 10.609zM124.133 77.63c.098.061.214.024.289-.054.058.155.113.311.175.464-.156-.135-.31-.272-.464-.41zm21.16-75.346c.896-.39 1.829-.502 2.797-.56.763-.046 1.896-.317 2.628-.118 1.376.373-.855 1.347-1.431 1.585-.945.391-1.943.623-2.956.753-1.12.143-2.25.076-3.371.089.708-.657 1.39-1.338 2.333-1.749zm46.244 36.396c-4.71-3.803-10.734-5.261-16.031-8.002-5.34-2.764-10.043-6.723-13.748-11.45-2.11-2.69-3.852-5.625-5.325-8.706-1.514-3.168-2.232-6.556-3.534-9.785-.053-.132-.251-.071-.258.057-.004.079-.005.159-.007.238a2.227 2.227 0 0 0-.212-.27c-.726-.786-1.961-.704-2.931-.733-1.226-.036-2.502-.088-3.706.19-1.804.417-4.317 1.734-4.856 3.683-.081.076-.124.195-.088.347l.009.038v.001a.278.278 0 0 0-.024.294c-.003.092-.003.185.004.279.01.17.114.299.249.361.712 2.852 1.49 5.563 1.67 8.557.184 3.025-.171 6.054-.956 8.976-1.581 5.883-5.18 10.42-9.654 14.414-4.295 3.835-9.034 7.248-12.53 11.887-3.754 4.985-5.334 11.271-4.297 17.437 1 5.95 5.137 12.74 11.043 15.021 1.045 1.661 2.325 3.15 3.865 4.348 2.536 1.975 5.527 2.938 8.684 3.349 3.283.426 6.882.475 10.147-.113a.905.905 0 0 0 .706-.596c6.88 2.499 15.783-.926 21.024-5.569.049-.043.095-.089.144-.133 2.45.819 5.529-.536 7.713-1.611 2.609-1.284 4.983-3.153 6.812-5.415a20.152 20.152 0 0 0 1.98-2.948.525.525 0 0 0 .577-.079c2.674-2.173 4.483-5.273 6.125-8.264 1.614-2.942 2.875-6.084 3.352-9.419.893-6.232-.965-12.36-5.947-16.384z"/>
        <path d="M1023.958 146.086c.27 1.56.12 3.412-1 4.628-1.19 1.3-3.15 1.757-4.85 1.518-1.69-.236-3.3-1.108-4.3-2.504-.41-.56-.65-1.152-.83-1.757.07-1.191.06-2.385.62-3.493.75-1.506 2.17-2.521 3.8-2.901 3.32-.78 6 1.224 6.56 4.509zm-8.79-6.244c-1.79.86-3.23 2.3-3.85 4.215-.33 1.03-.46 2.296-.11 3.357.07.895.39 1.803.77 2.536.81 1.586 2.2 2.856 3.83 3.57 3.2 1.404 7.48.815 9.44-2.327 1.76-2.795 1.24-6.901-.69-9.478-2.17-2.906-6.22-3.392-9.39-1.873z"/>
        <path d="M978.958 430.086c.27 1.56.12 3.412-1 4.628-1.19 1.3-3.15 1.757-4.85 1.518-1.69-.236-3.3-1.108-4.3-2.504-.41-.56-.65-1.152-.83-1.757.07-1.191.06-2.385.62-3.493.75-1.506 2.17-2.521 3.8-2.901 3.32-.78 6 1.224 6.56 4.509zm-8.79-6.244c-1.79.86-3.23 2.3-3.85 4.215-.33 1.03-.46 2.296-.11 3.357.07.895.39 1.803.77 2.536.81 1.586 2.2 2.856 3.83 3.57 3.2 1.404 7.48.815 9.44-2.327 1.76-2.795 1.24-6.901-.69-9.478-2.17-2.906-6.22-3.392-9.39-1.873z"/>
        <path d="M99.958 430.086c.27 1.56.12 3.412-1 4.628-1.19 1.3-3.15 1.757-4.85 1.518-1.69-.236-3.3-1.108-4.3-2.504-.41-.56-.65-1.152-.83-1.757.07-1.191.06-2.385.62-3.493.75-1.506 2.17-2.521 3.8-2.901 3.32-.78 6 1.224 6.56 4.509zm-8.79-6.244c-1.79.86-3.23 2.3-3.85 4.215-.33 1.03-.46 2.296-.11 3.357.07.895.39 1.803.77 2.536.81 1.586 2.2 2.856 3.83 3.57 3.2 1.404 7.48.815 9.44-2.327 1.76-2.795 1.24-6.901-.69-9.478-2.17-2.906-6.22-3.392-9.39-1.873z"/>
        <path d="M45.958 152.086c.27 1.56.12 3.412-1 4.628-1.19 1.3-3.15 1.757-4.85 1.518-1.69-.236-3.3-1.108-4.3-2.504-.41-.56-.65-1.152-.83-1.757.07-1.191.06-2.385.62-3.493.75-1.506 2.17-2.521 3.8-2.901 3.32-.78 6 1.224 6.56 4.509zm-8.79-6.244c-1.79.86-3.23 2.3-3.85 4.215-.33 1.03-.46 2.296-.11 3.357.07.895.39 1.803.77 2.536.81 1.586 2.2 2.856 3.83 3.57 3.2 1.404 7.48.815 9.44-2.327 1.76-2.795 1.24-6.901-.69-9.478-2.17-2.906-6.22-3.392-9.39-1.873z"/>
    </g>
</svg>
