<svg width="18" height="18" viewBox="0 0 18 18" xmlns="http://www.w3.org/2000/svg">
    <title>
        Home
    </title>
    <g fill="#302B2B" fill-rule="nonzero">
        <path d="M1.543 4.143L8.03.54a2 2 0 0 1 1.942 0l6.486 3.603A3 3 0 0 1 18 6.765V15a3 3 0 0 1-3 3H3a3 3 0 0 1-3-3V6.765a3 3 0 0 1 1.543-2.622zm.971 1.748A1 1 0 0 0 2 6.765V15a1 1 0 0 0 1 1h12a1 1 0 0 0 1-1V6.765a1 1 0 0 0-.514-.874L9 2.288 2.514 5.89z"/>
        <path d="M8 9h2a2 2 0 0 1 2 2v5a2 2 0 0 1-2 2H8a2 2 0 0 1-2-2v-5a2 2 0 0 1 2-2zm0 7h2v-5H8v5z"/>
    </g>
</svg>
